<svg width="38" height="43" viewBox="0 0 38 43" fill="none" xmlns="http://www.w3.org/2000/svg">
<path d="M37.8284 0C37.8284 3.20211 35.2152 5.79928 31.9933 5.79928H5.82628V31.4045C5.82628 34.6008 3.21894 37.1951 0 37.1951V0H37.8284Z" fill="#101729"/>
<path d="M36.5688 16.5282C35.5943 19.0694 34.0975 21.3579 32.2103 23.2631H32.0078C32.0078 23.3299 32.0078 23.3967 32.0078 23.4635C32.0753 23.3967 32.1399 23.3299 32.2074 23.2631H37.8367V24.0705C37.7838 25.7985 37.505 27.4685 37.0266 29.0542C37.0266 29.0542 37.0266 29.0542 37.0266 29.0571C36.0874 32.1705 34.3881 34.9585 32.137 37.2093C28.6796 40.6683 23.9249 42.8552 18.6567 43.0004H5.92188V42.9946C5.92188 39.7999 8.53693 37.2122 11.7654 37.2122H17.3359C17.5884 37.2268 17.8437 37.2326 18.099 37.2326C18.3544 37.2326 18.6097 37.2268 18.8621 37.2122C24.2067 36.9276 28.75 33.6574 30.8162 29.0542H9.29415V23.3561H18.099C18.6479 23.3561 19.1879 23.3241 19.7191 23.2631C24.1597 22.752 27.9634 20.1759 30.1148 16.5282C30.3848 16.0722 30.6284 15.5988 30.8456 15.1109H9.29415V9.31982H37.8396V10.194C37.7868 11.8988 37.5167 13.5455 37.0501 15.1109C36.9063 15.5901 36.7449 16.0606 36.5688 16.5253V16.5282Z" fill="#101729"/>
<path d="M3.56328 37.5249C2.5019 37.5249 1.64062 38.3777 1.64062 39.4286C1.64062 40.4795 2.5019 41.3323 3.56328 41.3323C4.62465 41.3323 5.48303 40.4795 5.48303 39.4286C5.48303 38.3777 4.62175 37.5249 3.56328 37.5249ZM3.56328 40.3216C3.06449 40.3216 2.6614 39.9225 2.6614 39.4286C2.6614 38.9347 3.06739 38.5356 3.56328 38.5356C4.05917 38.5356 4.46515 38.9347 4.46515 39.4286C4.46515 39.9225 4.06206 40.3216 3.56328 40.3216Z" fill="#101729"/>
</svg>