<svg width="75" height="74" viewBox="0 0 75 74" fill="none" xmlns="http://www.w3.org/2000/svg">
<rect x="8.80762" y="24.3125" width="44" height="44" rx="6" transform="rotate(-23.0861 8.80762 24.3125)" fill="black"/>
<rect x="12.8066" y="16.8223" width="4.28587" height="55.9993" rx="2.14293" transform="rotate(-23.0861 12.8066 16.8223)" fill="black"/>
<rect x="18.7227" y="14.3013" width="4.28587" height="55.9993" rx="2.14293" transform="rotate(-23.0861 18.7227 14.3013)" fill="black"/>
<rect x="30.5488" y="9.25977" width="4.28587" height="55.9993" rx="2.14293" transform="rotate(-23.0861 30.5488 9.25977)" fill="black"/>
<rect x="24.6348" y="11.7808" width="4.28587" height="55.9993" rx="2.14293" transform="rotate(-23.0861 24.6348 11.7808)" fill="black"/>
<rect x="36.4609" y="6.73926" width="4.28587" height="55.9993" rx="2.14293" transform="rotate(-23.0861 36.4609 6.73926)" fill="black"/>
<rect width="4.28506" height="55.9982" rx="2.14253" transform="matrix(0.392049 0.919944 -0.919952 0.392032 57.3223 11.8481)" fill="black"/>
<rect width="4.28506" height="55.9982" rx="2.14253" transform="matrix(0.392046 0.919946 -0.91995 0.392036 59.8418 17.7607)" fill="black"/>
<rect width="4.28506" height="55.9982" rx="2.14253" transform="matrix(0.392046 0.919946 -0.91995 0.392036 64.8828 29.5864)" fill="black"/>
<rect width="4.28506" height="55.9982" rx="2.14253" transform="matrix(0.392046 0.919946 -0.91995 0.392036 62.3633 23.6738)" fill="black"/>
<rect width="4.28506" height="55.9982" rx="2.14253" transform="matrix(0.392046 0.919946 -0.91995 0.392036 67.4023 35.4995)" fill="black"/>
<path d="M30.1673 45.7575L29.8133 32.2115L32.1977 31.1951L41.692 40.8451L38.8439 42.0591L34.1526 37.1125C33.9655 36.9183 33.7713 36.7076 33.57 36.4803C33.3688 36.253 33.1652 36.0202 32.9593 35.7819C32.7486 35.5325 32.5427 35.2942 32.3414 35.0669C32.1465 34.8238 31.972 34.5982 31.818 34.3899L32.3077 34.1616C32.3591 34.4658 32.3971 34.7692 32.4218 35.0718C32.4574 35.3696 32.4876 35.6699 32.5122 35.9724C32.5431 36.2593 32.5654 36.5563 32.579 36.8636C32.5878 37.1599 32.6069 37.4648 32.6363 37.7784L32.9491 44.5718L30.1673 45.7575ZM31.4072 42.607L31.3814 40.1135L36.7132 37.8408L38.4777 39.5932L31.4072 42.607ZM42.9063 40.3275L41.897 37.9596L43.8509 37.1268L40.9289 30.2716L38.975 31.1044L37.9657 28.7366L44.705 25.8639L45.7143 28.2318L43.7438 29.0717L46.6659 35.9269L48.6363 35.087L49.6456 37.4549L42.9063 40.3275Z" fill="white"/>
</svg>
