<svg width="48" height="52" viewBox="0 0 48 52" fill="none" xmlns="http://www.w3.org/2000/svg">
<path d="M42.3459 7.42365C44.2806 8.67754 45.9432 10.1552 46.9109 12.3295C49.2288 17.5297 46.7305 23.5921 41.3994 25.594C41.0382 25.7289 40.6827 25.8758 40.3115 26.0247C43.9228 31.2937 42.0996 37.192 38.2008 40.001C33.4936 43.3942 28.2741 42.2961 23.2736 36.7322C22.5884 38.676 21.9552 40.5507 21.2647 42.4027C20.6766 43.9786 20.2076 45.6365 19.3613 47.0689C17.1946 50.7382 13.3559 52.3796 9.10181 51.6967C8.95703 51.6732 8.80058 51.7254 8.64997 51.7398L6.19444 50.8742C6.05576 50.7479 5.93172 50.5943 5.77381 50.5011C0.233119 47.3168 -0.993384 39.8889 3.41382 35.2961C4.69854 33.9582 6.46981 33.0841 8.02375 31.9935C4.12913 26.4249 6.77348 18.6881 13.7341 16.6412C13.5375 16.2947 13.3483 15.9558 13.1522 15.622C10.1922 10.5701 12.2015 4.20788 17.5054 1.69188C19.5392 0.727969 21.6526 0.698718 23.8164 0.889536L42.349 7.42221L42.3459 7.42365ZM24.9346 22.2802C22.6577 21.4776 20.5114 20.6961 18.3456 19.9626C15.1795 18.8915 11.5682 20.3933 10.1483 23.3393C8.65488 26.4368 9.64865 30.3385 12.7454 31.9196C15.1659 33.155 17.8844 33.8085 20.5408 34.7449L24.9346 22.2802ZM26.0508 19.0923L30.4235 6.68754C28.1577 5.88886 25.9825 5.08962 23.7823 4.35402C20.5788 3.28224 17.0387 4.78161 15.6415 7.75564C14.2265 10.7659 15.1425 14.6677 18.0859 16.1997C20.561 17.4868 23.3632 18.1449 26.0508 19.0923ZM33.5539 7.83846L29.1742 20.2632C31.7771 21.1807 34.2465 22.2559 36.8207 22.9061C39.8815 23.6778 43.1498 21.5682 44.2135 18.4866C45.2396 15.5116 43.8995 11.7949 41.0887 10.5419C38.6894 9.4739 36.1359 8.7511 33.5531 7.84068L33.5539 7.83846ZM19.292 37.9461C16.9592 37.1238 14.6326 36.1488 12.2173 35.4897C8.805 34.5616 5.42731 36.5328 4.29881 39.8838C3.27155 42.9333 4.85493 46.6433 7.72748 47.9206C11.1841 49.4562 15.0798 48.4718 16.6185 45.3453C17.7484 43.0513 18.3837 40.5155 19.2897 37.9453L19.292 37.9461ZM29.9857 38.2665C33.5878 39.5388 37.4403 37.7299 38.6788 34.188C39.8954 30.7082 38.0261 26.9049 34.4799 25.6449C30.9203 24.3802 26.9414 26.2344 25.7511 29.7109C24.5686 33.1652 26.4795 37.0281 29.9879 38.2673L29.9857 38.2665Z" fill="black"/>
</svg>
