<svg width="1124" height="466" viewBox="0 0 1124 466" fill="none" xmlns="http://www.w3.org/2000/svg">
<path d="M1118.38 232.943L1119.26 238.096C1119.24 238.999 1119.24 239.901 1119.22 240.804C1119 248.735 1115.88 255.351 1110.18 260.884C1109.92 260.63 1109.71 260.441 1109.52 260.236C1102.99 253.261 1096.45 246.285 1089.92 239.309C1087.63 236.864 1085.35 234.412 1083.05 231.973C1082.36 231.238 1080.89 231.118 1079.85 231.682C1078.95 232.168 1079.28 232.949 1079.4 233.663C1080.5 240.165 1081.6 246.665 1082.7 253.168C1082.95 254.613 1083.27 254.822 1084.72 254.572C1086.2 254.318 1086.37 254.084 1086.12 252.572C1085.46 248.605 1084.78 244.64 1084.11 240.671C1083.95 239.71 1083.78 238.748 1083.58 237.518C1091.95 245.969 1100.1 254.194 1108.4 262.573C1106.64 263.572 1104.88 264.652 1103.05 265.572C1101.67 266.268 1100.17 266.756 1098.73 267.337L1093.09 268.297C1092.89 268.255 1092.69 268.174 1092.5 268.177C1080.53 268.364 1071.74 263.14 1066.13 252.606C1065.3 251.058 1064.76 249.36 1064.09 247.729C1063.77 245.847 1063.45 243.968 1063.13 242.086C1063.14 241.561 1063.15 241.035 1063.17 240.512C1063.52 228.597 1069.01 219.968 1079.7 214.696C1081.06 214.028 1082.53 213.592 1083.94 213.048C1085.74 212.742 1087.54 212.436 1089.34 212.13C1089.53 212.173 1089.73 212.259 1089.92 212.256C1101.83 212.072 1110.58 217.291 1116.24 227.708C1117.13 229.356 1117.68 231.192 1118.38 232.943ZM1102.68 247.653C1102.77 247.405 1102.83 247.329 1102.82 247.268C1101.79 241.176 1100.75 235.09 1099.73 228.997C1099.53 227.814 1098.86 227.54 1097.77 227.748C1096.78 227.937 1096.01 228.173 1096.23 229.471C1096.97 233.844 1097.67 238.225 1098.4 242.599C1098.45 242.911 1098.59 243.256 1098.8 243.486C1100.04 244.86 1101.32 246.205 1102.67 247.656L1102.68 247.653Z" fill="black"/>
<path d="M57.4429 181.823L59.324 182.551C61.5298 184.074 62.3404 186.255 61.8849 188.754C61.517 190.775 60.8828 192.779 60.1031 194.683C59.4042 196.386 58.3459 197.941 57.5245 199.422C59.3709 201.281 61.2653 202.994 62.9249 204.909C64.8234 207.101 66.1134 209.616 65.7906 212.659L65.2496 214.058C63.4457 216.347 60.9378 217.422 58.1522 217.79C55.6056 218.126 53.0169 218.173 50.3264 218.358C50.2864 218.503 50.2077 218.819 50.1196 219.13C49.4274 221.557 48.9162 224.053 48.0006 226.392C46.3978 230.495 43.8676 232.104 39.9733 231.892L38.5625 231.347C34.7135 228.893 32.3819 225.228 30.4319 221.212C26.0457 222.923 21.638 224.081 16.9303 222.982L16.2249 222.709C13.8068 221.35 12.786 219.251 13.0696 216.568C13.2037 215.298 13.3843 213.971 13.8816 212.818C14.9419 210.363 16.2229 208.001 17.4253 205.576C16.1789 204.403 14.7315 203.197 13.4687 201.821C11.0314 199.163 8.98415 196.286 9.28891 192.416L9.92009 190.784C11.2292 189.272 12.7964 188.05 14.78 187.715C17.3589 187.281 19.9825 187.095 22.5918 186.855C23.3572 186.783 24.1408 186.896 24.647 186.915C25.4744 184.069 26.0631 181.338 27.0609 178.764C28.7463 174.42 31.0419 172.957 35.1053 173.185L36.0458 173.549C38.4159 174.948 40.3822 176.783 41.8864 179.072C42.9105 180.632 43.8328 182.259 44.845 183.926C48.864 182.312 53.0076 181.194 57.4462 181.822L57.4429 181.823ZM40.9697 193.696C39.5213 193.136 38.0891 192.534 36.616 192.044C36.2231 191.914 35.5913 191.975 35.2758 192.218C32.8004 194.118 30.355 196.059 27.9567 198.053C27.6189 198.333 27.374 198.994 27.4374 199.431C27.878 202.521 28.3844 205.6 28.9454 208.672C29.0165 209.061 29.4471 209.542 29.8286 209.694C32.6665 210.848 35.529 211.952 38.4039 213.01C38.7993 213.155 39.4536 213.127 39.7616 212.89C42.2955 210.929 44.7904 208.916 47.2558 206.867C47.5381 206.633 47.7277 206.066 47.6728 205.691C47.2177 202.604 46.7201 199.522 46.1623 196.449C46.0907 196.054 45.6802 195.571 45.3018 195.403C43.886 194.773 42.4181 194.256 40.9729 193.694L40.9697 193.696ZM24.5709 189.488C24.1907 189.451 23.9024 189.407 23.6128 189.394C20.3387 189.256 17.0721 189.253 14.0272 190.675C11.9067 191.664 11.3224 192.945 12.1129 195.13C13.4255 198.76 16.1873 201.222 19.081 203.552C20.9169 201.6 22.6526 199.768 24.3637 197.916C24.5446 197.72 24.6888 197.403 24.686 197.145C24.6674 194.621 24.616 192.098 24.5709 189.488ZM19.7081 207.18C19.1892 207.976 18.6611 208.713 18.2085 209.492C16.8828 211.767 15.7471 214.124 15.56 216.81C15.4021 219.091 16.2711 220.269 18.5344 220.686C22.3611 221.394 25.8762 220.244 29.359 218.905C28.7211 216.983 27.9952 215.191 27.5503 213.335C27.1852 211.819 26.5677 210.795 25.0457 210.131C23.2227 209.338 21.5435 208.214 19.7104 207.181L19.7081 207.18ZM42.3977 184.893C40.6198 181.558 38.8231 178.25 35.4482 176.178C33.8884 175.221 32.5721 175.326 31.3767 176.649C28.6714 179.639 28.0368 183.398 27.4846 187.168C30.0837 187.779 32.5188 188.367 34.9654 188.911C35.244 188.973 35.6155 188.851 35.8789 188.701C38.0133 187.473 40.1329 186.221 42.3954 184.893L42.3977 184.893ZM47.7409 217.942C45.1315 217.33 42.689 216.748 40.2377 216.202C39.952 216.137 39.5678 216.187 39.3197 216.332C37.1658 217.603 35.032 218.906 32.8054 220.254C34.2494 223.334 35.9828 226.275 38.7813 228.419C41.0023 230.119 42.6533 229.841 44.3534 227.59C46.507 224.74 47.2401 221.383 47.74 217.945L47.7409 217.942ZM55.3379 197.968C55.8441 197.169 56.4066 196.358 56.8891 195.502C58.0815 193.389 59.0991 191.212 59.3868 188.756C59.7412 185.735 58.6326 184.352 55.5704 184.184C52.1384 183.994 48.9647 185.015 45.867 186.246C46.6254 188.737 47.3601 191.171 48.1167 193.597C48.1829 193.81 48.3505 194.055 48.541 194.163C50.7524 195.42 52.9784 196.654 55.3379 197.968ZM50.644 215.607C54.0162 215.834 57.3818 215.798 60.5937 214.51C63.2811 213.431 63.9697 211.693 62.6967 209.155C61.1294 206.03 58.6285 203.725 55.9055 201.659C54.1223 203.537 52.4025 205.335 50.7088 207.157C50.5329 207.346 50.4311 207.68 50.4344 207.943C50.4857 210.467 50.5666 212.991 50.6417 215.607L50.644 215.607ZM36.5275 215.137L29.8709 212.563C30.5265 214.446 31.1008 216.099 31.718 217.879C33.3822 216.931 34.8763 216.08 36.5275 215.137ZM48.0418 209.685C46.0757 211.268 44.3667 212.647 42.4205 214.213C44.3942 214.617 46.1253 214.97 48.0446 215.361C48.0436 213.441 48.0434 211.68 48.0442 209.686L48.0418 209.685ZM43.4636 187.268C41.8004 188.193 40.2843 189.038 38.5998 189.976L45.2306 192.54C44.6124 190.693 44.0671 189.069 43.4636 187.268ZM26.098 207.962C25.6847 205.438 25.3323 203.281 24.9389 200.867C23.6275 202.356 22.4934 203.647 21.2225 205.088C22.8516 206.048 24.3416 206.927 26.0989 207.96L26.098 207.962ZM50.1338 204.219C51.4572 202.726 52.5851 201.452 53.8045 200.074C52.1388 199.076 50.6765 198.203 49.0038 197.202C49.3968 199.646 49.7374 201.764 50.1315 204.218L50.1338 204.219ZM27.184 189.769C27.1607 191.626 27.1405 193.342 27.1149 195.323C28.2055 194.418 29.0242 193.727 29.8595 193.056C30.7064 192.375 31.5724 191.716 32.6688 190.858C30.6953 190.468 29.0365 190.137 27.184 189.769Z" fill="black"/>
<path d="M39.3986 197.543C42.2151 198.605 43.5826 201.597 42.5184 204.37C41.4606 207.126 38.3905 208.488 35.6301 207.421C32.9331 206.378 31.5612 203.341 32.5679 200.64C33.6147 197.828 36.5868 196.482 39.3986 197.543Z" fill="black"/>
<path d="M73.2971 437.721C72.9514 436.417 72.6057 435.112 72.26 433.808C72.1492 432.031 71.9808 430.258 71.9394 428.479C71.8247 423.412 74.279 420.125 79.1375 418.821C84.6528 417.34 90.1763 415.89 95.6963 414.427C96.4268 414.233 97.1572 414.04 97.9868 413.82L97.4938 411.96L83.6519 415.628C82.9916 413.137 82.2676 410.816 81.7826 408.449C81.3783 406.47 81.9933 404.682 83.6395 403.414C84.5551 402.708 85.5335 402.038 86.5766 401.549C88.389 400.698 90.2742 399.994 92.1291 399.229C93.4335 398.883 94.7378 398.538 96.0422 398.192C97.4965 397.991 98.9531 397.809 100.405 397.588C105.586 396.804 109.135 399.125 110.479 404.185C111.505 408.054 112.537 411.918 113.555 415.789C114.792 420.511 112.655 424.205 107.955 425.464C103.656 426.615 99.349 427.745 95.0479 428.888C89.6786 430.319 86.8609 435.131 88.2567 440.482C88.764 442.428 89.2869 444.369 89.82 446.38C87.7486 446.929 85.8301 447.591 83.8591 447.918C81.8717 448.247 79.9741 447.65 78.5461 446.191C77.4933 445.116 76.5297 443.903 75.7521 442.612C74.8117 441.055 74.1076 439.357 73.2997 437.72L73.2971 437.721ZM88.7397 410.48C90.2119 410.104 91.1146 408.622 90.7589 407.164C90.4039 405.709 88.9024 404.794 87.4404 405.146C85.8759 405.521 84.9835 407 85.3948 408.541C85.7908 410.025 87.2362 410.865 88.7397 410.48Z" fill="black"/>
<path d="M111.409 457.215L108.018 458.114C107.576 458.142 107.131 458.148 106.692 458.2C103.914 458.537 101.146 458.606 98.4277 457.789C95.7856 456.995 94.0347 455.382 93.355 452.586C92.3363 448.394 91.1472 444.245 90.0678 440.067C88.9081 435.586 91.0686 431.886 95.5396 430.679C99.7479 429.544 103.968 428.442 108.18 427.323C114.005 425.777 116.829 420.896 115.29 415.036C114.827 413.266 114.353 411.501 113.87 409.678C116.093 409.089 118.143 408.291 120.251 408.081C121.56 407.952 123.171 408.405 124.26 409.155C125.572 410.061 126.633 411.46 127.513 412.832C128.639 414.586 129.474 416.526 130.437 418.387L131.474 422.3C131.459 422.558 131.435 422.818 131.429 423.08C131.369 425.885 131.501 428.712 131.196 431.492C130.882 434.351 129.077 436.096 126.228 436.827C119.828 438.467 113.449 440.197 107.062 441.889C106.598 442.012 106.136 442.135 105.662 442.261L106.159 444.139L120.093 440.446C120.529 442.092 120.89 443.621 121.34 445.121C122.214 448.02 121.427 450.453 119.276 452.45C118.299 453.357 117.199 454.168 116.052 454.846C114.558 455.728 112.961 456.433 111.409 457.215ZM116.317 450.895C117.777 450.524 118.678 449.066 118.345 447.61C117.997 446.086 116.485 445.163 114.966 445.543C113.487 445.916 112.605 447.347 112.939 448.83C113.281 450.34 114.81 451.275 116.317 450.895Z" fill="black"/>
<path d="M1003.35 14.4237C1005.28 15.6775 1006.94 17.1552 1007.91 19.3295C1010.23 24.5297 1007.73 30.5921 1002.4 32.594C1002.04 32.7289 1001.68 32.8758 1001.31 33.0247C1004.92 38.2937 1003.1 44.192 999.201 47.001C994.494 50.3942 989.274 49.2961 984.274 43.7322C983.588 45.676 982.955 47.5507 982.265 49.4027C981.677 50.9786 981.208 52.6365 980.361 54.0689C978.195 57.7382 974.356 59.3796 970.102 58.6967C969.957 58.6732 969.801 58.7254 969.65 58.7398L967.194 57.8742C967.056 57.7479 966.932 57.5943 966.774 57.5011C961.233 54.3168 960.007 46.8889 964.414 42.2961C965.699 40.9582 967.47 40.0841 969.024 38.9935C965.129 33.4249 967.773 25.6881 974.734 23.6412C974.537 23.2947 974.348 22.9558 974.152 22.622C971.192 17.5701 973.201 11.2079 978.505 8.69188C980.539 7.72797 982.653 7.69872 984.816 7.88954L1003.35 14.4222L1003.35 14.4237ZM985.935 29.2802C983.658 28.4776 981.511 27.6961 979.346 26.9626C976.179 25.8915 972.568 27.3933 971.148 30.3393C969.655 33.4368 970.649 37.3385 973.745 38.9196C976.166 40.155 978.884 40.8085 981.541 41.7449L985.935 29.2802ZM987.051 26.0923L991.423 13.6875C989.158 12.8889 986.982 12.0896 984.782 11.354C981.579 10.2822 978.039 11.7816 976.641 14.7556C975.227 17.7659 976.142 21.6677 979.086 23.1997C981.561 24.4868 984.363 25.1449 987.051 26.0923ZM994.554 14.8385L990.174 27.2632C992.777 28.1807 995.247 29.2559 997.821 29.9061C1000.88 30.6778 1004.15 28.5682 1005.21 25.4866C1006.24 22.5116 1004.9 18.7949 1002.09 17.5419C999.689 16.4739 997.136 15.7511 994.553 14.8407L994.554 14.8385ZM980.292 44.9461C977.959 44.1238 975.633 43.1488 973.217 42.4897C969.805 41.5616 966.427 43.5328 965.299 46.8838C964.272 49.9333 965.855 53.6433 968.727 54.9206C972.184 56.4562 976.08 55.4718 977.618 52.3453C978.748 50.0513 979.384 47.5155 980.29 44.9453L980.292 44.9461ZM990.986 45.2665C994.588 46.5388 998.44 44.7299 999.679 41.188C1000.9 37.7082 999.026 33.9049 995.48 32.6449C991.92 31.3802 987.941 33.2344 986.751 36.7109C985.569 40.1652 987.48 44.0281 990.988 45.2673L990.986 45.2665Z" fill="black"/>
<path d="M943.726 438.179C942.379 441.453 939.461 442.606 936.456 443.792C927.072 447.492 917.735 451.309 908.371 455.064C906.276 455.903 904.083 455.786 902.315 454.507C898.91 452.042 895.701 449.301 892.192 446.503C894.023 445.938 895.593 445.38 897.206 445.009C897.632 444.91 898.261 445.298 898.675 445.62C900.475 447.022 902.257 448.442 903.982 449.93C904.911 450.734 905.748 450.857 906.916 450.38C916.676 446.395 926.449 442.436 936.257 438.569C938.024 437.873 938.809 436.879 939.065 434.992C940.435 424.814 941.898 414.646 943.414 404.486C943.671 402.762 943.269 401.629 941.861 400.539C933.479 394.053 925.148 387.499 916.835 380.919C915.85 380.142 915.021 380.061 913.89 380.519C904.066 384.495 894.235 388.449 884.379 392.334C882.818 392.948 882.08 393.801 881.849 395.518C880.443 405.922 878.948 416.317 877.406 426.702C877.187 428.186 877.496 429.171 878.729 430.06C880.852 431.591 882.819 433.342 884.959 434.851C885.899 435.514 887.058 436.019 888.189 436.236C890.849 436.747 892.717 435.312 893.12 432.589C893.97 426.83 894.776 421.065 895.599 415.305C896.309 410.332 897.063 405.369 897.701 400.39C897.884 398.96 898.444 398.604 899.828 398.819C903.113 399.329 903.122 399.272 902.643 402.621C901.215 412.621 899.808 422.62 898.34 432.615C898.133 434.01 897.757 435.409 897.251 436.724C895.347 441.654 889.884 442.95 885.327 440.49C881.312 438.322 877.675 435.354 874.193 432.373C873.04 431.385 872.872 429.244 872.255 427.631L877.192 393.054C878.196 391.139 879.193 389.314 881.441 388.445C892.883 384.015 904.301 379.509 915.732 375.033C915.959 375.066 916.183 375.098 916.41 375.13C917.799 375.989 919.277 376.733 920.556 377.728C928.099 383.6 935.569 389.568 943.12 395.426C945.795 397.503 948.557 399.426 948.709 403.26L943.723 438.175L943.726 438.179Z" fill="black"/>
<path d="M917.956 433.351C913.123 432.657 909.309 431.774 906.24 429.021C903.903 426.927 903.03 424.277 903.376 421.176C903.492 420.144 903.98 419.781 904.978 419.983C905.647 420.116 906.329 420.238 907.01 420.266C908.02 420.31 908.442 420.868 908.474 421.786C908.58 425.108 910.596 426.977 913.542 427.594C916.746 428.266 920.05 428.475 923.323 428.759C924.061 428.823 924.893 428.472 925.596 428.129C927.134 427.387 927.757 426.027 927.845 424.372C927.925 422.862 926.945 421.951 925.798 421.503C923.108 420.455 920.315 419.669 917.582 418.725C915.12 417.875 912.606 417.119 910.25 416.035C903.914 413.12 905.673 404.724 909.932 402.271C912.348 400.88 914.934 400.426 917.648 400.533C921.841 400.696 925.91 401.391 929.537 403.701C932.569 405.628 933.721 408.532 933.81 411.976C933.843 413.199 933.326 413.699 932.015 413.529C929.29 413.182 929.283 413.236 928.444 410.508C927.89 408.699 926.723 407.201 924.967 406.788C921.952 406.077 918.84 405.729 915.751 405.392C914.978 405.306 914.06 405.701 913.344 406.114C910.785 407.588 910.773 410.7 913.462 411.848C916.374 413.087 919.484 413.86 922.489 414.887C924.527 415.583 926.571 416.283 928.549 417.137C931.882 418.577 933.684 421.142 933.287 424.824C932.925 428.18 931.341 430.869 928.11 432.324C924.531 433.937 920.805 433.799 917.95 433.347L917.956 433.351Z" fill="black"/>
<rect x="78.8076" y="24.3125" width="44" height="44" rx="6" transform="rotate(-23.0861 78.8076 24.3125)" fill="black"/>
<rect x="82.8066" y="16.8223" width="4.28587" height="55.9993" rx="2.14293" transform="rotate(-23.0861 82.8066 16.8223)" fill="black"/>
<rect x="88.7227" y="14.3013" width="4.28587" height="55.9993" rx="2.14293" transform="rotate(-23.0861 88.7227 14.3013)" fill="black"/>
<rect x="100.549" y="9.25977" width="4.28587" height="55.9993" rx="2.14293" transform="rotate(-23.0861 100.549 9.25977)" fill="black"/>
<rect x="94.6348" y="11.7808" width="4.28587" height="55.9993" rx="2.14293" transform="rotate(-23.0861 94.6348 11.7808)" fill="black"/>
<rect x="106.461" y="6.73926" width="4.28587" height="55.9993" rx="2.14293" transform="rotate(-23.0861 106.461 6.73926)" fill="black"/>
<rect width="4.28506" height="55.9982" rx="2.14253" transform="matrix(0.392049 0.919944 -0.919952 0.392032 127.322 11.8481)" fill="black"/>
<rect width="4.28506" height="55.9982" rx="2.14253" transform="matrix(0.392046 0.919946 -0.91995 0.392036 129.842 17.7607)" fill="black"/>
<rect width="4.28506" height="55.9982" rx="2.14253" transform="matrix(0.392046 0.919946 -0.91995 0.392036 134.883 29.5864)" fill="black"/>
<rect width="4.28506" height="55.9982" rx="2.14253" transform="matrix(0.392046 0.919946 -0.91995 0.392036 132.363 23.6738)" fill="black"/>
<rect width="4.28506" height="55.9982" rx="2.14253" transform="matrix(0.392046 0.919946 -0.91995 0.392036 137.402 35.4995)" fill="black"/>
<path d="M100.167 45.7575L99.8133 32.2115L102.198 31.1951L111.692 40.8451L108.844 42.0591L104.153 37.1125C103.965 36.9183 103.771 36.7076 103.57 36.4803C103.369 36.253 103.165 36.0202 102.959 35.7819C102.749 35.5325 102.543 35.2942 102.341 35.0669C102.147 34.8238 101.972 34.5982 101.818 34.3899L102.308 34.1616C102.359 34.4658 102.397 34.7692 102.422 35.0718C102.457 35.3696 102.488 35.6699 102.512 35.9724C102.543 36.2593 102.565 36.5563 102.579 36.8636C102.588 37.1599 102.607 37.4648 102.636 37.7784L102.949 44.5718L100.167 45.7575ZM101.407 42.607L101.381 40.1135L106.713 37.8408L108.478 39.5932L101.407 42.607ZM112.906 40.3275L111.897 37.9596L113.851 37.1268L110.929 30.2716L108.975 31.1044L107.966 28.7366L114.705 25.8639L115.714 28.2318L113.744 29.0717L116.666 35.9269L118.636 35.087L119.646 37.4549L112.906 40.3275Z" fill="white"/>
</svg>
