<svg width="57" height="57" viewBox="0 0 57 57" fill="none" xmlns="http://www.w3.org/2000/svg">
<path d="M55.3794 20.9432L56.2556 26.0959C56.2426 26.9994 56.2419 27.9008 56.2162 28.8039C55.9996 36.7352 52.8756 43.3508 47.1818 48.8835C46.9215 48.6299 46.7102 48.4411 46.5188 48.2364C39.9856 41.261 33.4547 34.2852 26.9239 27.3094C24.6347 24.8635 22.3471 22.4123 20.049 19.973C19.3559 19.2375 17.8915 19.118 16.8487 19.6816C15.9493 20.1678 16.2817 20.9494 16.4031 21.6634C17.4985 28.1649 18.5989 34.6655 19.7046 41.1677C19.9503 42.6129 20.2661 42.8217 21.7182 42.5723C23.1974 42.3182 23.3697 42.0844 23.1176 40.5722C22.4556 36.6049 21.7813 32.6398 21.1116 28.6714C20.948 27.7096 20.7844 26.7477 20.5754 25.5184C28.9475 33.9686 37.097 42.194 45.3988 50.5727C43.6374 51.5716 41.8847 52.6522 40.0518 53.5724C38.6654 54.2676 37.1731 54.7562 35.7294 55.3374L30.0859 56.2971C29.8894 56.2548 29.694 56.1744 29.5 56.1771C17.5323 56.3641 8.74453 51.1405 3.12591 40.6064C2.29961 39.0579 1.76088 37.3596 1.08979 35.7292C0.769769 33.8472 0.450163 31.9677 0.13014 30.0857C0.141918 29.5611 0.150825 29.0345 0.165474 28.5119C0.515015 16.5969 6.00802 7.9678 16.702 2.69564C18.0579 2.02832 19.5262 1.59181 20.9434 1.04786C22.742 0.742026 24.5429 0.435772 26.3415 0.129935C26.5331 0.173086 26.7269 0.258784 26.9209 0.256101C38.826 0.0721131 47.5827 5.29097 53.2369 15.7079C54.1306 17.356 54.6751 19.1922 55.3794 20.9432ZM39.6758 35.6535C39.7724 35.4048 39.8327 35.3289 39.8222 35.2675C38.794 29.1763 37.7515 23.09 36.7306 16.9975C36.5319 15.8144 35.8616 15.5396 34.7686 15.7482C33.7758 15.9372 33.0106 16.1734 33.2313 17.4714C33.9748 21.8438 34.6692 26.2246 35.4005 30.5991C35.4535 30.9107 35.5905 31.256 35.7987 31.4857C37.0422 32.8597 38.3187 34.2054 39.6738 35.6563L39.6758 35.6535Z" fill="black"/>
</svg>
