<svg width="83" height="91" viewBox="0 0 83 91" fill="none" xmlns="http://www.w3.org/2000/svg">
<path d="M74.7255 68.179C73.3795 71.4527 70.4614 72.6063 67.4557 73.7925C58.0724 77.4922 48.7347 81.3092 39.3713 85.0637C37.2764 85.9025 35.0827 85.7864 33.3146 84.5067C29.9102 82.042 26.7008 79.3008 23.1917 76.5029C25.0227 75.9377 26.5931 75.3802 28.2061 75.0087C28.6318 74.9104 29.2614 75.2977 29.6754 75.6198C31.4745 77.0216 33.2571 78.4418 34.9817 79.9298C35.9115 80.7337 36.7483 80.8566 37.9163 80.38C47.6758 76.395 57.4489 72.4361 67.2573 68.5688C69.0238 67.8733 69.8093 66.8786 70.0648 64.9919C71.4352 54.8142 72.8976 44.6461 74.4142 34.4858C74.6707 32.7618 74.2688 31.6287 72.861 30.5387C64.479 24.053 56.1485 17.4986 47.8353 10.919C46.8498 10.1418 46.0208 10.0614 44.8901 10.5191C35.0661 14.4949 25.2349 18.449 15.3791 22.3338C13.8178 22.9479 13.0804 23.8007 12.849 25.5179C11.4428 35.9223 9.948 46.3174 8.40622 56.7024C8.18742 58.1862 8.49643 59.1712 9.72892 60.0597C11.852 61.5908 13.8191 63.3418 15.9592 64.8511C16.8987 65.5145 18.058 66.019 19.1892 66.2359C21.8488 66.7471 23.7175 65.3122 24.1202 62.5887C24.9703 56.8298 25.7762 51.0647 26.5987 45.3054C27.3088 40.3325 28.0625 35.3693 28.701 30.3896C28.8844 28.9596 29.4437 28.6036 30.8277 28.8186C34.1135 29.3293 34.1217 29.2716 33.6434 32.6208C32.2154 42.6208 30.8083 52.6203 29.3396 62.6145C29.1334 64.0102 28.7572 65.4092 28.2512 66.724C26.3469 71.6543 20.8836 72.9496 16.3265 70.4898C12.3124 68.322 8.67547 65.3537 5.19251 62.3728C4.03992 61.385 3.87177 59.2441 3.25473 57.6306L8.19223 23.0543C9.1955 21.1394 10.193 19.3137 12.4408 18.4449C23.8826 14.0152 35.3007 9.50949 46.7319 5.03334C46.959 5.06577 47.1827 5.09772 47.4098 5.13015C48.7987 5.98915 50.2767 6.73289 51.5562 7.72845C59.0988 13.5997 66.5689 19.5677 74.1202 25.4263C76.7949 27.5032 79.5572 29.4265 79.7085 33.2599L74.7226 68.1751L74.7255 68.179Z" fill="black"/>
<path d="M48.9565 63.351C44.1231 62.6574 40.3095 61.7738 37.2401 59.0215C34.9034 56.9272 34.0297 54.2774 34.3758 51.1757C34.4919 50.1442 34.9795 49.7815 35.9781 49.9829C36.6473 50.1165 37.3287 50.238 38.0096 50.266C39.0202 50.31 39.442 50.8684 39.4736 51.786C39.5803 55.108 41.5964 56.9767 44.5417 57.5944C47.7455 58.2664 51.0501 58.4754 54.3233 58.7595C55.0613 58.8234 55.8932 58.4717 56.5958 58.1293C58.1338 57.3874 58.757 56.0271 58.8445 54.3723C58.9253 52.8619 57.9451 51.9506 56.7984 51.5032C54.1083 50.455 51.315 49.6687 48.5823 48.725C46.1198 47.8753 43.606 47.1185 41.2495 46.0349C34.9138 43.1205 36.6731 34.7243 40.932 32.2713C43.3479 30.8799 45.9343 30.426 48.6481 30.5334C52.8413 30.6963 56.9101 31.3915 60.5373 33.7012C63.5689 35.6284 64.7211 38.5324 64.8104 41.9765C64.8434 43.1987 64.3257 43.699 63.0148 43.5291C60.2904 43.1815 60.2826 43.2358 59.4442 40.508C58.8896 38.6993 57.7235 37.2011 55.9666 36.7876C52.9515 36.0769 49.8397 35.7294 46.7506 35.392C45.9777 35.3059 45.06 35.7006 44.3439 36.1137C41.7846 37.5884 41.7727 40.6998 44.4623 41.8483C47.3742 43.0874 50.4842 43.8601 53.4886 44.8875C55.5269 45.5832 57.5714 46.2834 59.5492 47.1365C62.8819 48.5775 64.6845 51.142 64.2866 54.8243C63.9251 58.1798 62.3407 60.8694 59.1099 62.3243C55.5313 63.9371 51.8049 63.7993 48.9502 63.3467L48.9565 63.351Z" fill="black"/>
</svg>
