<svg width="74" height="75" viewBox="0 0 74 75" fill="none" xmlns="http://www.w3.org/2000/svg">
<path d="M8.29707 46.721C7.95137 45.4167 7.60567 44.1123 7.25997 42.808C7.14916 41.0309 6.9808 39.258 6.93935 37.4793C6.8247 32.4115 9.27902 29.1255 14.1375 27.821C19.6528 26.3398 25.1763 24.8898 30.6963 23.4268C31.4268 23.2332 32.1572 23.0396 32.9868 22.8198L32.4938 20.9598L18.6519 24.6283C17.9916 22.137 17.2676 19.8161 16.7826 17.4486C16.3783 15.4702 16.9933 13.6823 18.6395 12.414C19.5551 11.7078 20.5335 11.0381 21.5766 10.5494C23.389 9.69776 25.2742 8.99431 27.1291 8.22909C28.4335 7.88339 29.7378 7.53769 31.0422 7.19199C32.4965 6.99082 33.9531 6.80859 35.4052 6.58845C40.5859 5.80449 44.1353 8.12483 45.4792 13.1851C46.5045 17.0538 47.537 20.9179 48.5545 24.7887C49.7922 29.5113 47.6553 33.2047 42.9552 34.4643C38.6562 35.6149 34.349 36.7452 30.0479 37.888C24.6786 39.3194 21.8609 44.1313 23.2567 49.4821C23.764 51.4277 24.2869 53.3691 24.82 55.3804C22.7486 55.9294 20.8301 56.5914 18.8591 56.9184C16.8717 57.2469 14.9741 56.6498 13.5461 55.1911C12.4933 54.116 11.5297 52.9028 10.7521 51.6124C9.81173 50.0552 9.10764 48.3573 8.29967 46.7203L8.29707 46.721ZM23.7397 19.48C25.2119 19.1038 26.1146 17.6221 25.7589 16.1641C25.4039 14.7086 23.9024 13.7943 22.4404 14.1455C20.8759 14.5211 19.9835 16 20.3948 17.5411C20.7908 19.0247 22.2362 19.8645 23.7397 19.48Z" fill="black"/>
<path d="M46.4092 66.2154L43.0179 67.1142C42.5757 67.1421 42.1307 67.1483 41.6922 67.2003C38.9142 67.5373 36.1461 67.6065 33.4277 66.7886C30.7856 65.9951 29.0347 64.382 28.355 61.5858C27.3363 57.3943 26.1472 53.2451 25.0678 49.0668C23.9081 44.5859 26.0686 40.8863 30.5396 39.679C34.7479 38.5441 38.9677 37.4425 43.1801 36.3233C49.0047 34.7768 51.8293 29.896 50.2902 24.036C49.8266 22.2659 49.3533 20.5012 48.87 18.6777C51.0927 18.0886 53.1428 17.2912 55.251 17.0814C56.5597 16.9524 58.1706 17.4049 59.26 18.1548C60.5721 19.0606 61.6327 20.4603 62.5129 21.8324C63.6393 23.5859 64.4745 25.5256 65.4368 27.3868L66.4739 31.2999C66.4586 31.5581 66.4354 31.8183 66.4293 32.0796C66.3687 34.8848 66.5008 37.7115 66.1964 40.4921C65.8819 43.3506 64.0775 45.0964 61.2277 45.8266C54.8277 47.4669 48.4487 49.1967 42.0625 50.8892C41.5981 51.0123 41.1364 51.1347 40.6616 51.2605L41.1594 53.1388L55.0926 49.446C55.5289 51.0921 55.8896 52.6215 56.3401 54.1214C57.2143 57.0195 56.4271 59.4534 54.276 61.4502C53.299 62.3568 52.1989 63.1677 51.0524 63.8457C49.5579 64.7276 47.9608 65.4329 46.4092 66.2154ZM51.3175 59.8946C52.7773 59.5245 53.6778 58.0657 53.345 56.6099C52.9968 55.0857 51.4848 54.163 49.9662 54.5432C48.4874 54.9155 47.6049 56.3472 47.9393 57.8304C48.2807 59.3397 49.81 60.2746 51.3175 59.8946Z" fill="black"/>
</svg>
