<svg width="76" height="72" viewBox="0 0 76 72" fill="none" xmlns="http://www.w3.org/2000/svg">
<path d="M57.4429 14.8232L59.324 15.5506C61.5298 17.0737 62.3404 19.2554 61.8849 21.7543C61.517 23.7751 60.8828 25.7787 60.1031 27.6832C59.4042 29.3857 58.3459 30.9412 57.5245 32.4221C59.3709 34.2807 61.2653 35.9942 62.9249 37.9092C64.8234 40.1015 66.1134 42.616 65.7906 45.6594L65.2496 47.0585C63.4457 49.3469 60.9378 50.4222 58.1522 50.7898C55.6056 51.1264 53.0169 51.1734 50.3264 51.358C50.2864 51.5033 50.2077 51.8187 50.1196 52.1304C49.4274 54.5565 48.9162 57.0527 48.0006 59.3924C46.3978 63.4955 43.8676 65.1037 39.9733 64.8924L38.5625 64.3468C34.7135 61.8935 32.3819 58.2283 30.4319 54.2122C26.0457 55.9229 21.638 57.0811 16.9303 55.9817L16.2249 55.7089C13.8068 54.3503 12.786 52.2509 13.0696 49.5675C13.2037 48.298 13.3843 46.9713 13.8816 45.818C14.9419 43.3627 16.2229 41.0007 17.4253 38.5762C16.1789 37.4027 14.7315 36.197 13.4687 34.8215C11.0314 32.1635 8.98415 29.2865 9.28891 25.4159L9.92009 23.7837C11.2292 22.2716 12.7964 21.0496 14.78 20.715C17.3589 20.2809 19.9825 20.0946 22.5918 19.8545C23.3572 19.7833 24.1408 19.896 24.647 19.9149C25.4744 17.0692 26.0631 14.3377 27.0609 11.7644C28.7463 7.41985 31.0419 5.95684 35.1053 6.18526L36.0458 6.54896C38.4159 7.94794 40.3822 9.78312 41.8864 12.0722C42.9105 13.6316 43.8328 15.2587 44.845 16.926C48.864 15.3119 53.0076 14.1936 57.4462 14.8217L57.4429 14.8232ZM40.9697 26.6959C39.5213 26.1358 38.0891 25.5337 36.616 25.0445C36.2231 24.914 35.5913 24.9752 35.2758 25.2178C32.8004 27.1179 30.355 29.059 27.9567 31.0532C27.6189 31.3327 27.374 31.9939 27.4374 32.4312C27.878 35.5205 28.3844 38.6005 28.9454 41.6721C29.0165 42.0614 29.4471 42.5415 29.8286 42.6944C32.6665 43.8481 35.529 44.9524 38.4039 46.0105C38.7993 46.1553 39.4536 46.1269 39.7616 45.8895C42.2955 43.929 44.7904 41.9158 47.2558 39.8671C47.5381 39.6332 47.7277 39.0659 47.6728 38.6908C47.2177 35.6039 46.7201 32.522 46.1623 29.449C46.0907 29.0541 45.6802 28.571 45.3018 28.4032C43.886 27.7727 42.4181 27.256 40.9729 26.6944L40.9697 26.6959ZM24.5709 22.4881C24.1907 22.451 23.9024 22.4065 23.6128 22.3937C20.3387 22.256 17.0721 22.2527 14.0272 23.6752C11.9067 24.6645 11.3224 25.9449 12.1129 28.1296C13.4255 31.7598 16.1873 34.2216 19.081 36.5522C20.9169 34.6005 22.6526 32.7681 24.3637 30.9156C24.5446 30.7202 24.6888 30.4034 24.686 30.145C24.6674 27.6209 24.616 25.0975 24.5709 22.4881ZM19.7081 40.18C19.1892 40.9765 18.6611 41.7131 18.2085 42.4923C16.8828 44.7672 15.7471 47.1238 15.56 49.8095C15.4021 52.0912 16.2711 53.2689 18.5344 53.6857C22.3611 54.3935 25.8762 53.2439 29.359 51.905C28.7211 49.983 27.9952 48.1906 27.5503 46.3353C27.1852 44.819 26.5677 43.7949 25.0457 43.1313C23.2227 42.3378 21.5435 41.2141 19.7104 40.1809L19.7081 40.18ZM42.3977 17.8935C40.6198 14.5577 38.8231 11.2495 35.4482 9.17785C33.8884 8.22086 32.5721 8.32566 31.3767 9.64855C28.6714 12.6391 28.0368 16.3982 27.4846 20.1678C30.0837 20.7788 32.5188 21.3667 34.9654 21.9107C35.244 21.9729 35.6155 21.8512 35.8789 21.7011C38.0133 20.4733 40.1329 19.2209 42.3954 17.8925L42.3977 17.8935ZM47.7409 50.9425C45.1315 50.3302 42.689 49.7475 40.2377 49.2016C39.952 49.1367 39.5678 49.1865 39.3197 49.3318C37.1658 50.603 35.032 51.9062 32.8054 53.2538C34.2494 56.3344 35.9828 59.275 38.7813 61.4186C41.0023 63.1192 42.6533 62.8409 44.3534 60.5901C46.507 57.74 47.2401 54.3835 47.74 50.9448L47.7409 50.9425ZM55.3379 30.9681C55.8441 30.1694 56.4066 29.3577 56.8891 28.5016C58.0815 26.3895 59.0991 24.2124 59.3868 21.7559C59.7412 18.7354 58.6326 17.3525 55.5704 17.1842C52.1384 16.9936 48.9647 18.0152 45.867 19.2457C46.6254 21.737 47.3601 24.1707 48.1167 26.5969C48.1829 26.8101 48.3505 27.0546 48.541 27.1631C50.7524 28.4203 52.9784 29.6536 55.3379 30.9681ZM50.644 48.6074C54.0162 48.8339 57.3818 48.7978 60.5937 47.5096C63.2811 46.4313 63.9697 44.6926 62.6967 42.1552C61.1294 39.0295 58.6285 36.7249 55.9055 34.6587C54.1223 36.537 52.4025 38.3353 50.7088 40.157C50.5329 40.3463 50.4311 40.6795 50.4344 40.9435C50.4857 43.4668 50.5666 45.9909 50.6417 48.6065L50.644 48.6074ZM36.5275 48.1368L29.8709 45.5627C30.5265 47.446 31.1008 49.0994 31.718 50.8793C33.3822 49.9307 34.8763 49.0797 36.5275 48.1368ZM48.0418 42.6853C46.0757 44.2677 44.3667 45.6466 42.4205 47.2125C44.3942 47.6166 46.1253 47.9697 48.0446 48.3608C48.0436 46.4412 48.0434 44.6801 48.0442 42.6862L48.0418 42.6853ZM43.4636 20.2677C41.8004 21.1926 40.2843 22.0376 38.5998 22.9757L45.2306 25.5398C44.6124 23.6925 44.0671 22.0691 43.4636 20.2677ZM26.098 40.9623C25.6847 38.4384 25.3323 36.2811 24.9389 33.8667C23.6275 35.3565 22.4934 36.6468 21.2225 38.0879C22.8516 39.0476 24.3416 39.9266 26.0989 40.96L26.098 40.9623ZM50.1338 37.2194C51.4572 35.7262 52.5851 34.4522 53.8045 33.0743C52.1388 32.0764 50.6765 31.2027 49.0038 30.202C49.3968 32.6458 49.7374 34.7636 50.1315 37.2185L50.1338 37.2194ZM27.184 22.7695C27.1607 24.6261 27.1405 26.3418 27.1149 28.3234C28.2055 27.4183 29.0242 26.7271 29.8595 26.0557C30.7064 25.3753 31.5724 24.7157 32.6688 23.8585C30.6953 23.4679 29.0365 23.1374 27.184 22.7695Z" fill="black"/>
<path d="M39.3986 30.5427C42.2151 31.605 43.5826 34.5971 42.5184 37.37C41.4606 40.1265 38.3905 41.4883 35.6301 40.4209C32.9331 39.378 31.5612 36.3413 32.5679 33.6401C33.6147 30.8283 36.5868 29.4822 39.3986 30.5427Z" fill="black"/>
</svg>
