<svg width="163" height="50" viewBox="0 0 163 50" fill="none" xmlns="http://www.w3.org/2000/svg">
<g clip-path="url(#clip0_130_684)">
<rect width="112.007" height="29.5113" transform="translate(50.9922 8.80322)" fill="#454545"/>
<path d="M71.2769 34.0722C69.8518 34.0722 68.5726 34.1074 67.2999 34.0371C67.079 34.0235 66.7785 33.607 66.6769 33.2959C66.2239 31.9191 65.8594 30.499 65.3976 29.1303C65.2871 28.803 64.927 28.3891 64.6751 28.3837C62.1056 28.3296 59.5338 28.3512 56.9333 28.3512C56.4362 30.0175 55.9369 31.608 55.4928 33.2202C55.3116 33.8802 55.031 34.1236 54.4588 34.0966C53.3607 34.0425 52.2604 34.0803 50.9922 34.0803C51.138 33.5231 51.2286 33.112 51.3523 32.7143C53.7009 25.1972 56.0716 17.6856 58.396 10.155C58.6854 9.21634 59.0455 8.79707 59.8962 8.88633C61.0605 9.00806 62.5165 8.47789 63.3252 9.15683C64.1338 9.83578 64.3238 11.6535 64.7414 12.9898C66.7719 19.5006 68.7891 26.0196 70.8107 32.5385C70.9499 32.9902 71.0869 33.4447 71.2769 34.0722ZM61.1931 14.9752C61.1069 14.959 61.0185 14.9427 60.9324 14.9265C60.0685 17.8289 59.2024 20.7341 58.3253 23.6798C60.2055 23.6798 61.9332 23.6798 63.7847 23.6798C62.8921 20.6773 62.0415 17.8262 61.1931 14.9752Z" fill="white"/>
<path d="M136.537 33.6028C135.39 33.6028 134.271 33.6028 133.101 33.6028C133.041 33.1277 132.988 32.7077 132.909 32.0856C131.358 34.0306 129.523 34.4375 127.511 33.8521C126.006 33.4138 124.783 32.4111 123.864 30.8756C121.714 27.29 122.021 21.6072 124.52 18.5467C126.756 15.8116 130.164 15.5255 132.89 17.9849C132.89 16.3497 132.89 14.8377 132.89 13.3285C132.89 11.848 132.89 10.3676 132.89 8.80322C134.15 8.80322 135.298 8.80322 136.541 8.80322C136.537 17.0584 136.537 25.261 136.537 33.6028ZM129.61 20.4549C127.613 20.4392 126.211 22.3737 126.211 25.1455C126.211 27.9541 127.564 29.9044 129.54 29.9411C131.473 29.9752 132.911 27.9856 132.954 25.219C132.994 22.4655 131.594 20.4707 129.61 20.4549Z" fill="white"/>
<path d="M95.5254 26.3532C95.7089 28.3454 96.6975 29.6172 98.2256 30.0281C99.8687 30.4677 101.094 29.7577 102.297 27.599C103.305 27.9501 104.343 28.3116 105.462 28.6991C104.665 31.6823 102.949 33.2818 100.506 33.8956C96.7616 34.8371 93.1414 32.4287 91.9981 28.27C90.7176 23.6093 92.3364 18.6938 95.8527 16.9617C98.345 15.7341 100.862 15.9057 103.084 17.8251C105.293 19.7315 105.722 22.5768 105.669 25.5912C105.654 26.4728 105.11 26.348 104.643 26.3506C102.029 26.3558 99.4176 26.3532 96.8036 26.3532C96.4078 26.3532 96.0097 26.3532 95.5254 26.3532ZM95.6293 23.1178C97.6595 23.1178 99.6852 23.1178 101.718 23.1178C101.565 21.162 100.501 20.041 98.8382 19.9786C97.1353 19.9162 95.8571 21.149 95.6293 23.1178Z" fill="white"/>
<path d="M152.266 26.3234C148.94 26.3234 145.658 26.3234 142.384 26.3234C142.267 27.9173 143.128 29.2865 144.535 29.8535C146.368 30.5956 147.777 29.9136 149.059 27.575C150.065 27.9251 151.103 28.2857 152.133 28.6437C151.725 31.2776 149.823 33.2895 147.242 33.9088C143.747 34.745 140.38 32.7643 138.996 29.0591C137.52 25.1057 138.479 20.2038 141.197 17.8155C143.478 15.8114 147.089 15.6259 149.463 17.3949C151.698 19.0541 152.848 22.6025 152.266 26.3234ZM148.48 23.1094C148.349 21.0269 147.082 19.8066 145.251 19.9216C143.625 20.0235 142.384 21.4476 142.464 23.1094C144.468 23.1094 146.472 23.1094 148.48 23.1094Z" fill="white"/>
<path d="M111.4 34.0906C110.024 34.0906 108.764 34.0906 107.438 34.0906C107.438 28.3068 107.438 22.5529 107.438 16.7286C108.707 16.7286 109.927 16.7286 111.183 16.7286C111.224 17.2487 111.258 17.6903 111.301 18.2375C111.445 18.1535 111.583 18.1183 111.671 18.0153C113.352 16.1082 115.338 15.7777 117.439 16.6121C119.446 17.4085 120.503 19.3509 120.589 21.7511C120.736 25.8389 120.63 29.9404 120.63 34.0987C119.324 34.0987 118.065 34.0987 116.671 34.0987C116.671 31.5577 116.671 29.087 116.671 26.6164C116.671 25.6683 116.687 24.7201 116.667 23.772C116.624 21.705 115.731 20.5753 114.145 20.5428C112.564 20.5103 111.452 21.7429 111.418 23.7422C111.366 26.676 111.403 29.6126 111.4 32.5492C111.4 33.0395 111.4 33.5244 111.4 34.0906Z" fill="white"/>
<path d="M70.3945 16.9858C72.9452 16.6127 72.9452 16.6127 73.4828 11.9653C74.6138 11.9653 75.7588 11.9653 77.0457 11.9653C77.0457 13.539 77.0457 15.1284 77.0457 16.8623C78.1 16.8623 79.0146 16.8623 80.0059 16.8623C80.0059 18.2547 80.0059 19.5052 80.0059 20.9054C79.11 20.9054 78.2047 20.9054 77.0969 20.9054C77.0969 22.4213 77.0969 23.7979 77.0969 25.1745C77.0969 25.6132 77.0969 26.0493 77.0969 26.4881C77.0969 29.8376 77.0969 29.8376 80.0804 29.9848C80.0804 31.0172 80.1316 32.0628 80.0478 33.0926C80.0246 33.3895 79.6429 33.8309 79.3683 33.8965C75.924 34.7188 72.8707 33.0506 73.0127 28.5792C73.0918 26.0966 73.0266 23.6114 73.0266 21.021C72.0864 21.021 71.2882 21.021 70.3992 21.021C70.3945 19.6339 70.3945 18.3492 70.3945 16.9858Z" fill="white"/>
<path d="M83.6093 20.9894C82.6603 20.9894 81.8601 20.9894 80.9785 20.9894C80.9785 19.584 80.9785 18.2945 80.9785 17.0129C83.6861 16.3944 83.6861 16.3944 84.0862 11.9653C85.205 11.9653 86.3402 11.9653 87.594 11.9653C87.594 13.4996 87.594 15.0628 87.594 16.805C88.65 16.805 89.5921 16.805 90.5993 16.805C90.5993 18.2419 90.5993 19.4972 90.5993 20.9315C89.6688 20.9315 88.7291 20.9315 87.6963 20.9315C87.6963 23.5473 87.6637 25.9869 87.7126 28.4265C87.7312 29.3976 88.2802 29.9239 89.1641 29.9318C89.62 29.937 90.0759 29.9318 90.6644 29.9318C90.6644 31.0345 90.7156 32.0766 90.6318 33.1082C90.6086 33.403 90.2318 33.8398 89.9596 33.903C86.7542 34.653 83.514 33.3267 83.6 28.5581C83.6466 26.108 83.6093 23.6552 83.6093 20.9894Z" fill="white"/>
<path d="M154.18 34.0987C154.18 28.1937 154.18 22.3081 154.18 16.3561C155.44 16.3561 156.639 16.3561 157.919 16.3561C157.954 17.0236 157.988 17.6523 158.029 18.4694C159.353 16.5306 160.997 15.9462 162.999 16.2619C162.999 17.8406 162.999 19.3806 162.999 21.0618C162.51 21.0618 161.998 21.0202 161.491 21.0701C159.514 21.2584 158.327 22.5879 158.199 25.0003C158.074 27.3462 158.12 29.706 158.095 32.0574C158.088 32.7 158.095 33.3453 158.095 34.0987C156.762 34.0987 155.501 34.0987 154.18 34.0987Z" fill="white"/>
</g>
<path d="M26.5972 31.4409C25.7089 31.4409 24.9115 31.4628 24.1182 31.419C23.9805 31.4106 23.7932 31.1517 23.7299 30.9583C23.4475 30.1024 23.2203 29.2195 22.9325 28.3686C22.8636 28.1652 22.6391 27.9079 22.4821 27.9045C20.8804 27.8709 19.2774 27.8843 17.6564 27.8843C17.3465 28.9202 17.0353 29.909 16.7585 30.9112C16.6456 31.3215 16.4706 31.4729 16.114 31.456C15.4295 31.4224 14.7436 31.446 13.9531 31.446C14.044 31.0995 14.1005 30.8439 14.1776 30.5967C15.6416 25.9236 17.1193 21.2538 18.5681 16.5723C18.7485 15.9888 18.973 15.7281 19.5032 15.7836C20.229 15.8593 21.1366 15.5297 21.6407 15.9518C22.1447 16.3738 22.2632 17.5039 22.5234 18.3346C23.7891 22.3822 25.0465 26.4348 26.3066 30.4874C26.3934 30.7683 26.4788 31.0508 26.5972 31.4409ZM20.3117 19.5689C20.2579 19.5588 20.2029 19.5487 20.1492 19.5386C19.6107 21.3429 19.0708 23.149 18.5241 24.9802C19.6961 24.9802 20.773 24.9802 21.9271 24.9802C21.3707 23.1137 20.8405 21.3413 20.3117 19.5689Z" fill="#454545"/>
<path d="M25.0293 8.67893C25.1491 5.10555 29.1375 4.9727 29.6388 8.26021C30.0809 12.4104 25.094 12.6088 25.0293 8.67893Z" fill="#454545"/>
<path d="M35.1351 14.7846C34.9244 18.5648 30.56 18.1965 30.498 14.6215C30.6427 10.8782 35.1819 11.0447 35.1351 14.7846Z" fill="#454545"/>
<path fill-rule="evenodd" clip-rule="evenodd" d="M19.539 5.49917C19.7969 6.52359 19.3117 7.60418 18.4553 7.91271C14.1023 9.48085 11.5109 12.0039 9.93407 14.4751C8.34281 16.9691 7.71598 19.5202 7.4459 21.2366C7.28045 22.288 6.43373 22.98 5.55469 22.7821C4.67565 22.5842 4.09717 21.5714 4.26261 20.52C4.59208 18.4262 5.36628 15.2479 7.35911 12.1246C9.36641 8.97865 12.5422 5.99655 17.5211 4.20293C18.3776 3.89439 19.281 4.47474 19.539 5.49917Z" fill="#454545"/>
<path fill-rule="evenodd" clip-rule="evenodd" d="M5.79182 24.3684C6.67394 24.1912 7.50915 24.9029 7.65731 25.958C8.91075 34.8837 14.4416 37.9514 17.1888 38.5953C18.0666 38.8011 18.6387 39.819 18.4667 40.8689C18.2947 41.9188 17.4436 42.6032 16.5659 42.3974C12.9512 41.5501 6.00799 37.6025 4.46289 26.5997C4.31472 25.5446 4.9097 24.5456 5.79182 24.3684Z" fill="#454545"/>
<path fill-rule="evenodd" clip-rule="evenodd" d="M19.9984 41.3984C19.8245 40.3489 20.3948 39.3295 21.2722 39.1215C25.2119 38.1874 27.8622 36.601 29.6944 34.4229C31.5248 32.2468 32.6906 29.2998 33.3806 25.2996C33.5613 24.2518 34.418 23.5777 35.294 23.7939C36.17 24.01 36.7337 25.0347 36.5529 26.0825C35.7815 30.5548 34.4004 34.2908 31.9779 37.1708C29.5571 40.0487 26.2484 41.8914 21.902 42.9219C21.0246 43.13 20.1724 42.4478 19.9984 41.3984Z" fill="#454545"/>
<defs>
<clipPath id="clip0_130_684">
<rect width="112.007" height="29.5113" fill="white" transform="translate(50.9922 8.80322)"/>
</clipPath>
</defs>
</svg>
