<svg width="131" height="50" viewBox="0 0 131 50" fill="none" xmlns="http://www.w3.org/2000/svg">
<path d="M127.069 16.2977C127.069 18.5913 126.542 20.6664 125.487 22.5231C124.433 24.3797 122.898 25.7449 120.882 26.6187L127.999 42.3458H116.463L110.788 28.6392H106.974V42.3458H96.6934V4.77539H116.277C118.572 4.77539 120.526 5.30327 122.138 6.35903C123.782 7.37838 125.007 8.77999 125.813 10.5639C126.65 12.3113 127.069 14.2226 127.069 16.2977ZM116.603 16.7892C116.603 15.8062 116.324 14.9871 115.765 14.3318C115.207 13.6765 114.525 13.3489 113.719 13.3489H106.974V20.2841H113.719C114.525 20.2841 115.207 19.9565 115.765 19.3012C116.324 18.6095 116.603 17.7721 116.603 16.7892Z" fill="#454545"/>
<path d="M77.2188 42.3458V4.77539H87.499V42.3458H77.2188Z" fill="#454545"/>
<path d="M54.7644 4.11914C58.8579 4.11914 62.2226 5.10209 64.8586 7.06798C67.4946 8.99747 68.8436 11.8735 68.9056 15.6961V16.3514H59.2765V16.1329C59.2765 15.0408 58.9354 14.1306 58.2532 13.4025C57.5709 12.6744 56.532 12.3104 55.1365 12.3104C53.772 12.3104 52.7176 12.547 51.9733 13.0203C51.2601 13.4935 50.9035 14.076 50.9035 14.7677C50.9035 15.7507 51.3996 16.4788 52.392 16.9521C53.3844 17.4253 54.9815 17.9168 57.1833 18.4265C59.7572 19.0454 61.866 19.7007 63.5096 20.3924C65.1842 21.0477 66.6417 22.1398 67.8822 23.6689C69.1227 25.1979 69.7584 27.273 69.7894 29.8942C69.7894 34.3357 68.5024 37.6304 65.9285 39.7783C63.3855 41.9262 59.9743 43.0002 55.6947 43.0002C50.7019 43.0002 46.81 42.0172 44.0189 40.0513C41.2589 38.0854 39.8789 34.6087 39.8789 29.6212H49.601C49.601 31.5142 50.0196 32.7884 50.8569 33.4437C51.6942 34.0626 52.9967 34.3721 54.7644 34.3721C56.0669 34.3721 57.1367 34.2083 57.9741 33.8806C58.8424 33.553 59.2765 32.8795 59.2765 31.8601C59.2765 30.95 58.7959 30.2765 57.8345 29.8396C56.9042 29.3663 55.3691 28.8749 53.2293 28.3652C50.6244 27.7099 48.4691 27.0364 46.7634 26.3447C45.0578 25.6166 43.5693 24.4334 42.2978 22.7951C41.0263 21.1569 40.3906 18.9362 40.3906 16.1329C40.3906 12.0191 41.7396 8.99747 44.4376 7.06798C47.1666 5.10209 50.6088 4.11914 54.7644 4.11914Z" fill="#454545"/>
<path d="M17.118 4.77539C28.3131 4.77539 33.9106 11.0371 33.9106 23.5606C33.9106 36.0841 28.3131 42.3458 17.118 42.3458H3.25586V4.77539H17.118ZM13.5361 33.3355H16.9319C21.2425 33.3355 23.3978 30.6233 23.3978 25.1989V21.9224C23.3978 16.4979 21.2425 13.7857 16.9319 13.7857H13.5361V33.3355Z" fill="#454545"/>
</svg>
