<svg width="46" height="50" viewBox="0 0 46 50" fill="none" xmlns="http://www.w3.org/2000/svg">
<path fill-rule="evenodd" clip-rule="evenodd" d="M8.86892 11.4425L4.52123 32.5153C3.25579 38.6487 9.20991 43.7921 15.0943 41.6486L38.8075 33.0108C45.0265 30.7455 45.9613 22.3385 40.3919 18.7623L21.0264 6.32736C16.3018 3.29355 10.0035 5.94352 8.86892 11.4425ZM24.5582 11.8376C23.1367 12.4135 15.1123 15.2239 11.2778 16.5571C11.5855 17.1842 13.7507 21.6178 14.7948 23.7562C15.3956 23.5643 17.0235 22.919 17.7623 22.6204C17.5425 22.134 16.2663 19.3887 15.6557 18.0769C16.579 17.7313 22.7936 15.4585 25.7854 14.3653C25.507 13.7894 24.8512 12.4402 24.5582 11.8376ZM25.4008 20.6686C24.5362 21.0014 18.092 23.239 14.978 24.3162C15.315 24.7641 15.9855 26.2733 16.2785 26.9719C17.0113 26.7287 23.4713 24.4815 26.6097 23.3883C26.9468 24.1946 28.2889 26.8172 28.9178 28.0278C29.4014 27.8358 31.0365 27.2438 31.7937 26.9719C31.3394 26.1784 27.7699 18.6208 26.0419 14.9412C25.573 15.0564 23.9537 15.6718 23.2026 15.9651C23.3638 16.3235 24.7352 19.2501 25.4008 20.6686ZM16.5533 27.5798C17.6096 29.7876 19.7736 34.3086 19.9787 34.731C24.0392 33.2912 32.3578 30.3379 33.1492 30.0435C32.8439 29.4162 32.182 28.0451 31.9768 27.5798C28.7468 28.737 22.1805 31.0866 21.7555 31.2274C21.4615 30.5878 21.0291 29.6413 20.6272 28.7616L20.6259 28.7589L20.6256 28.7583C20.1267 27.6663 19.6752 26.678 19.5941 26.5079C18.8997 26.7449 17.6512 27.1893 16.9832 27.4272L16.983 27.4272L16.9827 27.4273L16.9807 27.428C16.763 27.5055 16.6074 27.5609 16.5533 27.5798Z" fill="#454545"/>
</svg>
