<svg width="155" height="50" viewBox="0 0 155 50" fill="none" xmlns="http://www.w3.org/2000/svg">
<path d="M121.849 25.4981H117.545V5.45259C118.557 5.45259 119.551 5.52319 120.532 5.43209C121.504 5.34328 122.09 5.70538 122.69 6.4888C125.447 10.0848 128.283 13.6193 131.089 17.1743C131.183 17.2927 131.288 17.4043 131.453 17.5956V5.48675H135.813V25.4845C135.679 25.4981 135.561 25.5232 135.445 25.5232C134.406 25.5255 133.368 25.5369 132.331 25.5141C132.15 25.5095 131.916 25.3979 131.8 25.2545C128.628 21.2782 125.467 17.2927 122.306 13.3073C122.188 13.157 122.061 13.0135 121.847 12.7562V25.4981H121.849Z" fill="#454545"/>
<path d="M68.982 25.4977H64.6641V5.45211C65.6427 5.45211 66.6079 5.53182 67.5553 5.43161C68.5963 5.3223 69.2294 5.71173 69.8714 6.54981C72.6155 10.1344 75.4421 13.6553 78.2397 17.1989C78.3311 17.315 78.4381 17.4198 78.6298 17.6316V5.47716H82.9276V25.4931C82.7426 25.5045 82.5509 25.525 82.3592 25.525C81.4118 25.5273 80.4644 25.5432 79.5192 25.5136C79.3119 25.5068 79.0444 25.3861 78.9151 25.2244C75.7408 21.2503 72.5821 17.2649 69.4189 13.2795C69.3052 13.136 69.1803 13.0016 68.982 12.7694V25.4977Z" fill="#454545"/>
<path d="M104.896 13.7161C104.896 14.3811 104.896 15.0188 104.896 15.6565C104.896 18.1365 104.887 20.6189 104.904 23.0989C104.907 23.4497 104.789 23.6182 104.499 23.7753C102.218 25.0165 99.8108 25.7726 97.2093 25.7976C93.4131 25.8364 90.2165 24.577 88.101 21.1973C85.2833 16.6972 86.117 9.43463 91.6788 6.45809C93.6627 5.39683 95.7849 5.07344 98.0096 5.22374C100.344 5.38088 102.339 6.29412 104.068 7.86779C104.135 7.92928 104.229 7.96116 104.345 8.02948C103.297 9.16135 102.325 10.2112 101.327 11.2907C101.093 11.0812 100.87 10.9013 100.667 10.6986C98.2169 8.24811 92.7087 8.91539 91.4358 13.5499C90.7671 15.9889 91.1683 18.2549 92.9895 20.111C93.9459 21.0857 95.1362 21.5685 96.4804 21.6391C97.7733 21.7052 99.035 21.5572 100.239 21.0242C100.509 20.9058 100.642 20.7715 100.636 20.4458C100.613 19.4825 100.627 18.5168 100.627 17.5125H97.1291V13.7161H104.898H104.896Z" fill="#454545"/>
<path d="M140.277 25.4792V5.48145H154.323V9.55113H144.731V13.2063H153.26V17.2214H144.729V21.3776H154.569V25.4792H140.277Z" fill="#454545"/>
<path d="M51.1392 13.2044H59.6702V17.2217H51.1213V21.3574H60.9653V25.4977H46.7031V5.47949H60.7112V9.55829H51.1392V13.2044Z" fill="#454545"/>
<path d="M69.192 44.2681H65.8906V29.0324C66.9517 29.0324 68.0016 29.021 69.0494 29.046C69.192 29.0506 69.357 29.2214 69.464 29.3558C71.6998 32.1797 73.929 35.0105 76.1626 37.839C76.2473 37.9461 76.3387 38.0485 76.5037 38.2467V29.0597H79.8207V44.2931C79.094 44.2931 78.365 44.2635 77.6428 44.3022C77.1435 44.3296 76.8158 44.1815 76.4881 43.7648C74.1541 40.7791 71.7868 37.8208 69.4305 34.8556C69.3837 34.7964 69.3325 34.7418 69.192 34.5824V44.2681Z" fill="#454545"/>
<path d="M96.5168 29.0295C94.4526 31.2226 92.4776 33.3201 90.478 35.4449C92.569 38.3713 94.651 41.2818 96.7709 44.2492C96.5948 44.2675 96.4834 44.2902 96.3719 44.2902C95.3643 44.2925 94.3568 44.2675 93.3492 44.3016C92.9078 44.3176 92.6381 44.1809 92.3795 43.8051C91.0933 41.9309 89.7736 40.0793 88.4651 38.2187C88.3937 38.1185 88.318 38.0229 88.2043 37.8726C87.676 38.4396 87.1543 38.9794 86.6639 39.5442C86.5703 39.6512 86.5703 39.863 86.5681 40.027C86.5614 41.259 86.5636 42.4911 86.5636 43.7232V44.2606H83.2109V29.0545H86.5413V35.4995C86.7018 35.3606 86.7954 35.2991 86.869 35.2171C88.63 33.2517 90.3866 31.2795 92.1521 29.3187C92.2658 29.1934 92.4397 29.0454 92.589 29.0409C93.853 29.0181 95.1169 29.0272 96.5146 29.0272L96.5168 29.0295Z" fill="#454545"/>
<path d="M108.648 25.4886V5.48633H113.018V25.4886H108.648Z" fill="#454545"/>
<path d="M49.9898 41.0614H56.7441V44.2566H46.7129V29.0596H49.9875V41.0614H49.9898Z" fill="#454545"/>
<path d="M62.4582 44.2671H59.1523V29.061H62.4582V44.2671Z" fill="#454545"/>
<path d="M4.25391 23.3271C4.39657 22.719 4.58159 22.1338 5.07647 21.7102C5.52899 21.323 6.05507 21.1431 6.63465 21.1317C7.35022 21.1203 8.06355 21.1294 8.80363 21.1294C8.82592 21.5758 8.84822 22.0381 8.87497 22.5801C8.68549 22.6029 8.46926 22.6484 8.25303 22.6553C7.74924 22.6667 7.24545 22.6553 6.74165 22.6598C6.11303 22.6689 5.80095 22.9468 5.77866 23.589C5.75191 24.336 5.75191 25.0875 5.7742 25.8345C5.79649 26.5496 6.09074 26.8411 6.79961 26.8684C7.34799 26.8912 7.89859 26.8707 8.44919 26.8753C9.4969 26.8798 10.2771 27.3604 10.7029 28.3328C11.2111 29.4965 11.6837 30.6762 12.1318 31.8673C12.5754 33.0493 12.1719 34.0263 11.3204 34.8575C10.9904 35.1809 10.6472 35.4929 10.344 35.8413C9.91376 36.3355 9.93382 36.7113 10.3886 37.1918C10.8879 37.7179 11.3939 38.2372 11.9089 38.7473C12.4015 39.2346 12.8473 39.2255 13.3422 38.7291C13.7234 38.3465 14.089 37.9479 14.4769 37.5744C15.1545 36.9254 15.9414 36.6612 16.949 36.914C16.5366 37.4742 16.5143 38.1893 15.7787 38.5173C15.3329 38.7154 15.0074 39.2073 14.6396 39.5808C13.2486 40.9951 11.9847 41.0019 10.607 39.5945C10.1969 39.1754 9.78446 38.7587 9.37653 38.3374C8.26417 37.1804 8.26417 35.8095 9.37653 34.6617C9.73096 34.295 10.0854 33.9283 10.4465 33.5708C10.8166 33.2019 10.899 32.7828 10.7007 32.2955C10.2727 31.2479 9.84688 30.2003 9.43449 29.1458C9.22717 28.6152 8.86605 28.3738 8.30653 28.3829C7.65115 28.392 6.98686 28.4307 6.3404 28.3419C5.21468 28.1893 4.57714 27.5243 4.34307 26.4016C4.32524 26.3128 4.28734 26.2285 4.26059 26.1397C4.26059 25.2037 4.26059 24.2677 4.26059 23.3294L4.25391 23.3271Z" fill="#454545"/>
<path d="M17.0801 38.6007C17.8536 37.0726 18.6137 35.5695 19.3783 34.0687C20.3235 32.2058 21.2709 30.3429 22.2183 28.48C22.5438 27.8401 22.5549 27.831 23.2259 28.0018C24.3672 28.2955 25.406 28.1361 26.2798 27.2844C26.6164 26.9564 26.7725 27.2001 26.9486 27.4529C28.6918 29.9307 28.6205 33.652 26.7859 36.2596C24.3137 39.7736 19.9067 40.1881 17.0801 38.6007Z" fill="#454545"/>
<path d="M37.606 31.9355C34.0817 30.0658 30.5864 28.2097 27.0621 26.3377C27.7308 24.7891 27.4589 23.4295 26.3398 22.2453C27.9716 20.519 32.0487 19.6878 35.1651 21.8786C38.7608 24.4065 39.1731 29.0455 37.6038 31.9333L37.606 31.9355Z" fill="#454545"/>
<path d="M21.8767 27.3361C19.389 29.6317 15.051 29.5338 12.405 27.2291C9.20836 24.4461 9.2039 19.9642 10.5882 17.6641C11.4598 18.1218 12.3381 18.5818 13.2119 19.0442C15.6975 20.3628 18.1785 21.6905 20.6707 23C20.9784 23.1617 21.0943 23.296 20.9694 23.6764C20.5526 24.9335 20.8179 26.0653 21.6716 27.0606C21.7407 27.1403 21.7987 27.2314 21.8789 27.3384L21.8767 27.3361Z" fill="#454545"/>
<path d="M31.0707 10.9313C29.2562 14.5045 27.4394 18.0778 25.5937 21.7079C24.0979 21.0657 22.7649 21.3413 21.6235 22.4982C19.7711 20.5897 19.0778 16.2376 21.5299 13.0379C24.0043 9.8063 28.3779 9.3736 31.0685 10.9336L31.0707 10.9313Z" fill="#454545"/>
<path d="M12.1855 17.4743C11.7575 17.2511 11.3785 17.0575 11.004 16.8548C10.9393 16.8207 10.8502 16.766 10.8368 16.7068C10.6607 15.887 9.96966 15.4861 9.45918 14.9464C8.26212 13.6802 8.20416 12.4732 9.36779 11.1705C9.86043 10.6194 10.391 10.0978 10.9327 9.59454C12.0071 8.59704 13.3312 8.62665 14.3723 9.65375C14.7468 10.0227 15.1123 10.3985 15.4735 10.7788C15.8346 11.1614 16.2448 11.2479 16.7218 11.0452C17.7472 10.6103 18.7726 10.1753 19.8025 9.7494C20.3174 9.5376 20.5627 9.15956 20.556 8.59476C20.5515 7.9867 20.5448 7.37636 20.5693 6.77058C20.6228 5.4998 21.568 4.52735 22.8052 4.51141C23.7949 4.49775 24.7936 4.47497 25.7744 4.59112C26.8913 4.72321 27.5979 5.63188 27.6246 6.7888C27.6425 7.54944 27.6291 8.31009 27.6291 9.12084C27.2123 9.15272 26.7486 9.18688 26.2314 9.2256C26.2069 9.03886 26.1645 8.86122 26.1623 8.68358C26.1534 8.1074 26.1668 7.52895 26.1556 6.95277C26.1467 6.39481 25.9193 6.08508 25.3732 6.05092C24.5217 5.99854 23.6657 5.99399 22.8119 6.03043C22.3148 6.0532 22.0584 6.40164 22.0384 6.96188C22.0183 7.53806 22.0339 8.11651 22.0294 8.69269C22.0228 9.82 21.5145 10.6376 20.5136 11.0885C19.4146 11.5827 18.3023 12.0564 17.1788 12.4868C16.1823 12.8694 15.2572 12.6872 14.4726 11.922C14.0646 11.5235 13.6835 11.0953 13.2688 10.7036C12.8141 10.2732 12.3772 10.28 11.938 10.715C11.4008 11.2456 10.8725 11.7877 10.3509 12.3365C9.90948 12.8011 9.9117 13.1974 10.3575 13.6802C10.7253 14.0764 11.1177 14.4476 11.4877 14.8416C12.1721 15.5636 12.4641 16.4016 12.1832 17.472L12.1855 17.4743Z" fill="#454545"/>
<path d="M31.2413 12.5827C31.4799 12.109 31.6849 11.6968 31.8945 11.2846C31.9145 11.2458 31.9435 11.1866 31.977 11.1798C32.7951 11.0227 33.145 10.2688 33.6867 9.7701C34.3265 9.18026 35.0153 8.71795 35.8981 8.9138C36.3684 9.01856 36.8611 9.2463 37.2311 9.5583C37.8642 10.0912 38.4326 10.7107 38.9877 11.3324C39.9373 12.3936 39.8883 13.735 38.8985 14.7599C38.524 15.1493 38.1473 15.5364 37.7639 15.9168C37.3938 16.288 37.318 16.7138 37.5142 17.1967C37.9422 18.2602 38.3747 19.3237 38.7982 20.3873C38.9944 20.8769 39.331 21.1069 39.8593 21.0955C40.4835 21.0819 41.1121 21.0819 41.734 21.1365C42.9467 21.2436 43.7692 21.9906 43.8874 23.2272C43.9832 24.2315 43.9855 25.2586 43.8941 26.2629C43.7804 27.52 42.7996 28.3399 41.5468 28.365C40.8446 28.3786 40.1446 28.3672 39.3956 28.3672C39.3577 27.9095 39.3198 27.4358 39.2753 26.8938C39.5851 26.8755 39.8927 26.8505 40.2026 26.8414C40.644 26.8323 41.0876 26.8528 41.5267 26.83C42.1107 26.7981 42.4273 26.4884 42.4474 25.8849C42.4719 25.1379 42.4741 24.3864 42.4474 23.6394C42.4228 22.9653 42.1509 22.6965 41.4799 22.6556C40.9181 22.6214 40.3519 22.6237 39.788 22.6191C38.66 22.6077 37.8731 22.068 37.434 21.0158C36.9814 19.9295 36.5401 18.8364 36.1188 17.7364C35.7064 16.6615 35.8825 15.6913 36.6872 14.8601C37.0639 14.4729 37.4496 14.0926 37.8174 13.6986C38.281 13.2044 38.2944 12.7967 37.8441 12.3139C37.3381 11.7719 36.8209 11.2413 36.2882 10.7266C35.8044 10.2597 35.3608 10.2688 34.8793 10.7334C34.4692 11.1297 34.0835 11.5533 33.6778 11.9541C33.0091 12.6146 32.211 12.7785 31.2324 12.5781L31.2413 12.5827Z" fill="#454545"/>
<path d="M20.5701 40.4077C21.0494 40.3781 21.5019 40.3507 22.0124 40.3189C22.0235 40.4919 22.0413 40.6719 22.0436 40.8518C22.048 41.3983 22.0347 41.9449 22.048 42.4892C22.0636 43.1383 22.3846 43.4639 23.0155 43.4708C23.7333 43.4799 24.4511 43.4799 25.1689 43.4708C25.8554 43.4594 26.1385 43.1724 26.1631 42.4756C26.192 41.7286 26.1631 40.977 26.2478 40.2369C26.3392 39.4239 26.8028 38.8158 27.534 38.4856C28.7311 37.9458 29.9326 37.4106 31.1609 36.9529C32.1105 36.5976 32.9955 36.8276 33.7289 37.561C34.11 37.9436 34.4779 38.3398 34.8635 38.7179C35.3718 39.2189 35.8376 39.2189 36.337 38.7179C36.8385 38.2168 37.3356 37.709 37.8261 37.1966C38.3053 36.6955 38.3053 36.2765 37.8328 35.7778C37.4493 35.3747 37.0459 34.9921 36.6714 34.5821C36.0405 33.8966 35.7418 33.1064 36.016 32.1157C36.4395 32.3389 36.843 32.5507 37.2443 32.7648C37.2955 32.7921 37.3468 32.8331 37.3847 32.8786C37.8617 33.4548 38.3098 34.0583 38.818 34.6026C39.9549 35.8188 39.9727 37.1533 38.818 38.3466C38.3343 38.8454 37.855 39.3487 37.3602 39.8338C36.2746 40.9019 34.888 40.8882 33.8203 39.8087C33.4614 39.4466 33.1025 39.0845 32.7525 38.7156C32.3958 38.3398 31.9968 38.2259 31.5108 38.4355C30.4587 38.8864 29.4043 39.3305 28.3477 39.7723C27.8795 39.9659 27.67 40.3166 27.6678 40.8244C27.6633 41.4781 27.6678 42.1339 27.6254 42.7876C27.5496 44.006 26.7159 44.8873 25.5144 44.9579C24.5714 45.0126 23.6218 45.0194 22.6811 44.9602C21.4528 44.8828 20.5879 43.8898 20.5723 42.6304C20.5634 41.8994 20.5723 41.1683 20.5723 40.4077H20.5701Z" fill="#454545"/>
<path d="M24.1072 22.2984C25.3846 22.3029 26.5036 23.4416 26.5125 24.7443C26.5237 26.056 25.3756 27.2448 24.0983 27.2471C22.8277 27.2494 21.6797 26.0925 21.6797 24.8103C21.6797 23.4302 22.7787 22.2938 24.1072 22.2984ZM24.0939 23.8083C23.6035 23.8219 23.142 24.2911 23.1532 24.7648C23.1643 25.3136 23.6035 25.7372 24.1318 25.7144C24.6512 25.6894 25.0702 25.2498 25.048 24.7511C25.0257 24.2432 24.5731 23.7969 24.0961 23.8083H24.0939Z" fill="#454545"/>
</svg>
