<svg width="157" height="50" viewBox="0 0 157 50" fill="none" xmlns="http://www.w3.org/2000/svg">
<path d="M141.924 36.0246V18.2222H145.429L145.739 21.2371C146.214 20.1843 146.897 19.3468 147.786 18.7247C148.696 18.1026 149.761 17.7915 150.981 17.7915C152.883 17.7915 154.362 18.4854 155.416 19.8732C156.471 21.261 156.998 23.2949 156.998 25.9748V36.0246H153.028V26.4055C153.028 24.8742 152.759 23.7017 152.221 22.8881C151.684 22.0746 150.846 21.6678 149.709 21.6678C148.592 21.6678 147.672 22.1225 146.949 23.0317C146.246 23.941 145.894 25.2091 145.894 26.8362V36.0246H141.924Z" fill="#454545"/>
<path d="M127.517 36.4544C125.47 36.4544 123.681 35.9161 122.151 34.8393C120.621 33.7625 119.432 32.2671 118.584 30.3528C117.736 28.4147 117.312 26.1654 117.312 23.6052C117.312 21.0209 117.747 18.7478 118.615 16.7857C119.504 14.7997 120.755 13.2563 122.368 12.1557C124.002 11.0311 125.935 10.4688 128.168 10.4688C130.712 10.4688 132.821 11.1746 134.496 12.5864C136.171 13.9981 137.256 15.9482 137.753 18.4367H133.317C132.986 17.2643 132.387 16.355 131.518 15.709C130.65 15.039 129.533 14.704 128.168 14.704C125.997 14.704 124.322 15.5056 123.144 17.1087C121.965 18.688 121.376 20.8654 121.376 23.641C121.376 26.4167 121.955 28.5702 123.113 30.1016C124.291 31.609 125.884 32.3628 127.889 32.3628C129.854 32.3628 131.332 31.7526 132.325 30.5323C133.338 29.288 133.948 27.6609 134.155 25.651H128.665V22.2054H138.156V36.0237H134.496L134.186 32.7217C133.483 33.9181 132.604 34.8393 131.549 35.4854C130.495 36.1314 129.151 36.4544 127.517 36.4544Z" fill="#454545"/>
<path d="M99.0898 36.0235L104.673 27.1224L99.0898 18.2212H103.339L107.247 24.5382L111.124 18.2212H115.405L109.791 27.1224L115.405 36.0235H111.124L107.247 29.7066L103.339 36.0235H99.0898Z" fill="#454545"/>
<path d="M90.5456 36.4553C88.9947 36.4553 87.6196 36.0724 86.4203 35.3067C85.221 34.541 84.2801 33.4643 83.5978 32.0765C82.9154 30.6886 82.5742 29.0855 82.5742 27.2669C82.5742 25.4245 82.9051 23.7854 83.5668 22.3498C84.2491 20.9141 85.1796 19.8014 86.3583 19.0118C87.5576 18.1983 88.9637 17.7915 90.5766 17.7915C92.0861 17.7915 93.4198 18.1744 94.5778 18.94C95.7357 19.7057 96.6352 20.7586 97.2762 22.0985C97.9379 23.4146 98.2688 24.8861 98.2688 26.5132C98.2688 26.7764 98.2584 27.0516 98.2377 27.3387C98.2377 27.6259 98.2274 27.925 98.2067 28.236H86.5134C86.5961 29.6238 87.0096 30.7126 87.754 31.5022C88.5191 32.2918 89.4393 32.6866 90.5145 32.6866C91.321 32.6866 91.993 32.4832 92.5306 32.0765C93.0889 31.6457 93.5025 31.0954 93.7713 30.4254H97.8035C97.514 31.55 97.0281 32.5789 96.3457 33.5121C95.684 34.4214 94.8569 35.1392 93.8644 35.6656C92.8925 36.192 91.7862 36.4553 90.5456 36.4553ZM90.5766 21.5243C89.6047 21.5243 88.7466 21.8473 88.0022 22.4933C87.2578 23.1155 86.7822 24.0726 86.5754 25.3647H94.2366C94.1745 24.1922 93.8023 23.259 93.12 22.5651C92.4376 21.8712 91.5898 21.5243 90.5766 21.5243Z" fill="#454545"/>
<path d="M61.2637 36.0242V10.8999H65.2338V21.3444H74.9731V10.8999H78.9433V36.0242H74.9731V25.0772H65.2338V36.0242H61.2637Z" fill="#454545"/>
<path d="M20.7715 12.91L25.1508 4.2041H35.0042L39.4565 12.91H20.7715Z" fill="#454545"/>
<path d="M9.67773 33.8724L14.276 43.001H23.9105L28.3628 33.8724H9.67773Z" fill="#454545"/>
<path d="M23.8378 4.12012H14.9332L10.043 13.6713L14.6412 22.4617L23.8378 4.12012Z" fill="#454545"/>
<path d="M25.153 42.915H34.2035L39.0938 33.3639L34.4955 24.5734L25.153 42.915Z" fill="#454545"/>
<path d="M30.4799 14.0947H39.7494L44.3477 23.1388L39.7494 31.9292L30.4799 14.0947Z" fill="#454545"/>
<path d="M18.6556 32.7749H9.60506L4.71484 23.2237L9.31311 14.4333L18.6556 32.7749Z" fill="#454545"/>
</svg>
