<svg width="267" height="50" viewBox="0 0 267 50" fill="none" xmlns="http://www.w3.org/2000/svg">
<g clip-path="url(#clip0_130_728)">
<path d="M258.11 39.1763C256.22 39.1763 254.56 38.8794 253.128 38.2855C251.697 37.6634 250.551 36.8151 249.693 35.7406C248.834 34.6661 248.318 33.4219 248.146 32.008H253.687C253.858 32.8281 254.316 33.535 255.061 34.1288C255.834 34.6943 256.822 34.9771 258.024 34.9771C259.227 34.9771 260.1 34.7368 260.644 34.256C261.216 33.7753 261.503 33.2239 261.503 32.6018C261.503 31.697 261.102 31.089 260.3 30.778C259.499 30.4386 258.382 30.1135 256.95 29.8024C256.034 29.6045 255.104 29.3641 254.159 29.0813C253.214 28.7986 252.341 28.4451 251.539 28.0209C250.766 27.5685 250.136 27.003 249.65 26.3243C249.163 25.6174 248.92 24.7549 248.92 23.737C248.92 21.8707 249.664 20.3013 251.153 19.0288C252.67 17.7564 254.789 17.1201 257.509 17.1201C260.028 17.1201 262.032 17.6998 263.521 18.8592C265.039 20.0185 265.94 21.6162 266.227 23.6521H261.03C260.715 22.0969 259.527 21.3193 257.466 21.3193C256.435 21.3193 255.633 21.5172 255.061 21.9131C254.517 22.309 254.245 22.8038 254.245 23.3976C254.245 24.0197 254.66 24.5146 255.49 24.8822C256.321 25.2498 257.423 25.5891 258.797 25.9002C260.286 26.2395 261.646 26.6212 262.877 27.0454C264.137 27.4413 265.139 28.0492 265.883 28.8693C266.628 29.661 267 30.8062 267 32.3049C267.028 33.6057 266.685 34.7792 265.969 35.8254C265.253 36.8717 264.223 37.6917 262.877 38.2855C261.531 38.8794 259.942 39.1763 258.11 39.1763Z" fill="#565656"/>
<path d="M233.827 39.1763C231.937 39.1763 230.277 38.8794 228.845 38.2855C227.413 37.6634 226.268 36.8151 225.409 35.7406C224.55 34.6661 224.035 33.4219 223.863 32.008H229.403C229.575 32.8281 230.033 33.535 230.778 34.1288C231.551 34.6943 232.538 34.9771 233.741 34.9771C234.943 34.9771 235.817 34.7368 236.361 34.256C236.933 33.7753 237.219 33.2239 237.219 32.6018C237.219 31.697 236.819 31.089 236.017 30.778C235.215 30.4386 234.099 30.1135 232.667 29.8024C231.751 29.6045 230.821 29.3641 229.876 29.0813C228.931 28.7986 228.058 28.4451 227.256 28.0209C226.483 27.5685 225.853 27.003 225.366 26.3243C224.88 25.6174 224.636 24.7549 224.636 23.737C224.636 21.8707 225.381 20.3013 226.87 19.0288C228.387 17.7564 230.506 17.1201 233.226 17.1201C235.745 17.1201 237.749 17.6998 239.238 18.8592C240.755 20.0185 241.657 21.6162 241.944 23.6521H236.747C236.432 22.0969 235.244 21.3193 233.183 21.3193C232.152 21.3193 231.35 21.5172 230.778 21.9131C230.234 22.309 229.962 22.8038 229.962 23.3976C229.962 24.0197 230.377 24.5146 231.207 24.8822C232.037 25.2498 233.14 25.5891 234.514 25.9002C236.003 26.2395 237.363 26.6212 238.594 27.0454C239.854 27.4413 240.856 28.0492 241.6 28.8693C242.344 29.661 242.717 30.8062 242.717 32.3049C242.745 33.6057 242.402 34.7792 241.686 35.8254C240.97 36.8717 239.939 37.6917 238.594 38.2855C237.248 38.8794 235.659 39.1763 233.827 39.1763Z" fill="#565656"/>
<path d="M209.547 39.1763C207.658 39.1763 205.997 38.8794 204.566 38.2855C203.134 37.6634 201.989 36.8151 201.13 35.7406C200.271 34.6661 199.756 33.4219 199.584 32.008H205.124C205.296 32.8281 205.754 33.535 206.498 34.1288C207.271 34.6943 208.259 34.9771 209.462 34.9771C210.664 34.9771 211.537 34.7368 212.081 34.256C212.654 33.7753 212.94 33.2239 212.94 32.6018C212.94 31.697 212.539 31.089 211.738 30.778C210.936 30.4386 209.819 30.1135 208.388 29.8024C207.472 29.6045 206.541 29.3641 205.596 29.0813C204.652 28.7986 203.778 28.4451 202.977 28.0209C202.204 27.5685 201.574 27.003 201.087 26.3243C200.6 25.6174 200.357 24.7549 200.357 23.737C200.357 21.8707 201.101 20.3013 202.59 19.0288C204.108 17.7564 206.226 17.1201 208.946 17.1201C211.466 17.1201 213.47 17.6998 214.959 18.8592C216.476 20.0185 217.378 21.6162 217.664 23.6521H212.468C212.153 22.0969 210.965 21.3193 208.903 21.3193C207.873 21.3193 207.071 21.5172 206.498 21.9131C205.954 22.309 205.682 22.8038 205.682 23.3976C205.682 24.0197 206.097 24.5146 206.928 24.8822C207.758 25.2498 208.86 25.5891 210.235 25.9002C211.723 26.2395 213.083 26.6212 214.314 27.0454C215.574 27.4413 216.576 28.0492 217.321 28.8693C218.065 29.661 218.437 30.8062 218.437 32.3049C218.466 33.6057 218.122 34.7792 217.407 35.8254C216.691 36.8717 215.66 37.6917 214.314 38.2855C212.969 38.8794 211.38 39.1763 209.547 39.1763Z" fill="#565656"/>
<path d="M172.896 38.6673V17.6291H177.749L178.179 21.192C178.837 19.9478 179.782 18.9581 181.013 18.2229C182.273 17.4877 183.747 17.1201 185.437 17.1201C188.071 17.1201 190.118 17.9402 191.578 19.5802C193.038 21.2203 193.768 23.6239 193.768 26.7909V38.6673H188.271V27.2999C188.271 25.4901 187.899 24.1046 187.155 23.1431C186.41 22.1817 185.251 21.701 183.676 21.701C182.13 21.701 180.856 22.2383 179.854 23.3128C178.88 24.3873 178.394 25.886 178.394 27.8089V38.6673H172.896Z" fill="#565656"/>
<path d="M153.736 39.1763C151.904 39.1763 150.401 38.8935 149.227 38.328C148.053 37.7341 147.18 36.9565 146.607 35.9951C146.034 35.0337 145.748 33.9733 145.748 32.8139C145.748 30.8628 146.521 29.2793 148.067 28.0634C149.613 26.8474 151.932 26.2395 155.024 26.2395H160.436V25.7305C160.436 24.2884 160.02 23.228 159.19 22.5493C158.36 21.8707 157.329 21.5313 156.098 21.5313C154.981 21.5313 154.008 21.8 153.178 22.3372C152.347 22.8462 151.832 23.6097 151.632 24.6277H146.263C146.407 23.1007 146.922 21.7717 147.809 20.6406C148.726 19.5095 149.899 18.6471 151.331 18.0533C152.763 17.4312 154.366 17.1201 156.141 17.1201C159.176 17.1201 161.566 17.8695 163.313 19.3681C165.059 20.8668 165.933 22.9876 165.933 25.7305V38.6673H161.252L160.736 35.274C160.106 36.4051 159.219 37.3383 158.074 38.0735C156.957 38.8087 155.511 39.1763 153.736 39.1763ZM154.981 34.9347C156.556 34.9347 157.773 34.4257 158.632 33.4077C159.519 32.3898 160.078 31.1314 160.307 29.6327H155.626C154.165 29.6327 153.12 29.9014 152.491 30.4386C151.861 30.9476 151.546 31.5839 151.546 32.3473C151.546 33.1674 151.861 33.8036 152.491 34.256C153.12 34.7085 153.951 34.9347 154.981 34.9347Z" fill="#565656"/>
<path d="M136.19 14.3635C135.188 14.3635 134.357 14.0666 133.699 13.4728C133.069 12.879 132.754 12.1296 132.754 11.2248C132.754 10.3199 133.069 9.58469 133.699 9.01915C134.357 8.42533 135.188 8.12842 136.19 8.12842C137.192 8.12842 138.008 8.42533 138.638 9.01915C139.296 9.58469 139.625 10.3199 139.625 11.2248C139.625 12.1296 139.296 12.879 138.638 13.4728C138.008 14.0666 137.192 14.3635 136.19 14.3635ZM133.441 38.6677V17.6295H138.938V38.6677H133.441Z" fill="#565656"/>
<path d="M113.284 39.1767C111.279 39.1767 109.49 38.696 107.915 37.7346C106.341 36.7731 105.095 35.4583 104.179 33.7899C103.263 32.1216 102.805 30.227 102.805 28.1062C102.805 25.9854 103.263 24.105 104.179 22.4649C105.095 20.7966 106.341 19.4958 107.915 18.5627C109.49 17.6013 111.279 17.1205 113.284 17.1205C114.887 17.1205 116.29 17.4174 117.492 18.0113C118.695 18.6051 119.668 19.4393 120.413 20.5138V8.12842H125.91V38.6677H121.014L120.413 35.6562C119.725 36.5893 118.809 37.4094 117.664 38.1163C116.547 38.8232 115.087 39.1767 113.284 39.1767ZM114.443 34.4261C116.218 34.4261 117.664 33.8465 118.781 32.6871C119.926 31.4995 120.498 29.9866 120.498 28.1486C120.498 26.3106 119.926 24.8119 118.781 23.6526C117.664 22.4649 116.218 21.8711 114.443 21.8711C112.697 21.8711 111.251 22.4508 110.106 23.6101C108.96 24.7695 108.388 26.2682 108.388 28.1062C108.388 29.9442 108.96 31.457 110.106 32.6447C111.251 33.8323 112.697 34.4261 114.443 34.4261Z" fill="#565656"/>
<path d="M75.6465 38.6673V17.6291H80.4994L80.9288 21.192C81.5873 19.9478 82.5322 18.9581 83.7633 18.2229C85.023 17.4877 86.4975 17.1201 88.1867 17.1201C90.8207 17.1201 92.8678 17.9402 94.328 19.5802C95.7881 21.2203 96.5182 23.6239 96.5182 26.7909V38.6673H91.0211V27.2999C91.0211 25.4901 90.6489 24.1046 89.9045 23.1431C89.1602 22.1817 88.0006 21.701 86.4259 21.701C84.8799 21.701 83.6058 22.2383 82.6037 23.3128C81.6303 24.3873 81.1436 25.886 81.1436 27.8089V38.6673H75.6465Z" fill="#565656"/>
<path d="M65.4415 14.3635C64.4395 14.3635 63.6092 14.0666 62.9507 13.4728C62.3208 12.879 62.0059 12.1296 62.0059 11.2248C62.0059 10.3199 62.3208 9.58469 62.9507 9.01915C63.6092 8.42533 64.4395 8.12842 65.4415 8.12842C66.4436 8.12842 67.2596 8.42533 67.8895 9.01915C68.548 9.58469 68.8772 10.3199 68.8772 11.2248C68.8772 12.1296 68.548 12.879 67.8895 13.4728C67.2596 14.0666 66.4436 14.3635 65.4415 14.3635ZM62.693 38.6677V17.6295H68.1901V38.6677H62.693Z" fill="#565656"/>
<path fill-rule="evenodd" clip-rule="evenodd" d="M27.8782 8.18192C18.8023 8.18192 11.4448 15.5999 11.4448 24.7505C11.4448 33.9011 18.8023 41.3192 27.8782 41.3192C36.9542 41.3192 44.3117 33.9011 44.3117 24.7505C44.3117 15.5999 36.9542 8.18192 27.8782 8.18192ZM7.79297 24.7505C7.79297 13.5665 16.7855 4.5 27.8782 4.5C38.971 4.5 47.9635 13.5665 47.9635 24.7505C47.9635 35.9346 38.971 45.0011 27.8782 45.0011C16.7855 45.0011 7.79297 35.9346 7.79297 24.7505Z" fill="#565656"/>
<path fill-rule="evenodd" clip-rule="evenodd" d="M27.8777 4.5C28.3774 4.5 28.8553 4.70649 29.1999 5.07133C34.2119 10.3771 37.0074 17.4235 37.0074 24.7505C37.0074 32.0776 34.2119 39.1239 29.1999 44.4297C28.8553 44.7946 28.3774 45.0011 27.8777 45.0011C27.378 45.0011 26.9001 44.7946 26.5555 44.4297C21.5436 39.1239 18.748 32.0776 18.748 24.7505C18.748 17.4235 21.5436 10.3771 26.5555 5.07133C26.9001 4.70649 27.378 4.5 27.8777 4.5ZM27.8777 9.12941C24.346 13.5353 22.3999 19.0452 22.3999 24.7505C22.3999 30.4559 24.346 35.9657 27.8777 40.3717C31.4094 35.9657 33.3555 30.4559 33.3555 24.7505C33.3555 19.0452 31.4094 13.5353 27.8777 9.12941Z" fill="#565656"/>
<path fill-rule="evenodd" clip-rule="evenodd" d="M7.79297 24.7506C7.79297 23.7339 8.61047 22.9097 9.6189 22.9097H46.1376C47.146 22.9097 47.9635 23.7339 47.9635 24.7506C47.9635 25.7674 47.146 26.5916 46.1376 26.5916H9.6189C8.61047 26.5916 7.79297 25.7674 7.79297 24.7506Z" fill="#565656"/>
</g>
<defs>
<clipPath id="clip0_130_728">
<rect width="267" height="50" fill="white"/>
</clipPath>
</defs>
</svg>
