<svg width="54" height="50" viewBox="0 0 54 50" fill="none" xmlns="http://www.w3.org/2000/svg">
<path fill-rule="evenodd" clip-rule="evenodd" d="M15.3659 4.91197C15.4984 5.25665 16.3173 5.32394 20.38 5.32394C26.0433 5.32394 26.4575 5.45687 26.4575 7.27422V8.36924L18.6539 8.28849C11.4305 8.21379 10.8075 8.16875 10.2725 7.68454C9.70257 7.16848 9.6946 7.1693 9.6946 7.73755C9.6946 9.0674 10.333 9.16901 18.6869 9.16901C22.9606 9.16901 26.4575 9.2742 26.4575 9.40301C26.4575 10.0226 25.07 11.5752 23.9735 12.183C22.7957 12.8358 22.4992 12.8682 16.4272 13.0097L10.1068 13.1569L8.60199 13.9781C7.35797 14.657 6.95924 15.0693 6.30274 16.356L5.50884 17.9124L5.40469 24.4238C5.34725 28.0049 5.17111 31.4155 5.01282 32.0027C4.62178 33.4542 3.31565 34.8656 1.91966 35.3452C0.770995 35.7395 0.768522 35.7434 1.5245 35.9444C3.06201 36.3531 4.55995 35.2482 5.62123 32.9228C6.20436 31.6448 6.25602 31.0818 6.3904 24.5493C6.5223 18.1278 6.58138 17.4659 7.09883 16.5853C8.42392 14.331 10.2393 13.838 17.2162 13.838C23.0483 13.838 24.2571 13.5653 25.9565 11.8669L27.026 10.798L27.9403 11.7669C29.58 13.5046 30.2854 13.6639 37.1747 13.8553C43.7922 14.0393 44.5242 14.1824 46.0428 15.5889C47.3341 16.7853 47.4385 17.3966 47.619 24.8239C47.7718 31.1027 47.8482 31.9571 48.3585 33.081C49.2915 35.1356 51.1653 36.391 52.6124 35.9313C53.2024 35.7439 53.1687 35.7003 52.1634 35.352C50.7438 34.8604 49.8727 34.0348 49.1689 32.5141C48.6517 31.3965 48.583 30.6075 48.4506 24.2746C48.3047 17.2969 48.3014 17.2665 47.569 16.0215C47.0527 15.1437 46.3981 14.5312 45.3706 13.9641L43.9073 13.1564L37.5869 13.0094C31.5149 12.8682 31.2184 12.8358 30.0406 12.183C28.9441 11.5752 27.5567 10.0226 27.5567 9.40301C27.5567 9.2742 31.0535 9.16901 35.3272 9.16901C43.7106 9.16901 44.3247 9.06932 44.3154 7.71146C44.3126 7.33437 44.2335 7.2311 44.1035 7.43516C43.6157 8.20225 42.1805 8.34507 34.9584 8.34507H27.5567V7.28905C27.5567 5.42446 27.862 5.32394 33.5259 5.32394C37.6847 5.32394 38.5154 5.2572 38.6482 4.91197C38.7872 4.54971 37.3824 4.5 27.0071 4.5C16.6317 4.5 15.2269 4.54971 15.3659 4.91197ZM11.0727 16.7905C11.0834 17.3162 11.5654 17.646 12.4451 17.7295C13.1909 17.8001 13.4044 17.9426 13.4044 18.3697C13.4044 18.8575 13.1939 18.9281 11.5251 19.0009C9.96858 19.0684 9.67372 19.1549 9.80755 19.5037C9.89658 19.7355 9.9694 19.977 9.9694 20.0401C9.9694 20.1033 10.3626 20.1549 10.8435 20.1549H11.7174L10.2252 21.2659C8.52945 22.5282 8.28625 22.9014 9.15957 22.9014C9.50884 22.9014 11.4283 21.6507 13.6482 19.9772C15.7812 18.3692 17.6515 17.0509 17.8045 17.0478C17.9573 17.0448 19.8295 18.37 21.9647 19.9929C25.1181 22.3897 25.993 22.927 26.6245 22.8539C27.3725 22.7674 27.3352 22.7144 25.6416 21.4595C23.912 20.1777 23.8963 20.1549 24.757 20.1549C25.239 20.1549 25.6331 20.1033 25.6331 20.0401C25.6331 19.977 25.7059 19.7355 25.7949 19.5037C25.9287 19.1549 25.6339 19.0684 24.0774 19.0009C22.4085 18.9281 22.198 18.8575 22.198 18.3697C22.198 17.9426 22.4116 17.8001 23.1574 17.7295C24.037 17.646 24.519 17.3162 24.5297 16.7905C24.5319 16.6773 21.5042 16.5845 17.8012 16.5845C14.0983 16.5845 11.0705 16.6773 11.0727 16.7905ZM29.2692 17.1338C29.5726 17.6194 29.9101 17.6831 32.175 17.6831C35.1695 17.6831 35.8007 17.924 35.8007 19.066V19.8803H32.4737C29.5528 19.8803 29.167 19.9333 29.3135 20.3148C29.4052 20.5537 29.4803 20.8009 29.4803 20.8641C29.4803 20.9272 30.4797 20.9789 31.7015 20.9789C33.3539 20.9789 33.8947 21.0668 33.813 21.3222C33.7529 21.5111 32.2044 22.8396 30.372 24.2746C27.8631 26.2395 27.1549 26.9261 27.5047 27.0552C28.1217 27.2831 28.6303 26.9926 31.3978 24.8308C32.6858 23.8245 34.2035 22.6551 34.7702 22.2321L35.8007 21.4631V23.83V26.1972H32.7779H29.7551V30.3169V34.4366H36.4877H43.2203V30.2743C43.2203 26.3362 43.2461 26.1343 43.7012 26.5248C44.3577 27.0884 44.9922 27.2845 45.3811 27.0445C45.5852 26.9181 44.4797 25.9047 42.402 24.3131C40.585 22.9215 39.0983 21.6018 39.0983 21.3807C39.0983 21.064 39.5322 20.9789 41.1497 20.9789C42.9197 20.9789 43.2412 20.9036 43.4951 20.4296C43.782 19.8937 43.704 19.8803 40.3445 19.8803C36.9142 19.8803 36.8999 19.8775 36.8999 19.2362C36.8999 18.0047 37.6567 17.6831 40.5531 17.6831C42.9197 17.6831 43.2321 17.6249 43.4951 17.1338C43.7859 16.5908 43.704 16.5845 36.3577 16.5845C28.9947 16.5845 28.9293 16.5897 29.2692 17.1338ZM12.1678 21.6361C12.1678 22.1134 12.7652 22.3521 13.9609 22.3521C14.9903 22.3521 15.7402 23.1305 15.7402 24.1986C15.7402 24.8055 15.663 24.8239 13.1296 24.8239H10.519V27.0211V29.2183H12.6979C15.4399 29.2183 15.7402 29.4644 15.7402 31.7096V33.338H13.267C11.9067 33.338 10.7938 33.4369 10.7938 33.5577C10.7938 34.2131 11.6116 34.4366 14.009 34.4366H16.5646V31.2782V28.1197H14.0914H11.6182V27.0211V25.9225H14.0914H16.5646V23.588V21.2535H14.3662C12.6704 21.2535 12.1678 21.3409 12.1678 21.6361ZM18.2134 23.1211C18.2134 24.2076 18.0755 25.1266 17.8837 25.3183C17.6273 25.5746 17.6759 25.6479 18.1035 25.6479C18.9722 25.6479 19.3126 25.0909 19.3126 23.6704V22.3521H20.824H22.3354V24C22.3354 25.5858 22.3621 25.6479 23.0406 25.6479C23.857 25.6479 24.8087 25.1991 24.8087 24.8143C24.8087 24.6685 24.4995 24.5493 24.1216 24.5493C23.4651 24.5493 23.4346 24.476 23.4346 22.9014V21.2535H20.824H18.2134V23.1211ZM39.9227 23.6842C43.5069 26.4194 43.5017 26.1972 39.9815 26.1972H36.8999V23.8465C36.8999 22.0407 36.9796 21.5427 37.2434 21.6987C37.4325 21.8102 38.638 22.7039 39.9227 23.6842ZM18.763 27.1585C18.9826 27.4229 19.5913 27.5704 20.4635 27.5704C22.0505 27.5704 22.885 27.9382 22.885 28.6377C22.885 29.421 22.311 30.8662 21.9999 30.8662C21.8449 30.8662 20.9194 30.2963 19.9428 29.6001C18.3146 28.4386 18.175 28.3867 18.259 28.972C18.3124 29.343 18.8361 29.9593 19.5102 30.4441C21.0909 31.5811 21.0458 32.4798 19.3789 33.0557C18.735 33.2782 18.2533 33.5871 18.3082 33.7423C18.5014 34.2894 20.3769 33.9793 21.3467 33.2397L22.2959 32.5163L23.0714 33.1609C24.2571 34.1469 25.0392 34.4888 25.508 34.2265C25.8969 34.009 25.3319 33.4732 23.1024 31.9447C22.976 31.8582 23.1252 31.2175 23.4335 30.5207C23.7419 29.8239 24.0997 28.6899 24.2285 28.0002L24.4629 26.7465H21.4418C18.7878 26.7465 18.4624 26.7965 18.763 27.1585ZM41.5896 27.58C41.9581 27.7772 42.1211 28.1562 42.1211 28.816V29.7676H36.3503H30.5795V29.034C30.5795 28.6306 30.7842 28.0744 31.0343 27.7981C31.4418 27.348 31.9873 27.2958 36.2736 27.2958C39.0461 27.2958 41.2816 27.4152 41.5896 27.58ZM42.1211 32.1021V33.338H36.3503H30.5795V32.1021V30.8662H36.3503H42.1211V32.1021ZM36.3591 38.625C36.3525 38.9895 36.1181 39.1056 35.3885 39.1056H34.4267L34.4226 40.6849C34.4201 41.5533 34.3047 42.4437 34.1659 42.6629C34.0268 42.8823 33.9845 43.177 34.0716 43.3179C34.372 43.8032 34.9568 42.2616 34.9667 40.9595L34.9763 39.6549H36.8999C37.9991 39.6549 38.8235 39.5371 38.8235 39.3803C38.8235 39.2292 38.4352 39.1056 37.9606 39.1056C37.4613 39.1056 36.9441 38.9032 36.7328 38.625C36.3852 38.1672 36.3673 38.1672 36.3591 38.625ZM15.6622 39.3539C15.0845 40.3314 15.0769 40.4789 15.605 40.4789C15.9477 40.4789 15.9614 40.5723 15.6842 41.0158C15.2456 41.7175 15.4915 41.926 16.4635 41.6766C17.2261 41.4808 17.231 41.469 16.6097 41.3182L15.968 41.1619L16.5709 40.3957L17.1741 39.6294L16.3885 39.8205C15.6232 40.0068 15.6152 39.9977 16.0837 39.4684C16.5998 38.8851 16.6954 38.5563 16.3492 38.5563C16.2305 38.5563 15.9213 38.9153 15.6622 39.3539ZM18.2821 38.7549L17.389 38.8659V41.1927C17.389 43.4341 17.4091 43.5085 17.9386 43.2254C18.2409 43.0636 18.4882 42.8049 18.4882 42.6502C18.4882 42.4956 18.3646 42.4454 18.2134 42.5387C18.0499 42.6398 17.9386 42.3127 17.9386 41.731C17.9386 40.3652 18.641 40.43 18.8628 41.8164C19.0648 43.0784 19.7606 43.8285 20.1538 43.2078C20.5295 42.6143 20.4621 42.3234 19.9908 42.5041C19.7094 42.6121 19.4816 42.4335 19.3038 41.9664C18.921 40.9601 18.9694 40.7535 19.5874 40.7535C19.8897 40.7535 20.137 40.6299 20.137 40.4789C20.137 40.3278 19.904 40.2042 19.6196 40.2042C19.333 40.2042 19.0378 39.959 18.9581 39.6549C18.8504 39.2432 18.9499 39.1056 19.3547 39.1056C19.6517 39.1056 19.8183 38.982 19.7248 38.831C19.6314 38.6799 19.4695 38.5761 19.3651 38.6003C19.2607 38.6245 18.7732 38.6942 18.2821 38.7549ZM25.9048 39.7955L24.6869 41.0356L25.8471 42.1954L27.0076 43.355L28.2478 42.1152L29.4882 40.8757L28.3055 39.7154L27.1225 38.5552L25.9048 39.7955ZM28.9307 40.8908C28.9307 41.0581 28.4957 41.6165 27.9636 42.1317L26.9966 43.0685L25.9801 42.0526L24.9636 41.0367L26.0411 39.934L27.1184 38.8313L28.0246 39.7088C28.5229 40.1916 28.9307 40.7236 28.9307 40.8908ZM18.7144 39.7464C18.7672 40.0175 18.627 40.2042 18.3709 40.2042C18.1161 40.2042 17.9386 39.9694 17.9386 39.6321C17.9386 38.9628 18.5808 39.0573 18.7144 39.7464ZM36.6251 40.4596C36.6251 40.7911 36.3934 41.0345 36.0068 41.1089L35.3885 41.2281L36.0068 41.2655C36.5023 41.2954 36.6251 41.4665 36.6251 42.1268C36.6251 42.8224 36.5182 42.9507 35.9381 42.9507C35.5602 42.9507 35.2511 43.0743 35.2511 43.2254C35.2511 43.3803 36.0296 43.5 37.0373 43.5C38.045 43.5 38.8235 43.3803 38.8235 43.2254C38.8235 43.0743 38.4525 42.9507 37.9991 42.9507C37.2662 42.9507 37.1747 42.8592 37.1747 42.1268C37.1747 41.4201 37.2821 41.2976 37.9304 41.2655C38.6243 41.2311 38.6328 41.218 38.0359 41.1048C37.6784 41.037 37.3239 40.745 37.2483 40.4555C37.0694 39.7719 36.6251 39.7749 36.6251 40.4596ZM16.0439 42.6994C15.6817 42.8441 15.4484 43.0251 15.5248 43.1015C15.6853 43.2619 17.1142 42.762 17.1142 42.5456C17.1142 42.3473 16.818 42.3899 16.0439 42.6994Z" fill="#454545"/>
</svg>
