<svg width="146" height="50" viewBox="0 0 146 50" fill="none" xmlns="http://www.w3.org/2000/svg">
<g clip-path="url(#clip0_130_654)">
<path d="M17.0874 15.2325C11.3499 15.2652 4.60148 15.2815 4.09375 15.1984V12.1803C4.09375 8.98789 6.35327 6.3999 9.14053 6.3999H22.0981V9.45827C22.0981 12.6349 19.8608 15.2167 17.0874 15.2325Z" fill="#454545"/>
<path d="M17.0874 40.0743C11.3499 40.107 4.60148 40.1233 4.09375 40.0402V37.0221C4.09375 33.8297 6.35327 31.2417 9.14053 31.2417H22.0981V34.3001C22.0981 37.4767 19.8608 40.0585 17.0874 40.0743Z" fill="#454545"/>
<path d="M9.11382 27.6544C14.8512 27.6871 21.5997 27.7034 22.1074 27.6203V24.6022C22.1074 21.4098 19.8479 18.8218 17.0606 18.8218H4.10309V21.8801C4.10309 25.0568 6.34037 27.6386 9.11382 27.6544Z" fill="#454545"/>
<path d="M25.5156 18.822C25.4746 25.5843 25.4172 39.3076 25.5156 40.1021H28.6686C31.27 40.1021 33.3789 37.6866 33.3789 34.707V24.217C33.3789 21.2374 31.27 18.822 28.6686 18.822H25.5156Z" fill="#454545"/>
<path d="M33.3747 10.7238C33.3747 13.228 31.6023 15.2581 29.4159 15.2581C27.2295 15.2581 25.457 13.228 25.457 10.7238C25.457 8.21955 27.2295 6.18945 29.4159 6.18945C31.6023 6.18945 33.3747 8.21955 33.3747 10.7238Z" fill="#454545"/>
<path d="M141.524 42.7975V32.513H138.068V29.7568H147.968V32.513H144.512V42.7975H141.524Z" fill="#454545"/>
<path d="M126.576 42.7975V29.7568H128.773L134.538 37.9512H134.07V29.7568H136.831V42.7975H134.635L128.902 34.6032H129.37V42.7975H126.576Z" fill="#454545"/>
<path d="M116.842 42.7975V29.7568H125.014V32.365H119.7V34.8621H124.626V37.4888H119.7V40.1709H125.014V42.7975H116.842Z" fill="#454545"/>
<path d="M102.619 42.7975V29.7568H105.203L108.934 39.32H108.401L112.115 29.7568H114.715V42.7975H112.018V34.8066H112.713L109.483 42.7975H107.803L104.557 34.8066H105.3V42.7975H102.619Z" fill="#454545"/>
<path d="M94.874 42.7975V32.513H91.418V29.7568H101.318V32.513H97.8617V42.7975H94.874Z" fill="#454545"/>
<path d="M85.9549 43.0013C85.0397 43.0013 84.1677 42.878 83.3386 42.6314C82.5204 42.3724 81.8313 42.0271 81.2715 41.5955L82.1113 38.9504C82.4666 39.2094 82.8542 39.4313 83.274 39.6163C83.6939 39.8013 84.13 39.9493 84.5822 40.0602C85.0451 40.1589 85.5135 40.2082 85.9872 40.2082C86.6978 40.2082 87.1877 40.1034 87.4568 39.8938C87.7367 39.6841 87.8767 39.4128 87.8767 39.0799C87.8767 38.7839 87.7852 38.5558 87.6022 38.3955C87.4191 38.2228 87.0746 38.0749 86.5686 37.9515L84.5983 37.4891C83.554 37.2425 82.7734 36.817 82.2566 36.2128C81.7398 35.5962 81.4814 34.7946 81.4814 33.8081C81.4814 32.9449 81.6806 32.1988 82.079 31.5699C82.4881 30.9287 83.0587 30.4354 83.7908 30.0901C84.523 29.7325 85.3789 29.5537 86.3586 29.5537C87.1661 29.5537 87.9252 29.6832 88.6357 29.9422C89.3463 30.1888 89.9277 30.5341 90.3799 30.978L89.5401 33.4567C89.1095 33.0991 88.625 32.8278 88.0867 32.6428C87.5483 32.4455 86.9508 32.3468 86.294 32.3468C85.6696 32.3468 85.1959 32.4578 84.8729 32.6798C84.5606 32.8894 84.4045 33.1915 84.4045 33.5861C84.4045 33.8574 84.496 34.0917 84.6791 34.289C84.8729 34.474 85.2228 34.6282 85.7288 34.7515L87.6668 35.1954C88.7111 35.4297 89.4917 35.849 90.0085 36.4532C90.536 37.0575 90.7998 37.8467 90.7998 38.8209C90.7998 39.6595 90.5952 40.3932 90.1861 41.0221C89.7878 41.651 89.2279 42.1381 88.5065 42.4834C87.7852 42.8287 86.9346 43.0013 85.9549 43.0013Z" fill="#454545"/>
<path d="M72.1016 42.7975V29.7568H80.2733V32.365H74.9601V34.8621H79.8857V37.4888H74.9601V40.1709H80.2733V42.7975H72.1016Z" fill="#454545"/>
<path d="M63.8007 42.7975L58.6328 29.7568H61.8304L65.5126 39.6715H64.6243L68.2903 29.7568H71.3749L66.207 42.7975H63.8007Z" fill="#454545"/>
<path d="M47.6582 42.7975V29.7568H49.8546L55.62 37.9512H55.1517V29.7568H57.9133V42.7975H55.7169L49.9838 34.6032H50.4521V42.7975H47.6582Z" fill="#454545"/>
<path d="M42.5625 42.7975V29.7568H45.5502V42.7975H42.5625Z" fill="#454545"/>
<path d="M77.4393 17.5677C76.5241 17.5677 75.652 17.4444 74.823 17.1978C74.0048 16.9388 73.3157 16.5935 72.7559 16.1619L73.5956 13.5168C73.9509 13.7758 74.3385 13.9977 74.7584 14.1827C75.1783 14.3677 75.6144 14.5157 76.0665 14.6266C76.5295 14.7253 76.9978 14.7746 77.4716 14.7746C78.1822 14.7746 78.672 14.6698 78.9412 14.4602C79.2211 14.2505 79.3611 13.9792 79.3611 13.6463C79.3611 13.3503 79.2696 13.1222 79.0865 12.9619C78.9035 12.7892 78.559 12.6413 78.053 12.5179L76.0827 12.0555C75.0383 11.8089 74.2578 11.3834 73.741 10.7792C73.2242 10.1626 72.9658 9.36105 72.9658 8.37452C72.9658 7.51131 73.165 6.76525 73.5633 6.13633C73.9725 5.49509 74.5431 5.00183 75.2752 4.65654C76.0073 4.29893 76.8633 4.12012 77.843 4.12012C78.6505 4.12012 79.4095 4.2496 80.1201 4.50856C80.8307 4.75519 81.4121 5.10048 81.8643 5.54442L81.0245 8.02307C80.5938 7.66545 80.1094 7.39416 79.571 7.20919C79.0327 7.01188 78.4352 6.91323 77.7784 6.91323C77.154 6.91323 76.6802 7.02421 76.3572 7.24618C76.045 7.45582 75.8889 7.75794 75.8889 8.15255C75.8889 8.42385 75.9804 8.65815 76.1634 8.85546C76.3572 9.04043 76.7072 9.19457 77.2132 9.31789L79.1511 9.76183C80.1955 9.99613 80.9761 10.4154 81.4928 11.0197C82.0204 11.6239 82.2842 12.4131 82.2842 13.3873C82.2842 14.2259 82.0796 14.9596 81.6705 15.5885C81.2721 16.2174 80.7123 16.7045 79.9909 17.0498C79.2696 17.3951 78.419 17.5677 77.4393 17.5677Z" fill="#454545"/>
<path d="M65.8056 17.3649V7.08033H62.3496V4.32422H72.2494V7.08033H68.7933V17.3649H65.8056Z" fill="#454545"/>
<path d="M53.3965 17.3649V4.32422H61.5682V6.93235H56.255V9.42951H61.1806V12.0561H56.255V14.7383H61.5682V17.3649H53.3965Z" fill="#454545"/>
<path d="M46.8436 17.5677C45.9284 17.5677 45.0563 17.4444 44.2273 17.1978C43.4091 16.9388 42.72 16.5935 42.1602 16.1619L42.9999 13.5168C43.3552 13.7758 43.7428 13.9977 44.1627 14.1827C44.5826 14.3677 45.0187 14.5157 45.4708 14.6266C45.9338 14.7253 46.4021 14.7746 46.8759 14.7746C47.5865 14.7746 48.0763 14.6698 48.3455 14.4602C48.6254 14.2505 48.7654 13.9792 48.7654 13.6463C48.7654 13.3503 48.6739 13.1222 48.4908 12.9619C48.3078 12.7892 47.9633 12.6413 47.4573 12.5179L45.487 12.0555C44.4426 11.8089 43.6621 11.3834 43.1453 10.7792C42.6285 10.1626 42.3701 9.36105 42.3701 8.37452C42.3701 7.51131 42.5693 6.76525 42.9676 6.13633C43.3768 5.49509 43.9474 5.00183 44.6795 4.65654C45.4116 4.29893 46.2676 4.12012 47.2473 4.12012C48.0548 4.12012 48.8138 4.2496 49.5244 4.50856C50.235 4.75519 50.8164 5.10048 51.2686 5.54442L50.4288 8.02307C49.9981 7.66545 49.5136 7.39416 48.9753 7.20919C48.437 7.01188 47.8395 6.91323 47.1827 6.91323C46.5583 6.91323 46.0845 7.02421 45.7615 7.24618C45.4493 7.45582 45.2932 7.75794 45.2932 8.15255C45.2932 8.42385 45.3847 8.65815 45.5677 8.85546C45.7615 9.04043 46.1114 9.19457 46.6175 9.31789L48.5554 9.76183C49.5998 9.99613 50.3803 10.4154 50.8971 11.0197C51.4247 11.6239 51.6885 12.4131 51.6885 13.3873C51.6885 14.2259 51.4839 14.9596 51.0748 15.5885C50.6764 16.2174 50.1166 16.7045 49.3952 17.0498C48.6739 17.3951 47.8233 17.5677 46.8436 17.5677Z" fill="#454545"/>
</g>
<defs>
<clipPath id="clip0_130_654">
<rect width="146" height="50" fill="white"/>
</clipPath>
</defs>
</svg>
