<svg width="46" height="46" viewBox="0 0 46 46" fill="none" xmlns="http://www.w3.org/2000/svg">
<circle cx="23" cy="23" r="22.5" fill="black" stroke="white"/>
<path d="M27.2252 14.4478H19.0751C16.8245 14.4478 15 16.2548 15 18.4839V26.5561C15 28.7852 16.8245 30.5922 19.0751 30.5922H27.2252C29.4758 30.5922 31.3002 28.7852 31.3002 26.5561V18.4839C31.3002 16.2548 29.4758 14.4478 27.2252 14.4478Z" fill="black" stroke="white" stroke-linecap="round" stroke-linejoin="round"/>
<path d="M26.4106 22.0119C26.5112 22.6837 26.3953 23.3698 26.0795 23.9726C25.7637 24.5755 25.264 25.0643 24.6515 25.3696C24.039 25.675 23.3449 25.7813 22.6679 25.6734C21.9909 25.5655 21.3655 25.2489 20.8806 24.7687C20.3958 24.2884 20.0761 23.669 19.9672 22.9985C19.8583 22.3279 19.9656 21.6405 20.2738 21.0338C20.5821 20.4272 21.0757 19.9322 21.6844 19.6194C22.293 19.3066 22.9857 19.1919 23.664 19.2915C24.3559 19.3931 24.9965 19.7125 25.491 20.2023C25.9856 20.6922 26.308 21.3266 26.4106 22.0119Z" fill="black" stroke="white" stroke-linecap="round" stroke-linejoin="round"/>
<path d="M27.6328 18.0806H27.6409" stroke="white" stroke-linecap="round" stroke-linejoin="round"/>
</svg>
