<svg width="46" height="46" viewBox="0 0 46 46" fill="none" xmlns="http://www.w3.org/2000/svg">
<circle cx="23" cy="23" r="22.5" fill="black" stroke="white"/>
<path d="M26.4732 19.3901C27.9289 19.3901 29.325 19.9669 30.3543 20.9935C31.3837 22.0202 31.962 23.4126 31.962 24.8645V31.2512H28.3028V24.8645C28.3028 24.3805 28.11 23.9164 27.7669 23.5742C27.4238 23.232 26.9584 23.0397 26.4732 23.0397C25.9879 23.0397 25.5226 23.232 25.1794 23.5742C24.8363 23.9164 24.6436 24.3805 24.6436 24.8645V31.2512H20.9844V24.8645C20.9844 23.4126 21.5627 22.0202 22.592 20.9935C23.6214 19.9669 25.0174 19.3901 26.4732 19.3901Z" fill="black" stroke="white" stroke-linecap="round" stroke-linejoin="round"/>
<path d="M17.9918 20.3782H14V31.2508H17.9918V20.3782Z" fill="black" stroke="white" stroke-linecap="round" stroke-linejoin="round"/>
<path d="M15.9959 18.4015C17.0982 18.4015 17.9918 17.5164 17.9918 16.4246C17.9918 15.3328 17.0982 14.4478 15.9959 14.4478C14.8936 14.4478 14 15.3328 14 16.4246C14 17.5164 14.8936 18.4015 15.9959 18.4015Z" fill="black" stroke="white" stroke-linecap="round" stroke-linejoin="round"/>
</svg>
