<svg width="46" height="46" viewBox="0 0 46 46" fill="none" xmlns="http://www.w3.org/2000/svg">
<g clip-path="url(#clip0_38_428)">
<path d="M25 31.9812C24.0164 31.9812 23.1335 32.0063 22.2552 31.9562C22.1027 31.9466 21.8953 31.6502 21.8252 31.4288C21.5126 30.4491 21.261 29.4385 20.9423 28.4646C20.866 28.2317 20.6175 27.9372 20.4436 27.9333C18.6702 27.8948 16.8952 27.9102 15.1004 27.9102C14.7573 29.0959 14.4127 30.2277 14.1062 31.3749C13.9812 31.8446 13.7875 32.0178 13.3925 31.9986C12.6347 31.9601 11.8753 31.987 11 31.987C11.1006 31.5905 11.1632 31.2979 11.2486 31.015C12.8695 25.6659 14.5057 20.3206 16.1099 14.9619C16.3097 14.294 16.5582 13.9956 17.1453 14.0591C17.9489 14.1458 18.9538 13.7685 19.5119 14.2516C20.07 14.7348 20.2012 16.0282 20.4894 16.9791C21.8908 21.6122 23.283 26.251 24.6782 30.8899C24.7743 31.2113 24.8689 31.5347 25 31.9812ZM18.0404 18.3919C17.9809 18.3804 17.9199 18.3688 17.8605 18.3573C17.2642 20.4226 16.6665 22.4899 16.0611 24.586C17.3588 24.586 18.5512 24.586 19.8291 24.586C19.213 22.4495 18.626 20.4207 18.0404 18.3919Z" fill="#454545"/>
<path d="M22.6328 4.96291C22.7632 1.07355 27.1043 0.928958 27.6499 4.50717C28.1311 9.02432 22.7033 9.24029 22.6328 4.96291Z" fill="#454545"/>
<path d="M33.633 11.6084C33.4037 15.7229 28.6534 15.3221 28.5859 11.4309C28.7433 7.35665 33.684 7.53785 33.633 11.6084Z" fill="#454545"/>
<path fill-rule="evenodd" clip-rule="evenodd" d="M18.1064 1.63249C18.4116 2.84446 17.8376 4.12287 16.8243 4.48789C11.6744 6.34311 8.60862 9.32802 6.74315 12.2517C4.86057 15.2022 4.11899 18.2204 3.79946 20.251C3.60373 21.4949 2.60199 22.3135 1.56203 22.0794C0.52206 21.8453 -0.162326 20.6471 0.0334072 19.4032C0.423191 16.9261 1.33912 13.166 3.69679 9.47087C6.07156 5.74897 9.82878 2.22092 15.7192 0.0989504C16.7324 -0.266072 17.8013 0.420517 18.1064 1.63249Z" fill="#454545"/>
<path fill-rule="evenodd" clip-rule="evenodd" d="M1.84377 23.9562C2.88738 23.7465 3.87549 24.5885 4.05078 25.8367C5.53369 36.3965 12.077 40.0258 15.3272 40.7877C16.3657 41.0311 17.0425 42.2353 16.839 43.4775C16.6355 44.7196 15.6287 45.5292 14.5902 45.2858C10.3138 44.2834 2.09951 39.613 0.271546 26.596C0.0962539 25.3477 0.800162 24.1659 1.84377 23.9562Z" fill="#454545"/>
<path fill-rule="evenodd" clip-rule="evenodd" d="M18.6484 44.1036C18.4426 42.862 19.1173 41.656 20.1554 41.4099C24.8163 40.3047 27.9518 38.428 30.1195 35.851C32.2849 33.2767 33.6641 29.7901 34.4804 25.0576C34.6943 23.818 35.7078 23.0204 36.7442 23.2762C37.7806 23.5319 38.4474 24.7442 38.2335 25.9838C37.3209 31.2749 35.687 35.6948 32.8209 39.1021C29.957 42.5068 26.0426 44.6869 20.9005 45.9061C19.8625 46.1522 18.8542 45.3452 18.6484 44.1036Z" fill="#454545"/>
</g>
<defs>
<clipPath id="clip0_38_428">
<rect width="46" height="46" fill="white"/>
</clipPath>
</defs>
</svg>
