<svg width="154" height="48" viewBox="0 0 154 48" fill="none" xmlns="http://www.w3.org/2000/svg">
<path d="M152.851 15.0353C152.851 17.8667 152.201 20.4285 150.899 22.7207C149.597 25.0128 147.702 26.6982 145.214 27.7768L154 47.1926H139.758L132.752 30.2712H128.043V47.1926H115.352V0.810547H139.528C142.361 0.810547 144.773 1.46223 146.764 2.7656C148.793 4.02403 150.305 5.75437 151.301 7.95661C152.335 10.1139 152.851 12.4735 152.851 15.0353ZM139.93 15.642C139.93 14.4285 139.586 13.4173 138.897 12.6083C138.208 11.7993 137.365 11.3948 136.37 11.3948H128.043V19.9566H136.37C137.365 19.9566 138.208 19.5521 138.897 18.7431C139.586 17.8892 139.93 16.8555 139.93 15.642Z" fill="#454545"/>
<path d="M91.3096 47.1926V0.810547H104.001V47.1926H91.3096Z" fill="#454545"/>
<path d="M63.5895 0C68.6431 0 72.797 1.21348 76.0512 3.64045C79.3054 6.02247 80.9708 9.57303 81.0473 14.2921V15.1011H69.1599V14.8315C69.1599 13.4831 68.7388 12.3596 67.8965 11.4607C67.0543 10.5618 65.7718 10.1124 64.0489 10.1124C62.3644 10.1124 61.0627 10.4045 60.1439 10.9888C59.2634 11.573 58.8231 12.2921 58.8231 13.1461C58.8231 14.3596 59.4356 15.2584 60.6607 15.8427C61.8859 16.427 63.8575 17.0337 66.5757 17.6629C69.7534 18.427 72.3567 19.236 74.3858 20.0899C76.4532 20.8989 78.2526 22.2472 79.7839 24.1348C81.3153 26.0225 82.1002 28.5843 82.1384 31.8202C82.1384 37.3034 80.5496 41.3708 77.372 44.0225C74.2327 46.6742 70.0213 48 64.7381 48C58.5742 48 53.7695 46.7865 50.3239 44.3596C46.9166 41.9326 45.2129 37.6404 45.2129 31.4831H57.2151C57.2151 33.8202 57.732 35.3933 58.7657 36.2022C59.7993 36.9663 61.4073 37.3483 63.5895 37.3483C65.1975 37.3483 66.5183 37.1461 67.552 36.7416C68.624 36.3371 69.1599 35.5056 69.1599 34.2472C69.1599 33.1236 68.5665 32.2921 67.3797 31.7528C66.2312 31.1685 64.3361 30.5618 61.6944 29.9326C58.4785 29.1236 55.8177 28.2921 53.7121 27.4382C51.6064 26.5393 49.7688 25.0787 48.1991 23.0562C46.6294 21.0337 45.8446 18.2921 45.8446 14.8315C45.8446 9.75281 47.51 6.02247 50.8407 3.64045C54.2098 1.21348 58.4594 0 63.5895 0Z" fill="#454545"/>
<path d="M17.1132 0.810547C30.934 0.810547 37.8444 8.54088 37.8444 24.0016C37.8444 39.4622 30.934 47.1926 17.1132 47.1926H0V0.810547H17.1132ZM12.6914 36.069H16.8835C22.2051 36.069 24.8659 32.7207 24.8659 26.024V21.9791C24.8659 15.2825 22.2051 11.9341 16.8835 11.9341H12.6914V36.069Z" fill="#454545"/>
</svg>
