<svg width="52" height="48" viewBox="0 0 52 48" fill="none" xmlns="http://www.w3.org/2000/svg">
<path fill-rule="evenodd" clip-rule="evenodd" d="M6.77049 6.38981L0.171619 38.3737C-1.09382 44.5072 4.8603 49.6506 10.7447 47.5071L46.7362 34.3968C52.9553 32.1314 53.8901 23.7245 48.3207 20.1482L18.928 1.27462C14.2033 -1.75918 7.90504 0.890789 6.77049 6.38981ZM25.5869 9.55388C23.8321 10.2649 13.9257 13.7344 9.19186 15.3802C9.57178 16.1544 12.2447 21.6279 13.5337 24.2679C14.2755 24.0309 16.2851 23.2343 17.1972 22.8656C16.9258 22.2652 15.3504 18.876 14.5966 17.2565C15.7363 16.8299 23.4085 14.024 27.1021 12.6744C26.7583 11.9634 25.9487 10.2978 25.5869 9.55388ZM26.6272 20.4561C25.5598 20.8669 17.6042 23.6293 13.7599 24.9591C14.176 25.5121 15.0036 27.3753 15.3654 28.2377C16.27 27.9375 24.2452 25.1632 28.1197 23.8136C28.5358 24.809 30.1926 28.0468 30.969 29.5412C31.566 29.3042 33.5847 28.5734 34.5194 28.2377C33.9586 27.2581 29.5519 17.928 27.4186 13.3854C26.8397 13.5276 24.8407 14.2874 23.9135 14.6495C24.1125 15.0919 25.8055 18.7049 26.6272 20.4561ZM15.7047 28.9882C17.0087 31.7137 19.6802 37.2952 19.9335 37.8166C24.9462 36.0391 35.2159 32.3932 36.1928 32.0298C35.8159 31.2552 34.9988 29.5626 34.7455 28.9882C30.758 30.4168 22.6516 33.3175 22.127 33.4913C21.7635 32.7006 21.2288 31.5302 20.7321 30.443L20.7317 30.4422L20.7315 30.4418C20.1158 29.0942 19.5587 27.8748 19.4586 27.6649C18.6012 27.9575 17.0597 28.5063 16.2351 28.7998L16.2348 28.7999L16.2243 28.8036C15.9598 28.8978 15.7707 28.9651 15.7047 28.9882Z" fill="#454545"/>
</svg>
