<svg width="48" height="46" viewBox="0 0 48 46" fill="none" xmlns="http://www.w3.org/2000/svg">
<g clip-path="url(#clip0_38_371)">
<path d="M0 21.3838C0.162579 20.6931 0.373423 20.0284 0.937368 19.5473C1.45305 19.1076 2.05256 18.9032 2.71303 18.8903C3.52847 18.8774 4.34136 18.8877 5.18474 18.8877C5.21014 19.3947 5.23554 19.9198 5.26603 20.5354C5.0501 20.5612 4.80369 20.613 4.55728 20.6207C3.98318 20.6337 3.40907 20.6207 2.83497 20.6259C2.1186 20.6362 1.76296 20.9518 1.73756 21.6812C1.70708 22.5296 1.70708 23.3832 1.73248 24.2316C1.75788 25.0438 2.0932 25.3749 2.90101 25.4059C3.52593 25.4318 4.15338 25.4085 4.78083 25.4137C5.97477 25.4189 6.86387 25.9646 7.34906 27.0691C7.92825 28.3908 8.46679 29.7307 8.97739 31.0835C9.48291 32.4259 9.02312 33.5356 8.05272 34.4797C7.67676 34.847 7.28556 35.2013 6.94008 35.5971C6.4498 36.1584 6.47266 36.5852 6.99088 37.1309C7.55991 37.7284 8.13655 38.3182 8.72336 38.8976C9.28477 39.4511 9.79282 39.4408 10.3568 38.8769C10.7912 38.4423 11.2078 37.9897 11.6498 37.5655C12.422 36.8283 13.3187 36.5283 14.467 36.8154C13.997 37.4517 13.9716 38.2639 13.1333 38.6363C12.6253 38.8614 12.2544 39.4201 11.8352 39.8443C10.2501 41.4506 8.80973 41.4583 7.23983 39.8598C6.77242 39.3839 6.30246 38.9105 5.83759 38.432C4.56998 37.118 4.56998 35.5609 5.83759 34.2572C6.2415 33.8408 6.6454 33.4244 7.05693 33.0183C7.47862 32.5992 7.57261 32.1233 7.34652 31.5698C6.85879 30.3799 6.37359 29.1901 5.90364 27.9925C5.66739 27.3898 5.25586 27.1157 4.61825 27.126C3.8714 27.1364 3.1144 27.1803 2.37771 27.0794C1.09487 26.9061 0.368342 26.1509 0.101612 24.8757C0.0812893 24.7748 0.0381044 24.6791 0.00762088 24.5782C0.00762088 23.5151 0.00762088 22.452 0.00762088 21.3864L0 21.3838Z" fill="#454545"/>
<path d="M14.6172 38.7319C15.4987 36.9963 16.3649 35.2892 17.2362 33.5846C18.3133 31.4688 19.3929 29.3529 20.4726 27.2371C20.8434 26.5103 20.8561 26.4999 21.6208 26.6939C22.9214 27.0276 24.1052 26.8465 25.101 25.8791C25.4846 25.5067 25.6624 25.7834 25.8631 26.0705C27.8496 28.8848 27.7683 33.1112 25.6776 36.0729C22.8604 40.064 17.8383 40.5348 14.6172 38.7319Z" fill="#454545"/>
<path d="M38.0076 31.1617C33.9914 29.0381 30.0082 26.9301 25.992 24.8039C26.7541 23.045 26.4442 21.5008 25.1689 20.1558C27.0284 18.1951 31.6746 17.251 35.226 19.7393C39.3235 22.6104 39.7934 27.8793 38.005 31.1591L38.0076 31.1617Z" fill="#454545"/>
<path d="M20.0828 25.9379C17.2478 28.5452 12.3044 28.434 9.28908 25.8163C5.6463 22.6555 5.64122 17.5651 7.21874 14.9526C8.212 15.4725 9.21287 15.995 10.2087 16.5201C13.0411 18.0177 15.8684 19.5257 18.7085 21.013C19.059 21.1967 19.1911 21.3493 19.0489 21.7812C18.5738 23.209 18.8761 24.4946 19.8491 25.6249C19.9278 25.7154 19.9939 25.8189 20.0853 25.9405L20.0828 25.9379Z" fill="#454545"/>
<path d="M30.5595 7.30584C28.4917 11.3642 26.4214 15.4226 24.318 19.5456C22.6135 18.8162 21.0944 19.1292 19.7937 20.4431C17.6828 18.2756 16.8927 13.3326 19.687 9.69844C22.5068 6.02806 27.4908 5.53661 30.557 7.30843L30.5595 7.30584Z" fill="#454545"/>
<path d="M9.03782 14.7368C8.55008 14.4833 8.11823 14.2635 7.69146 14.0333C7.61779 13.9945 7.51618 13.9324 7.50094 13.8651C7.30026 12.934 6.51277 12.4787 5.93104 11.8657C4.5669 10.4276 4.50085 9.05666 5.82689 7.57713C6.38829 6.95118 6.99288 6.35885 7.61017 5.78721C8.83459 4.65428 10.3435 4.68791 11.5298 5.85446C11.9566 6.27349 12.3732 6.70028 12.7847 7.13224C13.1963 7.56679 13.6637 7.66508 14.2073 7.43487C15.3758 6.94083 16.5444 6.44679 17.718 5.9631C18.3048 5.72255 18.5842 5.29317 18.5766 4.6517C18.5715 3.96108 18.5639 3.26787 18.5919 2.57984C18.6528 1.13652 19.7299 0.0320428 21.1398 0.0139367C22.2677 -0.00158288 23.4057 -0.0274488 24.5234 0.104467C25.7961 0.25449 26.6014 1.28654 26.6319 2.60053C26.6522 3.46445 26.637 4.32837 26.637 5.2492C26.1619 5.28541 25.6335 5.32421 25.0442 5.36818C25.0162 5.15608 24.968 4.95433 24.9654 4.75257C24.9553 4.09817 24.9705 3.44117 24.9578 2.78676C24.9477 2.15305 24.6886 1.80127 24.0662 1.76247C23.0958 1.70298 22.1203 1.69781 21.1474 1.73919C20.5809 1.76506 20.2888 2.16081 20.2659 2.79711C20.243 3.45152 20.2608 4.10851 20.2557 4.76292C20.2481 6.04328 19.6689 6.97187 18.5283 7.48402C17.276 8.04531 16.0084 8.58332 14.7281 9.07218C13.5926 9.50673 12.5383 9.2998 11.6442 8.43071C11.1793 7.97806 10.7449 7.49178 10.2724 7.04688C9.75418 6.55802 9.25628 6.56578 8.75584 7.05981C8.14363 7.66249 7.54158 8.2781 6.94716 8.90147C6.44418 9.42913 6.44672 9.8792 6.95478 10.4276C7.37392 10.8776 7.82102 11.2992 8.2427 11.7467C9.02257 12.5667 9.35535 13.5185 9.03527 14.7342L9.03782 14.7368Z" fill="#454545"/>
<path d="M30.7533 9.18075C31.0251 8.64274 31.2588 8.17456 31.4976 7.70639C31.5205 7.66242 31.5535 7.59517 31.5916 7.58741C32.5239 7.40893 32.9227 6.55277 33.54 5.98631C34.2691 5.31638 35.054 4.7913 36.06 5.01375C36.596 5.13273 37.1574 5.39139 37.5791 5.74575C38.3005 6.35102 38.9483 7.05457 39.5808 7.76071C40.663 8.96606 40.6071 10.4896 39.4792 11.6535C39.0525 12.0958 38.6232 12.5356 38.1862 12.9675C37.7645 13.3891 37.6782 13.8728 37.9017 14.4212C38.3894 15.6291 38.8823 16.8371 39.3649 18.045C39.5885 18.6011 39.972 18.8624 40.5741 18.8494C41.2854 18.8339 42.0017 18.8339 42.7105 18.896C44.0924 19.0176 45.0298 19.866 45.1644 21.2705C45.2736 22.4112 45.2762 23.5777 45.172 24.7184C45.0425 26.1462 43.9247 27.0774 42.4971 27.1058C41.6969 27.1214 40.8993 27.1084 40.0457 27.1084C40.0025 26.5885 39.9593 26.0505 39.9085 25.4349C40.2616 25.4142 40.6122 25.3857 40.9653 25.3754C41.4683 25.3651 41.9738 25.3883 42.4742 25.3625C43.1398 25.3263 43.5005 24.9745 43.5234 24.289C43.5513 23.4406 43.5539 22.5871 43.5234 21.7387C43.4954 20.973 43.1855 20.6678 42.4209 20.6212C41.7807 20.5824 41.1355 20.585 40.4928 20.5799C39.2074 20.5669 38.3107 19.9539 37.8103 18.7589C37.2946 17.5251 36.7916 16.2835 36.3115 15.0342C35.8415 13.8133 36.0422 12.7114 36.9593 11.7673C37.3886 11.3276 37.828 10.8957 38.2472 10.4482C38.7756 9.88689 38.7908 9.42389 38.2777 8.87553C37.701 8.25992 37.1117 7.65725 36.5045 7.07268C35.9533 6.54243 35.4478 6.55277 34.8991 7.08044C34.4317 7.5305 33.9922 8.01161 33.5299 8.46685C32.7678 9.21696 31.8584 9.4032 30.7432 9.17558L30.7533 9.18075Z" fill="#454545"/>
<path d="M18.5928 40.7835C19.139 40.7499 19.6546 40.7188 20.2364 40.6826C20.2491 40.8792 20.2694 41.0835 20.2719 41.2879C20.277 41.9087 20.2618 42.5295 20.277 43.1477C20.2948 43.8848 20.6606 44.2547 21.3795 44.2625C22.1975 44.2728 23.0154 44.2728 23.8334 44.2625C24.6158 44.2495 24.9384 43.9236 24.9664 43.1321C24.9994 42.2837 24.9664 41.4302 25.0629 40.5895C25.1671 39.6661 25.6955 38.9755 26.5287 38.6004C27.8928 37.9874 29.262 37.3795 30.6617 36.8596C31.7439 36.4561 32.7524 36.7174 33.5881 37.5503C34.0225 37.9848 34.4417 38.4349 34.8811 38.8643C35.4603 39.4333 35.9913 39.4333 36.5603 38.8643C37.1318 38.2952 37.6983 37.7184 38.2572 37.1364C38.8034 36.5674 38.8034 36.0914 38.2648 35.525C37.8279 35.0671 37.3681 34.6326 36.9413 34.167C36.2224 33.3884 35.882 32.4909 36.1945 31.3657C36.6771 31.6192 37.1369 31.8598 37.5942 32.1029C37.6526 32.1339 37.711 32.1805 37.7542 32.2322C38.2978 32.8866 38.8084 33.5721 39.3876 34.1903C40.6832 35.5715 40.7035 37.0873 39.3876 38.4426C38.8364 39.0091 38.2902 39.5807 37.7263 40.1317C36.4892 41.3448 34.9091 41.3293 33.6923 40.1032C33.2833 39.692 32.8743 39.2807 32.4755 38.8617C32.069 38.4349 31.6143 38.3055 31.0605 38.5435C29.8615 39.0557 28.66 39.56 27.4559 40.0618C26.9224 40.2817 26.6836 40.68 26.6811 41.2569C26.676 41.9992 26.6811 42.7441 26.6328 43.4865C26.5465 44.8703 25.5964 45.8713 24.2272 45.9515C23.1526 46.0136 22.0705 46.0214 20.9985 45.9541C19.5988 45.8662 18.6131 44.7384 18.5953 43.308C18.5852 42.4777 18.5953 41.6474 18.5953 40.7835H18.5928Z" fill="#454545"/>
<path d="M22.6238 20.2158C24.0794 20.221 25.3546 21.5143 25.3648 22.9938C25.3775 24.4837 24.0692 25.8339 22.6136 25.8365C21.1657 25.8391 19.8574 24.5251 19.8574 23.0688C19.8574 21.5014 21.1098 20.2107 22.6238 20.2158ZM22.6086 21.9307C22.0497 21.9463 21.5239 22.4791 21.5366 23.0171C21.5493 23.6405 22.0497 24.1216 22.6517 24.0957C23.2436 24.0673 23.7212 23.5681 23.6958 23.0016C23.6704 22.4248 23.1547 21.9178 22.6111 21.9307H22.6086Z" fill="#454545"/>
</g>
<defs>
<clipPath id="clip0_38_371">
<rect width="48" height="46" fill="white"/>
</clipPath>
</defs>
</svg>
