<svg width="46" height="46" viewBox="0 0 46 46" fill="none" xmlns="http://www.w3.org/2000/svg">
<g clip-path="url(#clip0_38_472)">
<path fill-rule="evenodd" clip-rule="evenodd" d="M22.8123 4.18279C12.5041 4.18279 4.14769 12.608 4.14769 23.001C4.14769 33.394 12.5041 41.8192 22.8123 41.8192C33.1205 41.8192 41.4769 33.394 41.4769 23.001C41.4769 12.608 33.1205 4.18279 22.8123 4.18279ZM0 23.001C0 10.2984 10.2134 0.000976562 22.8123 0.000976562C35.4112 0.000976562 45.6246 10.2984 45.6246 23.001C45.6246 35.7035 35.4112 46.001 22.8123 46.001C10.2134 46.001 0 35.7035 0 23.001Z" fill="#565656"/>
<path fill-rule="evenodd" clip-rule="evenodd" d="M22.8126 0.000976562C23.3802 0.000976562 23.9229 0.235503 24.3143 0.649879C30.0067 6.67608 33.1818 14.6791 33.1818 23.001C33.1818 31.3229 30.0067 39.3259 24.3143 45.3521C23.9229 45.7665 23.3802 46.001 22.8126 46.001C22.245 46.001 21.7023 45.7665 21.3108 45.3521C15.6184 39.3259 12.4434 31.3229 12.4434 23.001C12.4434 14.6791 15.6184 6.67608 21.3108 0.649879C21.7023 0.235503 22.245 0.000976562 22.8126 0.000976562ZM22.8126 5.25893C18.8014 10.2631 16.5911 16.521 16.5911 23.001C16.5911 29.4809 18.8014 35.7389 22.8126 40.743C26.8238 35.7389 29.0341 29.4809 29.0341 23.001C29.0341 16.521 26.8238 10.2631 22.8126 5.25893Z" fill="#565656"/>
<path fill-rule="evenodd" clip-rule="evenodd" d="M0 23.0011C0 21.8463 0.928492 20.9102 2.07385 20.9102H43.5508C44.6961 20.9102 45.6246 21.8463 45.6246 23.0011C45.6246 24.1558 44.6961 25.092 43.5508 25.092H2.07385C0.928492 25.092 0 24.1558 0 23.0011Z" fill="#565656"/>
</g>
<defs>
<clipPath id="clip0_38_472">
<rect width="46" height="46" fill="white"/>
</clipPath>
</defs>
</svg>
