<svg width="64" height="48" viewBox="0 0 64 48" fill="none" xmlns="http://www.w3.org/2000/svg">
<path fill-rule="evenodd" clip-rule="evenodd" d="M17.6812 0.507042C17.8442 0.931268 18.8521 1.01408 23.8523 1.01408C30.8226 1.01408 31.3323 1.17769 31.3323 3.41442V4.76214L21.7279 4.66276C12.8376 4.57082 12.0708 4.51538 11.4123 3.91944C10.7109 3.28428 10.701 3.2853 10.701 3.98468C10.701 5.62141 11.4867 5.74648 21.7685 5.74648C27.0284 5.74648 31.3323 5.87594 31.3323 6.03448C31.3323 6.79707 29.6246 8.70794 28.2751 9.456C26.8255 10.2595 26.4606 10.2994 18.9874 10.4735L11.2084 10.6546L9.3563 11.6654C7.8252 12.501 7.33444 13.0083 6.52644 14.592L5.54934 16.5076L5.42115 24.5216C5.35047 28.9291 5.13367 33.1268 4.93886 33.8495C4.45757 35.6359 2.85003 37.3731 1.13189 37.9633C-0.281853 38.4487 -0.284897 38.4534 0.645537 38.7008C2.53786 39.2038 4.38147 37.8439 5.68767 34.9819C6.40536 33.409 6.46895 32.7161 6.63434 24.6761C6.79668 16.7726 6.8694 15.958 7.50626 14.8743C9.13714 12.0997 11.3714 11.493 19.9584 11.493C27.1363 11.493 28.6242 11.1573 30.7157 9.06693L32.032 7.75132L33.1573 8.94389C35.1754 11.0826 36.0436 11.2786 44.5227 11.5143C52.6673 11.7407 53.5683 11.9168 55.4373 13.6479C57.0266 15.1203 57.1551 15.8728 57.3773 25.0141C57.5653 32.7417 57.6594 33.7934 58.2874 35.1766C59.4357 37.7053 61.742 39.2505 63.523 38.6846C64.2492 38.4541 64.2076 38.4003 62.9704 37.9717C61.2231 37.3666 60.151 36.3505 59.2848 34.4789C58.6483 33.1034 58.5638 32.1323 58.4007 24.338C58.2211 15.7501 58.2171 15.7126 57.3157 14.1803C56.6802 13.0999 55.8746 12.3461 54.61 11.6481L52.809 10.654L45.03 10.4731C37.5568 10.2994 37.1919 10.2595 35.7423 9.456C34.3928 8.70794 32.6851 6.79707 32.6851 6.03448C32.6851 5.87594 36.9889 5.74648 42.2489 5.74648C52.5668 5.74648 53.3228 5.62377 53.3112 3.95256C53.3079 3.48845 53.2105 3.36135 53.0505 3.61251C52.4502 4.55662 50.6836 4.73239 41.795 4.73239H32.6851V3.43268C32.6851 1.1378 33.0609 1.01408 40.0319 1.01408C45.1504 1.01408 46.1729 0.931944 46.3362 0.507042C46.5074 0.0611831 44.7784 0 32.0087 0C19.239 0 17.51 0.0611831 17.6812 0.507042ZM12.3972 15.1268C12.4104 15.7737 13.0036 16.1797 14.0863 16.2825C15.0042 16.3694 15.267 16.5448 15.267 17.0704C15.267 17.6708 15.0079 17.7576 12.9539 17.8472C11.0383 17.9304 10.6753 18.0368 10.8401 18.4661C10.9496 18.7514 11.0393 19.0486 11.0393 19.1263C11.0393 19.2041 11.5233 19.2676 12.1151 19.2676H13.1907L11.3541 20.6349C9.26701 22.1885 8.96769 22.6479 10.0425 22.6479C10.4724 22.6479 12.8349 21.1085 15.567 19.0489C18.1922 17.0697 20.4941 15.4472 20.6825 15.4435C20.8705 15.4398 23.1748 17.0708 25.8028 19.0682C29.6838 22.0181 30.7607 22.6793 31.5379 22.5894C32.4585 22.4829 32.4125 22.4177 30.3281 20.8732C28.1994 19.2957 28.1801 19.2676 29.2394 19.2676C29.8326 19.2676 30.3176 19.2041 30.3176 19.1263C30.3176 19.0486 30.4072 18.7514 30.5168 18.4661C30.6815 18.0368 30.3186 17.9304 28.403 17.8472C26.349 17.7576 26.0899 17.6708 26.0899 17.0704C26.0899 16.5448 26.3527 16.3694 27.2706 16.2825C28.3532 16.1797 28.9465 15.7737 28.9597 15.1268C28.9624 14.9875 25.2359 14.8732 20.6784 14.8732C16.121 14.8732 12.3945 14.9875 12.3972 15.1268ZM34.7929 15.5493C35.1663 16.1469 35.5816 16.2254 38.3692 16.2254C42.0547 16.2254 42.8316 16.5218 42.8316 17.9273V18.9296H38.7368C35.1419 18.9296 34.6671 18.9948 34.8473 19.4643C34.9603 19.7584 35.0526 20.0626 35.0526 20.1404C35.0526 20.2181 36.2827 20.2817 37.7864 20.2817C39.8201 20.2817 40.4857 20.3899 40.3853 20.7042C40.3112 20.9368 38.4054 22.5718 36.1501 24.338C33.0622 26.7563 32.1906 27.6013 32.6212 27.7602C33.3805 28.0408 34.0065 27.6832 37.4127 25.0225C38.9979 23.784 40.8659 22.3447 41.5633 21.8241L42.8316 20.8776V23.7908V26.7042H39.1112H35.3909V31.7746V36.8451H43.6772H51.9635V31.7223C51.9635 26.8753 51.9953 26.6268 52.5553 27.1075C53.3633 27.8011 54.1443 28.0425 54.6229 27.747C54.8741 27.5916 53.5135 26.3442 50.9562 24.3854C48.72 22.6726 46.8902 21.0483 46.8902 20.7762C46.8902 20.3865 47.4243 20.2817 49.415 20.2817C51.5934 20.2817 51.9892 20.1891 52.3017 19.6056C52.6548 18.9461 52.5587 18.9296 48.424 18.9296C44.2021 18.9296 44.1845 18.9262 44.1845 18.1369C44.1845 16.6212 45.1159 16.2254 48.6807 16.2254C51.5935 16.2254 51.978 16.1537 52.3017 15.5493C52.6595 14.881 52.5587 14.8732 43.5172 14.8732C34.455 14.8732 34.3745 14.8797 34.7929 15.5493ZM13.745 21.0906C13.745 21.6781 14.4803 21.9718 15.9519 21.9718C17.2188 21.9718 18.1418 22.9298 18.1418 24.2444C18.1418 24.9914 18.0468 25.0141 14.9288 25.0141H11.7157V27.7183V30.4225H14.3974C17.7721 30.4225 18.1418 30.7254 18.1418 33.4888V35.493H15.0979C13.4237 35.493 12.0539 35.6146 12.0539 35.7634C12.0539 36.5699 13.0604 36.8451 16.011 36.8451H19.1565V32.9577V29.0704H16.1125H13.0686V27.7183V26.3662H16.1125H19.1565V23.493V20.6197H16.4507C14.3636 20.6197 13.745 20.7272 13.745 21.0906ZM21.1858 22.9183C21.1858 24.2556 21.016 25.3866 20.7799 25.6225C20.4643 25.9379 20.5242 26.0282 21.0505 26.0282C22.1196 26.0282 22.5386 25.3426 22.5386 23.5944V21.9718H24.3988H26.259V24C26.259 25.9518 26.2918 26.0282 27.1269 26.0282C28.1317 26.0282 29.303 25.4758 29.303 25.0023C29.303 24.8228 28.9225 24.6761 28.4574 24.6761C27.6494 24.6761 27.6119 24.5858 27.6119 22.6479V20.6197H24.3988H21.1858V22.9183ZM47.9049 23.6113C52.3162 26.9777 52.3098 26.7042 47.9772 26.7042H44.1845V23.811C44.1845 21.5885 44.2826 20.9757 44.6073 21.1677C44.8399 21.3049 46.3237 22.4048 47.9049 23.6113ZM21.8622 27.8873C22.1324 28.2128 22.8816 28.3944 23.9551 28.3944C25.9083 28.3944 26.9354 28.847 26.9354 29.7079C26.9354 30.672 26.2289 32.4507 25.846 32.4507C25.6553 32.4507 24.5162 31.7493 23.3142 30.8924C21.3102 29.4629 21.1384 29.399 21.2419 30.1193C21.3075 30.576 21.9522 31.3345 22.7818 31.9312C24.7272 33.3306 24.6718 34.4366 22.6201 35.1455C21.8277 35.4193 21.2348 35.7995 21.3024 35.9905C21.5402 36.6639 23.8485 36.2823 25.0421 35.3719L26.2103 34.4816L27.1648 35.2749C28.6242 36.4884 29.5867 36.9093 30.1637 36.5865C30.6423 36.3188 29.9469 35.6593 27.203 33.7781C27.0474 33.6717 27.231 32.883 27.6105 32.0255C27.99 31.1679 28.4304 29.7722 28.589 28.9234L28.8775 27.3803H25.1591C21.8926 27.3803 21.4922 27.4418 21.8622 27.8873ZM49.9565 28.4062C50.41 28.6489 50.6106 29.1154 50.6106 29.9273V31.0986H43.508H36.4055V30.1957C36.4055 29.6992 36.6575 29.0146 36.9652 28.6746C37.4668 28.1206 38.1382 28.0563 43.4137 28.0563C46.8259 28.0563 49.5773 28.2034 49.9565 28.4062ZM50.6106 33.9718V35.493H43.508H36.4055V33.9718V32.4507H43.508H50.6106V33.9718ZM43.5189 42C43.5107 42.4486 43.2223 42.5915 42.3243 42.5915H41.1405L41.1355 44.5352C41.1324 45.6041 40.9904 46.6999 40.8196 46.9697C40.6484 47.2398 40.5963 47.6025 40.7036 47.7759C41.0732 48.3732 41.7929 46.4758 41.8051 44.8732L41.817 43.2676H44.1845C45.5373 43.2676 46.552 43.1226 46.552 42.9296C46.552 42.7437 46.0741 42.5915 45.49 42.5915C44.8755 42.5915 44.2389 42.3424 43.9788 42C43.551 41.4365 43.529 41.4365 43.5189 42ZM18.0458 42.8971C17.3348 44.1002 17.3254 44.2817 17.9754 44.2817C18.3972 44.2817 18.4141 44.3966 18.0728 44.9425C17.533 45.8062 17.8357 46.0628 19.032 45.7558C19.9705 45.5148 19.9766 45.5003 19.2119 45.3147L18.4222 45.1224L19.1642 44.1793L19.9066 43.2362L18.9397 43.4714C17.9977 43.7006 17.9879 43.6895 18.5646 43.0381C19.1998 42.3201 19.3175 41.9155 18.8913 41.9155C18.7452 41.9155 18.3647 42.3573 18.0458 42.8971ZM21.2703 42.1599L20.1711 42.2964V45.1602C20.1711 47.9189 20.1958 48.0105 20.8475 47.662C21.2196 47.4629 21.524 47.1445 21.524 46.9541C21.524 46.7638 21.3718 46.702 21.1858 46.8169C20.9845 46.9413 20.8475 46.5387 20.8475 45.8228C20.8475 44.1417 21.712 44.2215 21.985 45.9279C22.2336 47.4811 23.0899 48.4043 23.5739 47.6403C24.0362 46.9099 23.9534 46.5519 23.3733 46.7743C23.027 46.9072 22.7466 46.6874 22.5278 46.1124C22.0567 44.8739 22.1162 44.6197 22.8768 44.6197C23.2489 44.6197 23.5533 44.4676 23.5533 44.2817C23.5533 44.0958 23.2665 43.9437 22.9164 43.9437C22.5637 43.9437 22.2004 43.6418 22.1023 43.2676C21.9697 42.7609 22.0922 42.5915 22.5904 42.5915C22.956 42.5915 23.1609 42.4394 23.0459 42.2535C22.931 42.0676 22.7317 41.9398 22.6032 41.9696C22.4747 41.9993 21.8747 42.0852 21.2703 42.1599ZM30.6521 43.4407L29.1531 44.9669L30.5811 46.3944L32.0094 47.8215L33.5357 46.2957L35.0624 44.7701L33.6068 43.342L32.1507 41.9141L30.6521 43.4407ZM34.3762 44.7887C34.3762 44.9946 33.8408 45.6818 33.186 46.3159L31.9958 47.469L30.7448 46.2186L29.4937 44.9682L30.8199 43.611L32.1457 42.2539L33.2611 43.3339C33.8743 43.9281 34.3762 44.5829 34.3762 44.7887ZM21.8023 43.3802C21.8673 43.7138 21.6948 43.9437 21.3796 43.9437C21.066 43.9437 20.8475 43.6546 20.8475 43.2396C20.8475 42.4158 21.638 42.5321 21.8023 43.3802ZM43.8463 44.258C43.8463 44.666 43.5611 44.9655 43.0853 45.0571L42.3243 45.2038L43.0853 45.2498C43.6951 45.2866 43.8463 45.4972 43.8463 46.3099C43.8463 47.1661 43.7147 47.3239 43.0007 47.3239C42.5357 47.3239 42.1552 47.4761 42.1552 47.662C42.1552 47.8526 43.1133 48 44.3536 48C45.5938 48 46.552 47.8526 46.552 47.662C46.552 47.4761 46.0954 47.3239 45.5373 47.3239C44.6353 47.3239 44.5227 47.2114 44.5227 46.3099C44.5227 45.4401 44.6549 45.2894 45.4528 45.2498C46.3068 45.2075 46.3173 45.1913 45.5827 45.0521C45.1426 44.9686 44.7063 44.6092 44.6133 44.253C44.3932 43.4116 43.8463 43.4153 43.8463 44.258ZM18.5155 47.0146C18.0698 47.1928 17.7826 47.4155 17.8767 47.5095C18.0742 47.7069 19.8329 47.0917 19.8329 46.8253C19.8329 46.5813 19.4683 46.6337 18.5155 47.0146Z" fill="#454545"/>
</svg>
