<svg width="39" height="46" viewBox="0 0 39 46" fill="none" xmlns="http://www.w3.org/2000/svg">
<g clip-path="url(#clip0_38_398)">
<path d="M16.0401 13.7196C8.95704 13.76 0.625833 13.7801 -0.000976562 13.6775V9.95159C-0.000976562 6.0104 2.78848 2.81543 6.22945 2.81543H22.226V6.59109C22.226 10.5128 19.464 13.7001 16.0401 13.7196Z" fill="#454545"/>
<path d="M16.0401 44.3876C8.95704 44.428 0.625833 44.4481 -0.000976562 44.3455V40.6196C-0.000976562 36.6784 2.78848 33.4834 6.22945 33.4834H22.226V37.2591C22.226 41.1808 19.464 44.3681 16.0401 44.3876Z" fill="#454545"/>
<path d="M6.19625 29.0546C13.2793 29.095 21.6105 29.1151 22.2373 29.0125V25.2865C22.2373 21.3454 19.4478 18.1504 16.0069 18.1504H0.0103283V21.926C0.0103283 25.8478 2.77233 29.0351 6.19625 29.0546Z" fill="#454545"/>
<path d="M26.4438 18.1508C26.3932 26.4992 26.3224 43.441 26.4438 44.4219H30.3363C33.5479 44.4219 36.1514 41.4399 36.1514 37.7615V24.8113C36.1514 21.1328 33.5479 18.1508 30.3363 18.1508L26.4438 18.1508Z" fill="#454545"/>
<path d="M36.1487 8.15346C36.1487 11.245 33.9605 13.7513 31.2613 13.7513C28.5621 13.7513 26.374 11.245 26.374 8.15346C26.374 5.06188 28.5621 2.55566 31.2613 2.55566C33.9605 2.55566 36.1487 5.06188 36.1487 8.15346Z" fill="#454545"/>
</g>
<defs>
<clipPath id="clip0_38_398">
<rect width="39" height="46" fill="white"/>
</clipPath>
</defs>
</svg>
