<svg width="33" height="18" viewBox="0 0 33 18" fill="none" xmlns="http://www.w3.org/2000/svg">
<path d="M27.5 3.60001V14.4H3.66666V3.60001H27.5ZM29.3333 11.7H31.1667V6.30001H29.3333V2.25001C29.3333 2.11876 29.2904 2.01094 29.2044 1.92657C29.1185 1.84219 29.0087 1.80001 28.875 1.80001H2.29166C2.15799 1.80001 2.04819 1.84219 1.96225 1.92657C1.87631 2.01094 1.83334 2.11876 1.83334 2.25001V15.75C1.83334 15.8812 1.87631 15.9891 1.96225 16.0734C2.04819 16.1578 2.15799 16.2 2.29166 16.2H28.875C29.0087 16.2 29.1185 16.1578 29.2044 16.0734C29.2904 15.9891 29.3333 15.8812 29.3333 15.75V11.7ZM33 6.30001V11.7C33 12.1969 32.821 12.6211 32.4629 12.9726C32.1048 13.3242 31.6727 13.5 31.1667 13.5V15.75C31.1667 16.3688 30.9423 16.8984 30.4935 17.3391C30.0447 17.7797 29.5052 18 28.875 18H2.29166C1.66145 18 1.12196 17.7797 0.673185 17.3391C0.224395 16.8984 0 16.3688 0 15.75V2.25001C0 1.63126 0.224395 1.10158 0.673185 0.660945C1.12196 0.220315 1.66145 0 2.29166 0H28.875C29.5052 0 30.0447 0.220315 30.4935 0.660945C30.9423 1.10158 31.1667 1.63126 31.1667 2.25001V4.5C31.6727 4.5 32.1048 4.67578 32.4629 5.02735C32.821 5.37892 33 5.80313 33 6.30001Z" fill="white"/>
</svg>
