<svg width="148" height="148" viewBox="0 0 148 148" fill="none" xmlns="http://www.w3.org/2000/svg">
<circle cx="74" cy="74" r="74" fill="#95ACFF"/>
<path d="M54 121H96M54 61H96M90 121V108.484C89.9997 106.893 89.3673 105.367 88.242 104.242L75 91M75 91L61.758 104.242C60.6327 105.367 60.0003 106.893 60 108.484V121M75 91L61.758 77.758C60.6327 76.633 60.0003 75.1072 60 73.516V61M75 91L88.242 77.758C89.3673 76.633 89.9997 75.1072 90 73.516V61" stroke="white" stroke-width="4" stroke-linecap="round" stroke-linejoin="round"/>
<path d="M47.21 42.0068L60.213 53.0086" stroke="white" stroke-width="3" stroke-linecap="round"/>
<path d="M74.124 27.4277L73.6083 48.2053" stroke="white" stroke-width="3" stroke-linecap="round"/>
<path d="M103.192 40.4824L89.8435 53.1975" stroke="white" stroke-width="3" stroke-linecap="round"/>
</svg>
