<svg width="150" height="205" viewBox="0 0 150 205" fill="none" xmlns="http://www.w3.org/2000/svg">
<path d="M71.6084 94.4194L70.1088 94.454L71.6084 94.4194ZM61.1855 125.43L61.1562 123.93L61.1562 123.93L61.1855 125.43ZM16.5726 1.69614C16.2881 0.918094 15.4268 0.517957 14.6487 0.802421L1.96957 5.43804C1.19151 5.7225 0.791372 6.58384 1.07584 7.3619C1.3603 8.13995 2.22164 8.54008 2.9997 8.25562L14.2701 4.13507L18.3906 15.4054C18.6751 16.1835 19.5364 16.5836 20.3145 16.2992C21.0925 16.0147 21.4927 15.1534 21.2082 14.3753L16.5726 1.69614ZM149.947 201.495C148.779 201.16 147.551 200.77 146.272 200.324L145.283 203.156C146.613 203.62 147.894 204.027 149.12 204.379L149.947 201.495ZM139.034 197.412C136.784 196.393 134.447 195.229 132.051 193.917L130.61 196.548C133.071 197.896 135.477 199.094 137.796 200.145L139.034 197.412ZM125.324 189.915C123.194 188.545 121.042 187.061 118.888 185.46L117.098 187.867C119.307 189.51 121.515 191.032 123.702 192.438L125.324 189.915ZM112.769 180.582C110.826 178.922 108.896 177.163 106.995 175.303L104.897 177.447C106.847 179.356 108.827 181.161 110.821 182.863L112.769 180.582ZM101.595 169.641C99.8889 167.723 98.2197 165.715 96.5994 163.615L94.2242 165.448C95.8882 167.605 97.6023 169.666 99.3542 171.635L101.595 169.641ZM92.0451 157.259C90.626 155.123 89.2597 152.903 87.9561 150.599L85.3451 152.077C86.6845 154.444 88.0882 156.724 89.546 158.919L92.0451 157.259ZM84.3451 143.65C83.2466 141.337 82.2109 138.949 81.2462 136.484L78.4525 137.577C79.4431 140.109 80.5068 142.562 81.6354 144.937L84.3451 143.65ZM78.6461 129.09C77.8818 126.65 77.1858 124.142 76.5647 121.564L73.6481 122.266C74.285 124.91 74.9989 127.483 75.7833 129.987L78.6461 129.09ZM74.9789 113.89C74.5412 111.365 74.1738 108.778 73.8818 106.129L70.8998 106.457C71.1986 109.168 71.5747 111.816 72.023 114.403L74.9789 113.89ZM73.2545 98.3282C73.1877 97.0278 73.1387 95.7133 73.108 94.3847L70.1088 94.454C70.1401 95.8106 70.1902 97.1533 70.2584 98.4821L73.2545 98.3282ZM73.108 94.3847C73.0735 92.8927 73.0705 91.4634 73.0971 90.0951L70.0977 90.0366C70.0702 91.4499 70.0733 92.9218 70.1088 94.454L73.108 94.3847ZM73.6855 81.9206C74.0981 78.8392 74.7067 76.2123 75.4662 73.9952L72.6281 73.023C71.7937 75.4588 71.1458 78.2827 70.712 81.5224L73.6855 81.9206ZM79.2005 67.2069C81.0643 65.1303 83.2107 64.0726 85.4864 63.7807L85.1047 60.8051C82.0931 61.1913 79.297 62.6081 76.9679 65.203L79.2005 67.2069ZM92.8823 65.1182C95.1137 66.1188 97.3593 67.6167 99.4876 69.5109L101.482 67.27C99.1653 65.2079 96.6661 63.5271 94.1098 62.3808L92.8823 65.1182ZM104.868 75.5407C106.424 77.7192 107.781 80.098 108.856 82.592L111.611 81.4046C110.448 78.7071 108.984 76.1427 107.31 73.7974L104.868 75.5407ZM111.147 90.3029C111.58 92.955 111.644 95.6258 111.264 98.2351L114.232 98.6674C114.661 95.7217 114.585 92.7402 114.107 89.8191L111.147 90.3029ZM108.791 105.676C107.608 107.839 106.002 109.915 103.901 111.845L105.93 114.055C108.264 111.912 110.077 109.577 111.423 107.115L108.791 105.676ZM97.3156 116.467C95.1367 117.647 92.663 118.723 89.8671 119.669L90.8282 122.511C93.769 121.516 96.4012 120.374 98.7443 119.105L97.3156 116.467ZM81.9105 121.804C79.3814 122.331 76.66 122.77 73.7356 123.112L74.084 126.092C77.0892 125.74 79.8986 125.287 82.5215 124.742L81.9105 121.804ZM65.4681 123.784C64.0691 123.852 62.6321 123.901 61.1562 123.93L61.2147 126.929C62.7188 126.9 64.1851 126.85 65.6142 126.78L65.4681 123.784ZM61.1562 123.93C59.9392 123.954 58.7023 123.91 57.45 123.799L57.186 126.788C58.5416 126.907 59.8862 126.955 61.2147 126.929L61.1562 123.93ZM50.1153 122.432C47.7745 121.773 45.4165 120.9 43.0707 119.82L41.8156 122.545C44.2973 123.688 46.8028 124.616 49.3023 125.32L50.1153 122.432ZM36.4562 116.191C34.381 114.863 32.3404 113.371 30.3561 111.721L28.4375 114.027C30.5158 115.756 32.6571 117.322 34.8394 118.718L36.4562 116.191ZM24.8271 106.543C23.1168 104.746 21.4729 102.819 19.9122 100.766L17.5241 102.582C19.1515 104.722 20.8672 106.734 22.6539 108.611L24.8271 106.543ZM15.6458 94.4818C14.3596 92.3527 13.1597 90.1189 12.0597 87.7837L9.34575 89.0622C10.4899 91.491 11.7386 93.8159 13.078 96.033L15.6458 94.4818ZM9.17246 80.7602C8.34081 78.4119 7.60675 75.9789 6.9813 73.4639L4.06997 74.1879C4.71875 76.7967 5.48066 79.3223 6.34457 81.7617L9.17246 80.7602ZM5.49243 66.0121C5.11652 63.5478 4.84212 61.0156 4.67799 58.4176L1.68396 58.6068C1.85362 61.2924 2.13743 63.9124 2.52674 66.4645L5.49243 66.0121ZM4.51681 50.813C4.5662 48.3248 4.71479 45.783 4.96934 43.1895L1.98368 42.8965C1.7216 45.5667 1.56836 48.1863 1.5174 50.7535L4.51681 50.813ZM5.99832 35.5962C6.42066 33.1452 6.93629 30.6524 7.55036 28.1192L4.6348 27.4124C4.00515 30.0099 3.47582 32.5685 3.04189 35.0867L5.99832 35.5962ZM9.58516 20.7463C10.3225 18.3618 11.1462 15.9444 12.0602 13.4952L9.24947 12.4464C8.31587 14.9482 7.47364 17.4198 6.71906 19.86L9.58516 20.7463ZM14.9333 6.38211C15.4429 5.20919 15.9731 4.0295 16.5242 2.84318L13.8034 1.57925C13.2419 2.78804 12.7015 3.99055 12.1818 5.18665L14.9333 6.38211Z" fill="black"/>
</svg>
