<svg width="234" height="104" viewBox="0 0 234 104" fill="none" xmlns="http://www.w3.org/2000/svg">
<path d="M106.256 44.8542L105.856 46.3L106.256 44.8542ZM132.94 63.7801L131.496 63.3754L131.496 63.3754L132.94 63.7801ZM1.5973 70.8C0.770272 70.8479 0.138658 71.5572 0.186564 72.3843L0.96725 85.8617C1.01516 86.6887 1.72444 87.3203 2.55148 87.2724C3.37851 87.2245 4.01013 86.5152 3.96222 85.6882L3.26828 73.7083L15.2482 73.0143C16.0752 72.9664 16.7069 72.2571 16.659 71.4301C16.611 70.6031 15.9018 69.9714 15.0747 70.0193L1.5973 70.8ZM231.379 0.736479C230.721 1.75877 229.993 2.82196 229.197 3.91801L231.624 5.68145C232.451 4.54236 233.211 3.43278 233.901 2.36071L231.379 0.736479ZM224.321 10.0079C222.696 11.8677 220.908 13.7704 218.96 15.6853L221.063 17.8247C223.064 15.8571 224.905 13.8992 226.58 11.982L224.321 10.0079ZM213.187 20.9716C211.261 22.6166 209.219 24.2489 207.065 25.849L208.854 28.2574C211.064 26.616 213.158 24.9413 215.136 23.2531L213.187 20.9716ZM200.629 30.3005C198.479 31.6828 196.239 33.0229 193.909 34.3061L195.356 36.9338C197.747 35.617 200.046 34.242 202.252 32.824L200.629 30.3005ZM186.93 37.843C184.601 38.9236 182.197 39.9426 179.719 40.8881L180.788 43.691C183.334 42.7199 185.802 41.6736 188.193 40.5642L186.93 37.843ZM172.32 43.4152C169.864 44.1576 167.345 44.8254 164.763 45.409L165.424 48.3352C168.077 47.7356 170.665 47.0494 173.188 46.2868L172.32 43.4152ZM157.067 46.8615C154.536 47.2462 151.951 47.5489 149.312 47.7613L149.553 50.7517C152.263 50.5335 154.918 50.2227 157.518 49.8274L157.067 46.8615ZM141.482 48.1178C138.926 48.1457 136.323 48.0885 133.676 47.9395L133.507 50.9347C136.222 51.0875 138.891 51.1463 141.515 51.1176L141.482 48.1178ZM125.871 47.2441C123.327 46.9346 120.744 46.5402 118.123 46.0554L117.577 49.0054C120.259 49.5013 122.903 49.9052 125.509 50.2221L125.871 47.2441ZM110.473 44.4057C109.209 44.0945 107.936 43.7622 106.655 43.4083L105.856 46.3C107.164 46.6613 108.464 47.0007 109.756 47.3188L110.473 44.4057ZM106.655 43.4083C105.216 43.0109 103.847 42.6014 102.545 42.1811L101.623 45.0362C102.969 45.4703 104.379 45.8919 105.856 46.3L106.655 43.4083ZM94.8874 39.2595C92.0561 37.9755 89.7164 36.6349 87.8127 35.2681L86.0631 37.7051C88.1546 39.2067 90.6715 40.6417 93.6484 41.9917L94.8874 39.2595ZM82.3903 29.7342C80.9397 27.3506 80.5462 24.9903 80.9232 22.7272L77.964 22.2342C77.465 25.2291 78.0149 28.3151 79.8276 31.2938L82.3903 29.7342ZM84.3376 16.0316C85.9394 14.1837 88.0213 12.4657 90.4491 10.9744L88.8788 8.41817C86.2361 10.0416 83.9057 11.9497 82.0707 14.0666L84.3376 16.0316ZM97.7747 7.56191C100.309 6.70105 102.978 6.08824 105.677 5.77853L105.334 2.7981C102.416 3.13308 99.5387 3.7945 96.81 4.72127L97.7747 7.56191ZM113.721 5.80933C116.385 6.1595 118.96 6.86923 121.349 7.98585L122.62 5.26811C119.923 4.00753 117.046 3.2206 114.111 2.83491L113.721 5.80933ZM127.76 12.4998C129.49 14.2562 131.015 16.393 132.256 18.9617L134.957 17.6565C133.579 14.8034 131.867 12.3938 129.898 10.3947L127.76 12.4998ZM134.782 26.6006C135.284 29.0273 135.6 31.7063 135.699 34.656L138.697 34.5557C138.594 31.4529 138.26 28.6033 137.72 25.9936L134.782 26.6006ZM135.448 42.8904C135.222 45.4638 134.858 48.1962 134.342 51.0949L137.295 51.6209C137.826 48.6421 138.203 45.8215 138.437 43.1527L135.448 42.8904ZM132.6 59.2048C132.262 60.564 131.894 61.954 131.496 63.3754L134.385 64.1848C134.791 62.7361 135.166 61.3178 135.511 59.9294L132.6 59.2048ZM131.496 63.3754C131.168 64.5475 130.769 65.7193 130.302 66.8864L133.087 68.0012C133.592 66.7379 134.026 65.4642 134.385 64.1848L131.496 63.3754ZM126.877 73.5148C125.57 75.566 124.054 77.5719 122.343 79.5063L124.59 81.4941C126.4 79.4477 128.012 77.3165 129.407 75.1264L126.877 73.5148ZM116.961 84.7926C115.09 86.3966 113.073 87.9201 110.92 89.3437L112.575 91.8461C114.83 90.355 116.947 88.7564 118.914 87.0698L116.961 84.7926ZM104.368 93.1439C102.154 94.263 99.8342 95.2812 97.4185 96.1832L98.468 98.9937C100.987 98.053 103.408 96.9905 105.721 95.8214L104.368 93.1439ZM90.1706 98.4553C87.761 99.0726 85.2759 99.577 82.7227 99.9566L83.1639 102.924C85.8195 102.529 88.4057 102.004 90.9151 101.361L90.1706 98.4553ZM75.1649 100.695C72.6765 100.814 70.1352 100.815 67.5466 100.688L67.4 103.684C70.085 103.816 72.7231 103.815 75.308 103.691L75.1649 100.695ZM59.9822 99.9637C57.5142 99.6127 55.0105 99.1449 52.4756 98.5526L51.793 101.474C54.4133 102.086 57.0039 102.57 59.5598 102.934L59.9822 99.9637ZM45.1478 96.513C42.7796 95.7479 40.3888 94.8724 37.979 93.8804L36.8371 96.6546C39.3182 97.6759 41.7823 98.5784 44.2255 99.3677L45.1478 96.513ZM31.0054 90.7046C28.7805 89.5931 26.5424 88.3803 24.294 87.0615L22.7762 89.6492C25.0817 91.0014 27.3787 92.2464 29.6647 93.3883L31.0054 90.7046ZM17.8217 82.9862C15.7513 81.5923 13.6743 80.1062 11.5929 78.5245L9.7778 80.9131C11.904 82.5288 14.0275 84.0483 16.1463 85.4747L17.8217 82.9862ZM5.61111 73.7215C4.63508 72.8952 3.65849 72.0472 2.6816 71.1773L0.686495 73.4177C1.68189 74.3041 2.67737 75.1685 3.67269 76.0111L5.61111 73.7215Z" fill="black"/>
</svg>
