<svg width="92" height="241" viewBox="0 0 92 241" fill="none" xmlns="http://www.w3.org/2000/svg">
<path d="M42.758 128.295L43.9886 129.872L42.758 128.295ZM73.8595 118.148L72.2784 119.373L72.2784 119.373L73.8595 118.148ZM0.796638 227.523C0.190702 228.446 0.448151 229.686 1.37168 230.292L16.4215 240.167C17.345 240.773 18.5849 240.515 19.1908 239.592C19.7968 238.668 19.5393 237.428 18.6158 236.822L5.23819 228.045L14.0154 214.667C14.6214 213.744 14.3639 212.504 13.4404 211.898C12.5169 211.292 11.277 211.55 10.671 212.473L0.796638 227.523ZM81.4394 1.70524C81.8645 2.83392 82.2814 4.04303 82.6842 5.3273L86.5009 4.13024C86.0769 2.77828 85.6357 1.49809 85.1828 0.295555L81.4394 1.70524ZM84.657 12.8283C85.179 15.2294 85.6388 17.7871 86.0136 20.48L89.9754 19.9285C89.5867 17.1362 89.1093 14.479 88.5657 11.9786L84.657 12.8283ZM86.8145 28.2309C86.9864 30.7473 87.0798 33.3483 87.0807 36.0202L91.0807 36.0189C91.0798 33.2546 90.9831 30.5631 90.8052 27.9583L86.8145 28.2309ZM86.8206 43.8073C86.6499 46.3466 86.3915 48.9333 86.0349 51.5573L89.9985 52.0959C90.3676 49.3798 90.6349 46.7029 90.8116 44.0756L86.8206 43.8073ZM84.7212 59.2352C84.2035 61.7379 83.5916 64.2643 82.877 66.8063L86.7277 67.8888C87.4682 65.2548 88.1021 62.6375 88.6383 60.0456L84.7212 59.2352ZM80.5068 74.2204C79.6435 76.6233 78.6827 79.0332 77.6173 81.4433L81.2758 83.0606C82.3803 80.562 83.3763 78.0637 84.2712 75.5728L80.5068 74.2204ZM74.2124 88.4564C73.0183 90.7078 71.7262 92.954 70.3304 95.1895L73.7233 97.3081C75.1694 94.9921 76.5084 92.6644 77.7462 90.3306L74.2124 88.4564ZM65.9695 101.66C64.4747 103.721 62.8845 105.768 61.1939 107.796L64.2668 110.357C66.0147 108.259 67.66 106.142 69.2072 104.009L65.9695 101.66ZM56.0055 113.624C54.2478 115.475 52.3989 117.307 50.4551 119.116L53.1798 122.044C55.1837 120.18 57.0912 118.29 58.906 116.379L56.0055 113.624ZM44.593 124.256C43.5931 125.083 42.5714 125.904 41.5275 126.718L43.9886 129.872C45.062 129.034 46.113 128.189 47.142 127.338L44.593 124.256ZM41.5275 126.718C40.3562 127.633 39.217 128.484 38.1093 129.275L40.4339 132.53C41.5904 131.704 42.7751 130.819 43.9886 129.872L41.5275 126.718ZM31.2476 133.652C28.5523 135.147 26.1116 136.212 23.9162 136.915L25.135 140.724C27.6239 139.928 30.3066 138.748 33.1881 137.149L31.2476 133.652ZM16.439 137.949C13.776 137.703 11.7589 136.664 10.2522 135.101L7.37275 137.878C9.56607 140.152 12.4844 141.601 16.0722 141.932L16.439 137.949ZM7.03899 128.608C6.52272 126.278 6.38487 123.635 6.63062 120.838L2.64598 120.488C2.37077 123.62 2.51476 126.68 3.13374 129.473L7.03899 128.608ZM8.23456 113.031C9.04352 110.516 10.128 108.04 11.469 105.721L8.00613 103.719C6.51735 106.293 5.31919 109.031 4.42659 111.807L8.23456 113.031ZM16.2144 99.3774C18.0519 97.4794 20.1166 95.8669 22.3871 94.6412L20.4869 91.1214C17.8176 92.5624 15.4308 94.436 13.3405 96.5952L16.2144 99.3774ZM29.6647 92.2389C32.0497 91.9045 34.6193 91.9515 37.37 92.476L38.1192 88.5468C34.9549 87.9435 31.9444 87.8801 29.1093 88.2776L29.6647 92.2389ZM44.8925 94.9627C47.1117 95.9933 49.4269 97.3212 51.8334 98.9855L54.1087 95.6957C51.5344 93.9153 49.0225 92.4705 46.5774 91.3349L44.8925 94.9627ZM58.2484 104.057C60.1682 105.762 62.1345 107.673 64.145 109.805L67.0554 107.061C64.9704 104.85 62.9194 102.855 60.9042 101.066L58.2484 104.057ZM69.5968 116.012C70.4834 117.089 71.3773 118.209 72.2784 119.373L75.4406 116.923C74.5164 115.73 73.5981 114.579 72.686 113.471L69.5968 116.012ZM72.2784 119.373C73.0125 120.32 73.7056 121.324 74.3553 122.38L77.7621 120.284C77.04 119.11 76.2657 117.988 75.4406 116.923L72.2784 119.373ZM77.5952 128.997C78.4539 131.243 79.1539 133.631 79.682 136.133L83.5958 135.307C83.0265 132.61 82.2686 130.02 81.3314 127.569L77.5952 128.997ZM80.7092 143.538C80.8811 145.974 80.9021 148.481 80.7632 151.038L84.7573 151.255C84.905 148.535 84.8831 145.862 84.6993 143.257L80.7092 143.538ZM79.9157 158.507C79.4979 160.934 78.9371 163.385 78.2268 165.845L82.0697 166.955C82.8209 164.353 83.4148 161.758 83.8577 159.186L79.9157 158.507ZM75.7489 172.969C74.8149 175.255 73.7462 177.536 72.5373 179.797L76.0649 181.683C77.3388 179.3 78.466 176.895 79.4519 174.481L75.7489 172.969ZM68.6513 186.263C67.2726 188.319 65.7683 190.347 64.134 192.338L67.2255 194.876C68.9416 192.786 70.5228 190.654 71.9732 188.491L68.6513 186.263ZM59.0749 197.946C57.3325 199.708 55.4754 201.429 53.5002 203.102L56.0853 206.155C58.1499 204.406 60.0935 202.604 61.9191 200.758L59.0749 197.946ZM47.5278 207.745C45.5126 209.183 43.3955 210.574 41.1737 211.911L43.2364 215.338C45.5463 213.948 47.7504 212.5 49.8512 211.001L47.5278 207.745ZM34.4991 215.6C32.2907 216.719 29.9931 217.789 27.6042 218.804L29.1685 222.485C31.6385 221.436 34.0175 220.329 36.307 219.169L34.4991 215.6ZM20.5032 221.561C18.1591 222.389 15.737 223.169 13.2354 223.895L14.3503 227.736C16.9239 226.989 19.4187 226.187 21.8361 225.332L20.5032 221.561ZM5.83895 225.829C4.59781 226.119 3.33895 226.397 2.06222 226.662L2.87546 230.578C4.18452 230.306 5.47596 230.021 6.7499 229.723L5.83895 225.829Z" fill="black"/>
</svg>
