<svg width="39" height="38" viewBox="0 0 39 38" fill="none" xmlns="http://www.w3.org/2000/svg">
<path d="M1.24414 37L3.04222 35.2019M3.04222 35.2019H8.43647L24.6192 19.0192M3.04222 35.2019V29.8077L19.225 13.6249M24.6192 8.23067L30.7327 2.11719C31.448 1.40186 32.4182 1 33.4298 1C34.4414 1 35.4116 1.40186 36.127 2.11719C36.8423 2.83251 37.2441 3.80269 37.2441 4.81431C37.2441 5.82593 36.8423 6.79611 36.127 7.51144L30.0135 13.6249L30.7327 14.3442C31.0869 14.6983 31.3679 15.1188 31.5595 15.5816C31.7512 16.0444 31.8499 16.5404 31.8499 17.0413C31.8499 17.5422 31.7512 18.0382 31.5595 18.5009C31.3679 18.9637 31.0869 19.3842 30.7327 19.7384C30.3785 20.0926 29.958 20.3736 29.4953 20.5652C29.0325 20.7569 28.5365 20.8556 28.0356 20.8556C27.5347 20.8556 27.0387 20.7569 26.5759 20.5652C26.1131 20.3736 25.6926 20.0926 25.3385 19.7384L18.5057 12.9057C18.1515 12.5515 17.8706 12.131 17.6789 11.6682C17.4872 11.2055 17.3886 10.7095 17.3886 10.2086C17.3886 9.70766 17.4872 9.21166 17.6789 8.74889C17.8706 8.28611 18.1515 7.86563 18.5057 7.51144C18.8599 7.15724 19.2804 6.87628 19.7432 6.6846C20.206 6.49291 20.702 6.39425 21.2029 6.39425C21.7038 6.39425 22.1998 6.49291 22.6625 6.6846C23.1253 6.87628 23.5458 7.15724 23.9 7.51144L24.6192 8.23067Z" stroke="#101729" stroke-width="2" stroke-linecap="round" stroke-linejoin="round"/>
</svg>
