<svg width="41" height="41" viewBox="0 0 41 41" fill="none" xmlns="http://www.w3.org/2000/svg">
<path d="M16.5203 5.8326C17.5422 5.9529 18.5813 5.7723 19.5027 5.3142C19.5066 5.3211 19.5106 5.3279 19.5148 5.3347C19.6606 5.5692 19.9689 5.6411 20.2034 5.4952C20.8194 5.1122 21.3725 4.6069 21.8241 3.987C22.1526 3.5359 22.5223 3.1702 22.9173 2.8815C23.1337 2.7234 23.1859 2.4242 23.04 2.2029C23.7623 1.777 24.5516 1.5541 25.3434 1.5107C25.3452 1.7763 25.5556 1.996 25.8237 2.0066C26.8634 2.0475 27.884 2.4218 28.7037 3.0628C28.915 3.2281 29.2176 3.1965 29.3907 2.9951C29.9667 3.5401 30.4247 4.2204 30.7003 5.0123C30.4459 5.0868 30.2924 5.3489 30.3552 5.6094C30.4699 6.085 30.5155 6.603 30.4745 7.1595C30.4182 7.9244 30.5135 8.6675 30.7357 9.358C30.8203 9.6208 31.102 9.76529 31.3649 9.68069C31.3725 9.67829 31.3799 9.6756 31.3873 9.6729C31.7941 10.6181 32.47 11.4277 33.3274 11.9966C33.3234 12.0034 33.3195 12.0103 33.3158 12.0173C33.1856 12.2608 33.2775 12.5638 33.521 12.6939C34.1607 13.0359 34.8749 13.2622 35.6375 13.3433C36.1924 13.4023 36.694 13.5396 37.1415 13.7374C37.3866 13.8457 37.6718 13.7414 37.7905 13.5043C38.5206 13.9169 39.1082 14.489 39.5417 15.153C39.3126 15.2873 39.2275 15.5794 39.3524 15.8169C39.8368 16.7378 40.0229 17.8088 39.8777 18.8392C39.8402 19.1048 40.0189 19.3511 40.2798 19.4002C40.0958 20.1716 39.7357 20.9084 39.1877 21.5431C38.996 21.36 38.6922 21.358 38.4981 21.5427C38.1435 21.8799 37.7177 22.1784 37.2153 22.4211C36.5247 22.7548 35.9287 23.2088 35.4419 23.7465C35.2566 23.9512 35.2723 24.2674 35.477 24.4528C35.4829 24.4581 35.4889 24.4633 35.495 24.4683C34.8798 25.2931 34.5167 26.2833 34.4527 27.3103C34.4448 27.3102 34.4369 27.3103 34.4289 27.3106C34.1529 27.3196 33.9365 27.5507 33.9456 27.8267C33.9693 28.5516 34.1303 29.2833 34.4414 29.9843C34.6678 30.4943 34.7997 30.9973 34.8521 31.4838C34.8809 31.7502 35.1139 31.9451 35.3785 31.9294C35.3862 32.7678 35.1846 33.5628 34.8263 34.2702C34.5954 34.139 34.2999 34.2114 34.1567 34.4383C33.6013 35.3182 32.7669 36.0149 31.802 36.4043C31.5532 36.5047 31.4292 36.7826 31.5171 37.0331C30.7571 37.2594 29.9389 37.316 29.1153 37.1587C29.178 36.9011 29.0278 36.6371 28.7708 36.5613C28.3015 36.4228 27.8301 36.2033 27.3687 35.8895C26.7344 35.4583 26.0433 35.1692 25.3342 35.0165C25.0642 34.9584 24.7983 35.1301 24.7401 35.4C24.7384 35.4078 24.737 35.4156 24.7357 35.4233C23.7137 35.303 22.6746 35.4836 21.7532 35.9417C21.7494 35.9348 21.7453 35.928 21.7411 35.9212C21.5953 35.6867 21.287 35.6148 21.0525 35.7607C20.4365 36.1437 19.8834 36.649 19.4319 37.2689C19.1034 37.72 18.7337 38.0857 18.3386 38.3744C18.1223 38.5325 18.07 38.8317 18.2159 39.053C17.4936 39.4789 16.7044 39.7018 15.9126 39.7452C15.9108 39.4796 15.7003 39.2599 15.4322 39.2493C14.3925 39.2084 13.3719 38.8341 12.5523 38.1931C12.3409 38.0278 12.0383 38.0594 11.8653 38.2608C11.2892 37.7158 10.8312 37.0355 10.5556 36.2436C10.81 36.1691 10.9636 35.907 10.9007 35.6465C10.786 35.1709 10.7404 34.6529 10.7814 34.0964C10.8378 33.3315 10.7425 32.5884 10.5202 31.8979C10.4356 31.6351 10.1539 31.4906 9.89111 31.5752C9.88351 31.5777 9.876 31.5803 9.8686 31.583C9.4619 30.6378 8.7859 29.8282 7.9285 29.2593C7.9325 29.2525 7.9364 29.2456 7.9402 29.2386C8.0704 28.9951 7.9785 28.6921 7.7349 28.562C7.0952 28.22 6.3811 27.9937 5.6184 27.9126C5.0635 27.8536 4.562 27.7163 4.1144 27.5185C3.8693 27.4102 3.5841 27.5145 3.4654 27.7516C2.7354 27.339 2.1478 26.7669 1.7143 26.1029C1.9433 25.9686 2.0284 25.6765 1.9035 25.439C1.4191 24.5181 1.233 23.4471 1.3783 22.4167C1.4157 22.1511 1.237 21.9048 0.976105 21.8557C1.1601 21.0843 1.5203 20.3475 2.0683 19.7128C2.26 19.8959 2.5637 19.8979 2.7579 19.7132C3.1124 19.376 3.5383 19.0775 4.0407 18.8348C4.7313 18.5011 5.3272 18.0471 5.814 17.5094C5.9993 17.3047 5.9836 16.9885 5.7789 16.8031C5.773 16.7978 5.767 16.7926 5.7609 16.7876C6.3761 15.9628 6.7393 14.9726 6.8033 13.9456C6.8111 13.9457 6.8191 13.9456 6.827 13.9453C7.103 13.9363 7.3194 13.7052 7.3104 13.4293C7.2867 12.7043 7.1256 11.9726 6.8145 11.2716C6.5882 10.7616 6.4563 10.2586 6.4038 9.77209C6.3751 9.50569 6.1421 9.3108 5.8774 9.3265C5.8697 8.4881 6.0713 7.6931 6.4297 6.9857C6.6605 7.1169 6.9561 7.0445 7.0992 6.8176C7.6546 5.9377 8.489 5.241 9.454 4.8516C9.7028 4.7512 9.8267 4.4733 9.7388 4.2228C10.4988 3.9965 11.317 3.94 12.1406 4.0972C12.078 4.3548 12.2281 4.6188 12.4851 4.6946C12.9544 4.8331 13.4258 5.0526 13.8872 5.3664C14.5215 5.7976 15.2127 6.0867 15.9217 6.2394C16.1917 6.2975 16.4577 6.1258 16.5158 5.8559C16.5175 5.8481 16.519 5.8403 16.5203 5.8326Z" stroke="black" stroke-linecap="round" stroke-dasharray="3 3"/>
<path d="M18.7349 25.7915C21.5867 26.8374 24.7465 25.3734 25.7924 22.5216C26.8383 19.6698 25.3743 16.51 22.5225 15.4641C19.6707 14.4182 16.5109 15.8822 15.465 18.734C14.4191 21.5858 15.8831 24.7456 18.7349 25.7915Z" stroke="black" stroke-linecap="round" stroke-dasharray="3 3"/>
</svg>
