<svg width="29" height="30" viewBox="0 0 29 30" fill="none" xmlns="http://www.w3.org/2000/svg">
<path d="M28 13.6678L15.235 26.5376C13.6712 28.1142 11.5502 29 9.33868 29C7.12713 29 5.00615 28.1142 3.44234 26.5376C1.87854 24.961 1 22.8226 1 20.5928C1 18.3631 1.87854 16.2247 3.44234 14.6481L15.3461 2.64655C16.3887 1.5936 17.8034 1.00132 19.2791 1C20.7547 0.998689 22.1705 1.58845 23.2149 2.63955C24.2592 3.69065 24.8467 5.11698 24.848 6.60477C24.8493 8.09256 24.2644 9.51994 23.2218 10.5729L11.2902 22.5744C10.769 23.1 10.062 23.3952 9.32479 23.3952C8.58761 23.3952 7.88061 23.1 7.35934 22.5744C6.83808 22.0489 6.54523 21.3361 6.54523 20.5928C6.54523 19.8496 6.83808 19.1368 7.35934 18.6113L19.152 6.73576" stroke="#CBD5E0" stroke-width="2" stroke-linecap="round" stroke-linejoin="round"/>
</svg>
