<svg width="26" height="32" viewBox="0 0 26 32" fill="none" xmlns="http://www.w3.org/2000/svg">
<path d="M25 13C25 22 13 31 13 31C13 31 1 22 1 13C1 9.8174 2.26428 6.76516 4.51472 4.51472C6.76516 2.26428 9.8174 1 13 1C16.1826 1 19.2348 2.26428 21.4853 4.51472C23.7357 6.76516 25 9.8174 25 13Z" stroke="black" stroke-width="2" stroke-linecap="round" stroke-linejoin="round"/>
<path d="M13 17.5C15.4853 17.5 17.5 15.4853 17.5 13C17.5 10.5147 15.4853 8.5 13 8.5C10.5147 8.5 8.5 10.5147 8.5 13C8.5 15.4853 10.5147 17.5 13 17.5Z" stroke="black" stroke-width="2" stroke-linecap="round" stroke-linejoin="round"/>
</svg>
