<svg width="26" height="32" viewBox="0 0 26 32" fill="none" xmlns="http://www.w3.org/2000/svg">
<path d="M24.9993 23.4608V27.977C25.0006 28.3962 24.9318 28.8112 24.7971 29.1954C24.6625 29.5795 24.465 29.9243 24.2174 30.2078C23.9698 30.4912 23.6774 30.707 23.359 30.8413C23.0407 30.9756 22.7033 31.0255 22.3686 30.9878C18.6554 30.4844 15.0885 28.9015 11.9547 26.3662C9.03906 24.0549 6.56712 20.9711 4.7144 17.3338C2.67503 13.4065 1.40589 8.93512 1.00979 4.28192C0.979639 3.86563 1.0193 3.44607 1.12624 3.04994C1.23319 2.65381 1.40508 2.28981 1.63097 1.9811C1.85686 1.67239 2.1318 1.42574 2.43829 1.25685C2.74478 1.08796 3.0761 1.00054 3.41115 1.00015H7.03129C7.61692 0.992955 8.18466 1.25167 8.62869 1.72806C9.07273 2.20445 9.36276 2.86601 9.44472 3.58944C9.59752 5.03473 9.88089 6.45381 10.2894 7.81962C10.4518 8.35844 10.4869 8.94403 10.3907 9.507C10.2944 10.07 10.0708 10.5867 9.7464 10.996L8.21387 12.9079C9.9317 16.6767 12.4331 19.7973 15.4542 21.9403L16.9867 20.0284C17.3148 19.6237 17.729 19.3448 18.1803 19.2247C18.6315 19.1046 19.1009 19.1485 19.5328 19.351C20.6277 19.8607 21.7652 20.2142 22.9237 20.4048C23.5099 20.508 24.0452 20.8763 24.4279 21.4398C24.8106 22.0032 25.0139 22.7225 24.9993 23.4608Z" stroke="black" stroke-width="2" stroke-linecap="round" stroke-linejoin="round"/>
</svg>
