<svg width="480" height="480" viewBox="0 0 480 480" fill="none" xmlns="http://www.w3.org/2000/svg">
<path d="M240 479.493C372.268 479.493 479.493 372.268 479.493 240C479.493 107.732 372.268 0.507324 240 0.507324C107.732 0.507324 0.507324 107.732 0.507324 240C0.507324 372.268 107.732 479.493 240 479.493Z" fill="#FFC500"/>
<path d="M256.975 445.58C124.683 445.58 17.4828 338.341 17.4828 206.088C17.45 175.36 23.3327 144.913 34.8096 116.41C12.2962 153.698 0.432373 196.443 0.507188 240C0.507188 372.254 107.746 479.493 240 479.493C340.566 479.493 426.654 417.522 462.127 329.678C420.214 399.141 344 445.58 256.975 445.58Z" fill="#FF9F1E"/>
<path d="M165.559 190.93C166.452 170.496 156.667 153.472 143.705 152.906C130.742 152.34 119.511 168.447 118.619 188.88C117.727 209.314 127.511 226.338 140.474 226.904C153.436 227.47 164.667 211.364 165.559 190.93Z" fill="#00305F"/>
<path d="M153.6 181.19C157.178 181.19 160.078 178.29 160.078 174.712C160.078 171.134 157.178 168.234 153.6 168.234C150.022 168.234 147.122 171.134 147.122 174.712C147.122 178.29 150.022 181.19 153.6 181.19Z" fill="white"/>
<path d="M339.676 226.612C352.639 226.046 362.424 209.022 361.531 188.589C360.639 168.155 349.408 152.048 336.446 152.614C323.483 153.18 313.699 170.204 314.591 190.638C315.483 211.072 326.714 227.178 339.676 226.612Z" fill="#00305F"/>
<path d="M345.912 181.19C349.49 181.19 352.39 178.29 352.39 174.712C352.39 171.134 349.49 168.234 345.912 168.234C342.334 168.234 339.434 171.134 339.434 174.712C339.434 178.29 342.334 181.19 345.912 181.19Z" fill="white"/>
<path d="M239.141 367.024C217.529 367.028 196.205 362.061 176.819 352.507C157.892 343.297 140.878 330.107 126.283 313.288C124.361 310.929 123.432 307.915 123.694 304.884C123.956 301.853 125.388 299.042 127.686 297.049C129.984 295.055 132.969 294.034 136.006 294.203C139.044 294.371 141.897 295.715 143.961 297.951C169.6 327.414 203.395 343.61 239.141 343.61C257.561 343.61 275.395 339.356 292.214 330.966C309.034 322.575 323.317 311.024 335.922 296.039C337.95 293.769 340.783 292.378 343.819 292.161C346.856 291.945 349.857 292.919 352.187 294.879C354.517 296.838 355.992 299.628 356.3 302.657C356.607 305.685 355.723 308.715 353.834 311.102C339.161 328.546 321.951 342.283 302.673 351.922C282.575 361.951 261.19 367.024 239.141 367.024Z" fill="#00305F"/>
<path d="M240 0.50723C188.686 0.413966 138.714 16.8934 97.522 47.4926C154.064 25.6733 216.218 23.0812 274.38 40.117C273.88 40.7314 273.448 41.3988 273.093 42.1072C265.99 55.3365 280.468 76.878 305.366 90.2243C330.263 103.571 356.254 103.727 363.356 90.5365C364.033 89.2476 364.519 87.8674 364.8 86.4389C429.268 136.39 470.907 214.478 471.298 302.283C476.754 281.972 479.509 261.031 479.493 240C479.493 107.746 372.254 0.50723 240 0.50723Z" fill="#FFE059"/>
<path d="M382.54 116.34C383.807 109.823 375.778 102.781 364.608 100.609C353.437 98.438 343.354 101.96 342.088 108.476C340.821 114.993 348.85 122.035 360.021 124.207C371.191 126.378 381.274 122.856 382.54 116.34Z" fill="#FFE059"/>
<path d="M330.425 125.355C332.278 122.144 329.998 117.358 325.332 114.664C320.665 111.97 315.38 112.388 313.526 115.599C311.673 118.809 313.953 123.596 318.619 126.29C323.286 128.984 328.571 128.565 330.425 125.355Z" fill="#FFE059"/>
</svg>
