<svg width="1591" height="1449" viewBox="0 0 1591 1449" fill="none" xmlns="http://www.w3.org/2000/svg">
<path d="M2.02283 86.355C41.7688 48.802 147.856 -14.51 224.006 6.433C319.193 32.613 417.803 307.479 576.372 126.712C734.941 -54.054 922.613 28.586 913.082 333.849C903.551 639.112 964.657 657.7 1160.3 442.333C1355.94 226.965 1373.15 464.866 1514.24 684.326" stroke="#2A2A2A" stroke-width="3" stroke-linecap="round" stroke-dasharray="23 23"/>
<path d="M1588.86 888.8C1550.11 850.23 1445.7 784.18 1369.03 803.13C1273.2 826.83 1167.47 1099.03 1013.66 914.2C859.844 729.374 670.085 807.1 671.673 1112.51C673.26 1417.92 611.691 1434.91 421.717 1214.53C231.743 994.14 208.357 1231.52 61.5999 1447.23" stroke="#2A2A2A" stroke-width="3" stroke-linecap="round" stroke-dasharray="23 23"/>
</svg>
