<svg width="1540" height="1549" viewBox="0 0 1540 1549" fill="none" xmlns="http://www.w3.org/2000/svg">
<path d="M1529.26 989.015C1490.5 950.442 1386.1 884.391 1309.43 903.347C1213.59 927.041 1107.87 1199.25 954.057 1014.42C800.244 829.589 610.486 907.319 612.073 1212.73C613.66 1518.13 552.091 1535.13 362.117 1314.74C172.143 1094.36 148.757 1331.73 2 1547.45" stroke="#2A2A2A" stroke-width="3" stroke-linecap="round" stroke-dasharray="23 23"/>
<path d="M2 87.4193C42.3711 49.2632 150.126 -15.0672 227.474 6.21328C324.158 32.8139 424.319 312.097 585.382 128.426C746.445 -55.2463 937.068 28.7218 927.387 338.891C917.706 649.059 979.773 667.947 1178.49 449.118C1377.21 230.289 1394.68 472.013 1538 695" stroke="#2A2A2A" stroke-width="3" stroke-linecap="round" stroke-dasharray="23 23"/>
</svg>
