<svg width="149" height="149" viewBox="0 0 149 149" fill="none" xmlns="http://www.w3.org/2000/svg">
<circle cx="74.5" cy="74.541" r="74" fill="#95ACFF"/>
<path d="M64.875 93.9964L71.625 100.595L85.125 87.3975M102 97.2959C102 113.793 90.1875 122.042 76.1475 126.826C75.4123 127.07 74.6137 127.058 73.8863 126.793C59.8125 122.042 48 113.793 48 97.2959V74.1998C48 73.3247 48.3556 72.4855 48.9885 71.8667C49.6215 71.2479 50.4799 70.9003 51.375 70.9003C58.125 70.9003 66.5625 66.941 72.435 61.9258C73.15 61.3286 74.0596 61.0005 75 61.0005C75.9404 61.0005 76.85 61.3286 77.565 61.9258C83.4713 66.974 91.875 70.9003 98.625 70.9003C99.5201 70.9003 100.379 71.2479 101.011 71.8667C101.644 72.4855 102 73.3247 102 74.1998V97.2959Z" stroke="white" stroke-width="4" stroke-linecap="round" stroke-linejoin="round"/>
<path d="M47.3389 38.668L60.2194 49.7175" stroke="white" stroke-width="3" stroke-linecap="round"/>
<path d="M73.6514 23.668L73.3377 44.7395" stroke="white" stroke-width="3" stroke-linecap="round"/>
<path d="M102.338 36.668L89.3379 49.668" stroke="white" stroke-width="3" stroke-linecap="round"/>
</svg>
