<svg width="26" height="22" viewBox="0 0 26 22" fill="none" xmlns="http://www.w3.org/2000/svg">
<path d="M8.25315 12.3789H6.19533C5.81455 12.3789 5.50586 12.6876 5.50586 13.0684V21.3103C5.50586 21.691 5.81455 21.9997 6.19533 21.9997H8.25315C8.63394 21.9997 8.94263 21.691 8.94263 21.3103V13.0684C8.94263 12.6876 8.63394 12.3789 8.25315 12.3789Z" fill="white"/>
<path d="M2.74729 16.4956H0.689474C0.308688 16.4956 0 16.8043 0 17.1851V21.3007C0 21.6815 0.308688 21.9902 0.689474 21.9902H2.74729C3.12808 21.9902 3.43677 21.6815 3.43677 21.3007V17.1851C3.43677 16.8043 3.12808 16.4956 2.74729 16.4956Z" fill="white"/>
<path d="M13.7492 8.25293H11.6914C11.3106 8.25293 11.002 8.56162 11.002 8.9424V21.3105C11.002 21.6913 11.3106 22 11.6914 22H13.7492C14.13 22 14.4387 21.6913 14.4387 21.3105V8.9424C14.4387 8.56162 14.13 8.25293 13.7492 8.25293Z" fill="white"/>
<path d="M19.2434 4.12646H17.1856C16.8048 4.12646 16.4961 4.43515 16.4961 4.81594V21.3103C16.4961 21.6911 16.8048 21.9998 17.1856 21.9998H19.2434C19.6242 21.9998 19.9329 21.6911 19.9329 21.3103V4.81594C19.9329 4.43515 19.6242 4.12646 19.2434 4.12646Z" fill="white"/>
<path d="M24.7473 0H22.6895C22.3087 0 22 0.308688 22 0.689474V21.3101C22 21.6909 22.3087 21.9995 22.6895 21.9995H24.7473C25.1281 21.9995 25.4368 21.6909 25.4368 21.3101V0.689474C25.4368 0.308688 25.1281 0 24.7473 0Z" fill="white"/>
</svg>
