<svg width="1298" height="900" viewBox="0 0 1298 900" fill="none" xmlns="http://www.w3.org/2000/svg">
<path d="M1219.48 663L1289.6 712.783L1250.01 718.262M1219.48 663L1224.29 748.86L1250.01 718.262M1219.48 663L1250.01 718.262" stroke="#101729" stroke-width="2" stroke-linecap="round" stroke-linejoin="round"/>
<path d="M54.9331 444.998L48.601 461.916M61.2653 428.081C77.6157 434.201 85.9092 452.417 79.7892 468.768L70.291 494.143C64.171 510.494 45.9551 518.787 29.6046 512.667C13.2542 506.547 4.96074 488.331 11.0807 471.981L20.5789 446.605C26.6989 430.255 44.9148 421.961 61.2653 428.081Z" stroke="#101729" stroke-width="2" stroke-linecap="round" stroke-linejoin="round"/>
<path d="M146.13 650.131L128.921 657.806M146.13 650.131C146.147 643.493 145.497 636.871 144.192 630.363M146.13 650.131L166.867 658.076C166.867 658.076 169.401 644.635 164.929 638.308C159.926 631.255 144.192 630.363 144.192 630.363M128.921 657.806C124.041 653.405 119.618 648.523 115.718 643.235C109.843 635.442 106.059 626.275 104.727 616.608C103.394 606.94 104.557 597.091 108.106 588C119.386 592.322 137.971 603.153 144.192 630.363M128.921 657.806L120.976 678.543C120.976 678.543 109.284 671.447 107.565 663.892C105.66 655.457 115.51 643.155 115.51 643.155" stroke="#101729" stroke-width="2" stroke-linecap="round" stroke-linejoin="round"/>
<path d="M1254.55 328.002L1251.01 336.95M1222.7 408.529L1219.16 417.477M1173.38 363.158L1182.33 366.697M1184 336.316L1192.95 339.855M1253.91 395.008L1262.86 398.547M1264.53 368.166L1273.48 371.704M1227.7 317.386L1224.16 326.333M1195.85 397.913L1192.31 406.86M1210.74 321.025L1264.43 342.258C1269.37 344.213 1271.79 349.803 1269.84 354.744L1248.6 408.429C1246.65 413.371 1241.06 415.792 1236.12 413.838L1182.43 392.605C1177.49 390.65 1175.07 385.06 1177.02 380.118L1198.26 326.434C1200.21 321.492 1205.8 319.071 1210.74 321.025ZM1219.79 350.471L1237.69 357.549C1240.16 358.526 1241.37 361.321 1240.39 363.792L1233.31 381.687C1232.33 384.158 1229.54 385.369 1227.07 384.391L1209.17 377.314C1206.7 376.337 1205.49 373.541 1206.47 371.071L1213.55 353.176C1214.52 350.705 1217.32 349.494 1219.79 350.471Z" stroke="#101729" stroke-width="2" stroke-linecap="round" stroke-linejoin="round"/>
<rect x="1154.58" y="39.1495" width="110.346" height="81.0386" rx="1" transform="rotate(19.3195 1154.58 39.1495)" stroke="#101729" stroke-width="2"/>
<line x1="1147.84" y1="55.3741" x2="1253.33" y2="93.0119" stroke="#101729" stroke-width="2"/>
<circle cx="1163.8" cy="51.8329" r="1.98438" transform="rotate(19.3195 1163.8 51.8329)" fill="#101729"/>
<circle cx="1171.29" cy="54.4593" r="1.98438" transform="rotate(19.3195 1171.29 54.4593)" fill="#101729"/>
<path d="M1177.68 103.125L1170.88 92.9783L1182.53 89.296" stroke="#101729" stroke-width="2" stroke-linecap="round" stroke-linejoin="round"/>
<path d="M1200.72 111.201L1212.37 107.518L1205.57 97.3721" stroke="#101729" stroke-width="2" stroke-linecap="round" stroke-linejoin="round"/>
<path d="M1201.85 90.8786L1181.25 109.3" stroke="#101729" stroke-width="2" stroke-linecap="round" stroke-linejoin="round"/>
<path d="M49 866L52.3464 862.654M52.3464 862.654H62.3857L92.5036 832.536M52.3464 862.654V852.614L82.4643 822.496M92.5036 812.457L103.881 801.079C105.213 799.748 107.018 799 108.901 799C110.784 799 112.589 799.748 113.921 801.079C115.252 802.411 116 804.216 116 806.099C116 807.982 115.252 809.787 113.921 811.119L102.543 822.496L103.881 823.835C104.541 824.494 105.064 825.277 105.42 826.138C105.777 826.999 105.961 827.922 105.961 828.855C105.961 829.787 105.777 830.71 105.42 831.571C105.064 832.432 104.541 833.215 103.881 833.874C103.222 834.533 102.44 835.056 101.578 835.413C100.717 835.77 99.7941 835.953 98.8618 835.953C97.9296 835.953 97.0065 835.77 96.1452 835.413C95.284 835.056 94.5014 834.533 93.8422 833.874L81.1258 821.158C80.4666 820.499 79.9437 819.716 79.5869 818.855C79.2302 817.993 79.0465 817.07 79.0465 816.138C79.0465 815.206 79.2302 814.283 79.5869 813.422C79.9437 812.56 80.4666 811.778 81.1258 811.119C81.7849 810.459 82.5675 809.936 83.4288 809.58C84.2901 809.223 85.2132 809.039 86.1454 809.039C87.0776 809.039 88.0007 809.223 88.862 809.58C89.7233 809.936 90.5059 810.459 91.1651 811.119L92.5036 812.457Z" stroke="#101729" stroke-width="2" stroke-linecap="round" stroke-linejoin="round"/>
<path d="M1225.39 878.397L1222.09 861.901C1222 861.452 1221.79 861.039 1221.47 860.709C1221.15 860.379 1220.75 860.146 1220.3 860.039L1189.96 852.067C1189.56 851.971 1189.14 851.978 1188.75 852.09C1188.35 852.201 1187.99 852.412 1187.7 852.703C1187.41 852.994 1187.2 853.354 1187.09 853.75C1186.98 854.146 1186.97 854.564 1187.07 854.964L1195.04 885.305C1195.14 885.75 1195.38 886.155 1195.71 886.472C1196.04 886.79 1196.45 887.006 1196.9 887.096L1213.39 890.395M1187.72 852.72L1205.2 870.204M1219.89 898.297C1219.44 898.747 1218.83 899 1218.19 899C1217.56 899 1216.95 898.747 1216.5 898.297L1212.69 894.491C1212.24 894.041 1211.99 893.431 1211.99 892.795C1211.99 892.159 1212.24 891.548 1212.69 891.098L1226.1 877.694C1226.55 877.244 1227.16 876.991 1227.79 876.991C1228.43 876.991 1229.04 877.244 1229.49 877.694L1233.3 881.5C1233.75 881.95 1234 882.56 1234 883.196C1234 883.832 1233.75 884.443 1233.3 884.893L1219.89 898.297ZM1213.39 873.597C1213.39 876.248 1211.25 878.397 1208.6 878.397C1205.94 878.397 1203.8 876.248 1203.8 873.597C1203.8 870.947 1205.94 868.798 1208.6 868.798C1211.25 868.798 1213.39 870.947 1213.39 873.597Z" stroke="#101729" stroke-width="2" stroke-linecap="round" stroke-linejoin="round"/>
<path d="M152.393 41.6988L49.97 20.4846M139.664 103.153L37.2415 81.9383M74.6975 4.24285L53.4832 106.666M136.151 16.9714L114.937 119.394" stroke="#101729" stroke-width="2" stroke-linecap="round" stroke-linejoin="round"/>
</svg>
