<svg width="1920" height="1332" viewBox="0 0 1920 1332" fill="none" xmlns="http://www.w3.org/2000/svg">
<path d="M382 978L383.948 976.002M383.948 976.002H389.792L407.323 958.021M383.948 976.002V970.008L401.479 952.027M407.323 946.034L413.946 939.241C414.721 938.447 415.772 938 416.868 938C417.964 938 419.014 938.447 419.79 939.241C420.565 940.036 421 941.114 421 942.238C421 943.362 420.565 944.44 419.79 945.235L413.167 952.027L413.946 952.827C414.33 953.22 414.634 953.688 414.841 954.202C415.049 954.716 415.156 955.267 415.156 955.824C415.156 956.38 415.049 956.931 414.841 957.445C414.634 957.959 414.33 958.427 413.946 958.82C413.562 959.214 413.107 959.526 412.605 959.739C412.104 959.952 411.567 960.061 411.024 960.061C410.481 960.061 409.944 959.952 409.443 959.739C408.941 959.526 408.486 959.214 408.102 958.82L400.7 951.229C400.316 950.835 400.012 950.368 399.804 949.854C399.597 949.339 399.49 948.788 399.49 948.232C399.49 947.675 399.597 947.124 399.804 946.61C400.012 946.096 400.316 945.629 400.7 945.235C401.084 944.841 401.539 944.529 402.041 944.316C402.542 944.103 403.079 943.993 403.622 943.993C404.165 943.993 404.702 944.103 405.203 944.316C405.705 944.529 406.16 944.841 406.544 945.235L407.323 946.034Z" stroke="#101729" stroke-width="2" stroke-linecap="round" stroke-linejoin="round"/>
<path d="M230.962 380.827L227.654 389.609M234.27 372.046C242.812 375.223 247.145 384.679 243.948 393.166L238.985 406.338C235.788 414.826 226.272 419.131 217.73 415.954C209.188 412.777 204.855 403.321 208.052 394.834L213.015 381.661C216.212 373.174 225.728 368.869 234.27 372.046Z" stroke="#101729" stroke-width="2" stroke-linecap="round" stroke-linejoin="round"/>
<path d="M1516 759L1550 782.772L1530.8 785.389M1516 759L1518.33 800L1530.8 785.389M1516 759L1530.8 785.389" stroke="#101729" stroke-width="2" stroke-linecap="round" stroke-linejoin="round"/>
<path d="M123.11 738.917L111.165 744.342M123.11 738.917C123.122 734.225 122.671 729.544 121.765 724.944M123.11 738.917L137.504 744.533C137.504 744.533 139.262 735.032 136.158 730.56C132.686 725.575 121.765 724.944 121.765 724.944M111.165 744.342C107.778 741.231 104.708 737.78 102.001 734.043C97.9231 728.534 95.2966 722.055 94.3721 715.221C93.4468 708.388 94.2541 701.426 96.7174 695C104.547 698.055 117.447 705.711 121.765 724.944M111.165 744.342L105.651 759C105.651 759 97.5351 753.984 96.3419 748.644C95.0197 742.682 101.857 733.986 101.857 733.986" stroke="#101729" stroke-width="2" stroke-linecap="round" stroke-linejoin="round"/>
<path d="M1842.46 377.576L1840.31 383.119M1823.06 427.457L1820.9 433M1793 399.353L1798.45 401.545M1799.47 382.726L1804.93 384.918M1842.07 419.082L1847.53 421.274M1848.55 402.455L1854 404.647M1826.1 371L1823.94 376.542M1806.69 420.881L1804.54 426.423M1815.77 373.254L1848.49 386.407C1851.5 387.618 1852.97 391.08 1851.78 394.141L1838.84 427.395C1837.65 430.457 1834.24 431.956 1831.23 430.746L1798.52 417.593C1795.5 416.382 1794.03 412.92 1795.22 409.858L1808.16 376.605C1809.35 373.543 1812.76 372.044 1815.77 373.254ZM1821.28 391.494L1832.19 395.878C1833.7 396.484 1834.43 398.215 1833.84 399.746L1829.52 410.83C1828.92 412.361 1827.22 413.111 1825.72 412.505L1814.81 408.122C1813.3 407.516 1812.57 405.784 1813.16 404.254L1817.48 393.17C1818.07 391.639 1819.78 390.889 1821.28 391.494Z" stroke="#101729" stroke-width="2" stroke-linecap="round" stroke-linejoin="round"/>
<path d="M1608.45 93.6292L1548.68 72.6741C1548.37 72.5673 1548.04 72.7277 1547.93 73.0324L1532.64 116.637C1532.54 116.942 1532.7 117.275 1533 117.382L1592.77 138.337C1593.08 138.444 1593.41 138.284 1593.52 137.979L1608.81 94.3743C1608.91 94.0696 1608.75 93.736 1608.45 93.6292Z" stroke="#101729" stroke-width="2"/>
<path d="M1544 82L1606 104" stroke="#101729" stroke-width="2"/>
<path d="M1553.13 80.9903C1553.73 81.2023 1554.4 80.884 1554.61 80.2793C1554.82 79.6747 1554.5 79.0128 1553.9 78.8008C1553.29 78.5888 1552.63 78.9071 1552.42 79.5118C1552.21 80.1164 1552.53 80.7783 1553.13 80.9903Z" fill="#101729"/>
<path d="M1557.51 82.5257C1558.11 82.7377 1558.78 82.4194 1558.99 81.8147C1559.2 81.2101 1558.88 80.5482 1558.28 80.3362C1557.67 80.1242 1557.01 80.4425 1556.8 81.0472C1556.59 81.6518 1556.9 82.3137 1557.51 82.5257Z" fill="#101729"/>
<path d="M1561.5 111L1558 103.663L1564 101" stroke="#101729" stroke-width="2" stroke-linecap="round" stroke-linejoin="round"/>
<path d="M1575 115L1582 112.869L1577.91 107" stroke="#101729" stroke-width="2" stroke-linecap="round" stroke-linejoin="round"/>
<path d="M1576 102L1564 113" stroke="#101729" stroke-width="2" stroke-linecap="round" stroke-linejoin="round"/>
<path d="M1763.21 1040.96L1759.84 1024.11C1759.74 1023.65 1759.53 1023.23 1759.2 1022.89C1758.88 1022.56 1758.47 1022.32 1758.01 1022.21L1727.02 1014.07C1726.61 1013.97 1726.18 1013.98 1725.79 1014.09C1725.38 1014.21 1725.01 1014.42 1724.71 1014.72C1724.42 1015.02 1724.2 1015.38 1724.09 1015.79C1723.98 1016.19 1723.97 1016.62 1724.07 1017.03L1732.21 1048.01C1732.31 1048.47 1732.56 1048.88 1732.89 1049.21C1733.23 1049.53 1733.65 1049.75 1734.11 1049.84L1750.95 1053.21M1724.73 1014.74L1742.59 1032.59M1757.59 1061.28C1757.13 1061.74 1756.51 1062 1755.85 1062C1755.21 1062 1754.59 1061.74 1754.13 1061.28L1750.24 1057.4C1749.78 1056.94 1749.52 1056.31 1749.52 1055.66C1749.52 1055.01 1749.78 1054.39 1750.24 1053.93L1763.93 1040.24C1764.39 1039.78 1765.01 1039.52 1765.66 1039.52C1766.31 1039.52 1766.93 1039.78 1767.39 1040.24L1771.29 1044.13C1771.74 1044.59 1772 1045.21 1772 1045.86C1772 1046.51 1771.74 1047.13 1771.29 1047.59L1757.59 1061.28ZM1750.95 1036.06C1750.95 1038.76 1748.77 1040.96 1746.06 1040.96C1743.34 1040.96 1741.16 1038.76 1741.16 1036.06C1741.16 1033.35 1743.34 1031.16 1746.06 1031.16C1748.77 1031.16 1750.95 1033.35 1750.95 1036.06Z" stroke="#101729" stroke-width="2" stroke-linecap="round" stroke-linejoin="round"/>
<path d="M94 22.2638L49.5268 13.0524M88.4729 48.948L44 39.7363M60.2638 6L51.0523 50.4734M86.9476 11.5269L77.7362 56" stroke="#101729" stroke-width="2" stroke-linecap="round" stroke-linejoin="round"/>
</svg>
