<svg width="148" height="148" viewBox="0 0 148 148" fill="none" xmlns="http://www.w3.org/2000/svg">
<circle cx="74" cy="74" r="74" fill="#95ACFF"/>
<path d="M47.3389 37.668L60.2194 48.7175" stroke="white" stroke-width="3" stroke-linecap="round"/>
<path d="M73.6514 22.668L73.3377 43.7395" stroke="white" stroke-width="3" stroke-linecap="round"/>
<path d="M102.338 35.668L89.3379 48.668" stroke="white" stroke-width="3" stroke-linecap="round"/>
<path d="M70.3 110.991L77.7 118.275C78.4288 118.992 79.2941 119.561 80.2464 119.949C81.1986 120.338 82.2193 120.537 83.25 120.537C84.2807 120.537 85.3014 120.338 86.2536 119.949C87.2059 119.561 88.0712 118.992 88.8 118.275C89.5288 117.557 90.107 116.705 90.5014 115.768C90.8959 114.831 91.0989 113.826 91.0989 112.812C91.0989 111.797 90.8959 110.792 90.5014 109.855C90.107 108.918 89.5288 108.066 88.8 107.349M81.4 100.065L90.65 109.17C92.122 110.618 94.1183 111.432 96.2 111.432C98.2817 111.432 100.278 110.618 101.75 109.17C103.222 107.721 104.049 105.756 104.049 103.707C104.049 101.657 103.222 99.6924 101.75 98.2435L87.394 84.1125C85.3127 82.0664 82.4915 80.9171 79.55 80.9171C76.6085 80.9171 73.7873 82.0664 71.706 84.1125L68.45 87.3175C66.978 88.7663 64.9817 89.5803 62.9 89.5803C60.8183 89.5803 58.822 88.7663 57.35 87.3175C55.878 85.8686 55.0511 83.9035 55.0511 81.8544C55.0511 79.8054 55.878 77.8403 57.35 76.3914L67.747 66.1573C71.1223 62.8436 75.524 60.7327 80.2554 60.1588C84.9867 59.5849 89.7774 60.5808 93.869 62.9888L95.608 64.0085C97.1834 64.9445 99.0566 65.2691 100.862 64.919L107.3 63.6443M107.3 60.0023L111 100.065H103.6M40.7 60.0023L37 100.065L61.05 123.738C62.522 125.187 64.5183 126 66.6 126C68.6817 126 70.678 125.187 72.15 123.738C73.622 122.289 74.4489 120.324 74.4489 118.275C74.4489 116.226 73.622 114.26 72.15 112.812M40.7 63.6443H70.3" stroke="white" stroke-width="4" stroke-linecap="round" stroke-linejoin="round"/>
</svg>
