<svg width="148" height="148" viewBox="0 0 148 148" fill="none" xmlns="http://www.w3.org/2000/svg">
<circle cx="74" cy="74" r="74" fill="#95ACFF"/>
<path d="M46.3076 37.1401L58.9738 48.4348" stroke="white" stroke-width="3" stroke-linecap="round"/>
<path d="M72.9033 22.6475L72.1854 43.7091" stroke="white" stroke-width="3" stroke-linecap="round"/>
<path d="M101.335 36.1958L88.0879 48.944" stroke="white" stroke-width="3" stroke-linecap="round"/>
<path d="M56.4176 70.3398C56.3578 69.0215 56.5663 67.7048 57.031 66.467C57.4957 65.2292 58.2071 64.0954 59.1233 63.1323C60.0396 62.1691 61.1423 61.3961 62.3664 60.8586C63.5906 60.3212 64.9116 60.0301 66.2517 60.0026C67.5918 59.9751 68.9239 60.2117 70.1698 60.6985C71.4156 61.1853 72.55 61.9124 73.5063 62.8371C74.4625 63.7618 75.2213 64.8655 75.7379 66.0831C76.2546 67.3007 76.5187 68.6078 76.5148 69.9274V112.818M56.4176 70.3398C54.4477 70.8384 52.619 71.7718 51.0698 73.0693C49.5207 74.3668 48.2917 75.9943 47.476 77.8286C46.6604 79.6629 46.2794 81.6559 46.3619 83.6566C46.4445 85.6573 46.9884 87.6133 47.9524 89.3764M56.4176 70.3398C56.4838 71.9358 56.9415 73.4922 57.7514 74.8763M47.9524 89.3764C46.2573 90.7322 44.9244 92.4752 44.0695 94.4538C43.2147 96.4323 42.8638 98.5866 43.0475 100.729C43.2312 102.872 43.9438 104.938 45.1234 106.747C46.303 108.557 47.9138 110.055 49.8157 111.112M47.9524 89.3764C48.5655 88.8849 49.2215 88.451 49.9129 88.0732M49.8157 111.112C49.5808 112.901 49.721 114.718 50.2275 116.452C50.734 118.185 51.5962 119.798 52.7607 121.191C53.9252 122.584 55.3673 123.726 56.9981 124.549C58.6288 125.371 60.4135 125.856 62.2419 125.973C64.0703 126.09 65.9036 125.836 67.6287 125.228C69.3537 124.62 70.9338 123.67 72.2713 122.437C73.6089 121.205 74.6755 119.715 75.4054 118.06C76.1352 116.406 76.5128 114.621 76.5148 112.818M49.8157 111.112C51.8273 112.229 54.098 112.819 56.4075 112.818M76.5148 112.818H96.622C98.3996 112.818 100.104 113.513 101.361 114.75C102.618 115.988 103.324 117.666 103.324 119.416V122.715M66.4611 96.3214C69.2747 95.3469 71.7315 93.5731 73.521 91.224C75.3106 88.875 76.3524 86.0563 76.5148 83.1244M76.5148 96.3214H89.9196M76.5148 79.8251H103.324M89.9196 79.8251V69.9274C89.9196 68.1774 90.6257 66.499 91.8827 65.2616C93.1396 64.0241 94.8444 63.3289 96.622 63.3289M91.5952 96.3214C91.5952 97.2324 90.845 97.971 89.9196 97.971C88.9942 97.971 88.244 97.2324 88.244 96.3214C88.244 95.4103 88.9942 94.6717 89.9196 94.6717C90.845 94.6717 91.5952 95.4103 91.5952 96.3214ZM98.2976 63.3289C98.2976 64.24 97.5474 64.9785 96.622 64.9785C95.6966 64.9785 94.9464 64.24 94.9464 63.3289C94.9464 62.4178 95.6966 61.6793 96.622 61.6793C97.5474 61.6793 98.2976 62.4178 98.2976 63.3289ZM105 122.715C105 123.626 104.25 124.365 103.324 124.365C102.399 124.365 101.649 123.626 101.649 122.715C101.649 121.804 102.399 121.066 103.324 121.066C104.25 121.066 105 121.804 105 122.715ZM105 79.8251C105 80.7362 104.25 81.4748 103.324 81.4748C102.399 81.4748 101.649 80.7362 101.649 79.8251C101.649 78.9141 102.399 78.1755 103.324 78.1755C104.25 78.1755 105 78.9141 105 79.8251Z" stroke="white" stroke-width="4" stroke-linecap="round" stroke-linejoin="round"/>
</svg>
