<svg width="23" height="18" viewBox="0 0 23 18" fill="none" xmlns="http://www.w3.org/2000/svg">
<path d="M19.015 7.22208C19.515 7.65964 19.565 8.37356 19.09 8.83416C18.84 9.08749 18.5151 9.20264 18.1651 9.20264C17.8651 9.20264 17.5651 9.11052 17.3151 8.90325C11.7655 4.22821 5.79082 8.67295 5.54084 8.85719C5.01587 9.27173 4.21592 9.20264 3.79094 8.71901C3.34097 8.23539 3.41596 7.52146 3.94093 7.10693C6.66577 5.01122 13.2654 2.3628 19.015 7.22208ZM11.5655 13.6243C10.9405 13.6243 10.3156 13.8546 9.89058 14.2692C9.44061 14.6837 9.19062 15.2364 9.19062 15.8122C9.19062 16.3879 9.44061 16.9406 9.89058 17.3552C10.3406 17.7697 10.9405 18 11.5655 18C12.1904 18 12.8154 17.7697 13.2404 17.3552C13.6904 16.9406 13.9403 16.3879 13.9403 15.8122C13.9403 15.2364 13.6904 14.6837 13.2404 14.2692C12.7904 13.8546 12.1904 13.6243 11.5655 13.6243ZM22.5648 4.09003C16.6402 -0.677126 10.9155 -0.423799 7.14074 0.63557C3.11598 1.76403 0.491137 3.97488 0.391143 4.09003C-0.108828 4.5276 -0.133826 5.24152 0.341145 5.70211C0.816117 6.16271 1.61607 6.18574 2.11604 5.74817C2.14104 5.72514 4.4159 3.79065 7.8907 2.8234C12.4904 1.53373 16.8652 2.54704 20.9399 5.81726C21.1649 6.0015 21.4649 6.09362 21.7649 6.09362C22.1149 6.09362 22.4648 5.95544 22.7148 5.70211C23.1398 5.24152 23.0898 4.50457 22.5648 4.09003ZM7.36573 10.3772C6.81576 10.7687 6.74077 11.4826 7.16574 11.9892C7.59072 12.4959 8.39067 12.565 8.91564 12.1735C9.01563 12.1044 11.6655 10.2159 13.9153 12.1504C14.1653 12.3577 14.4653 12.4498 14.7653 12.4498C15.0903 12.4498 15.4403 12.3347 15.6902 12.0814C16.1652 11.6208 16.1402 10.8838 15.6152 10.4693C12.5904 7.88994 8.89064 9.29475 7.36573 10.3772Z" fill="white"/>
</svg>
