<svg width="165" height="120" viewBox="0 0 165 120" fill="none" xmlns="http://www.w3.org/2000/svg">
<path d="M40.125 120C32.625 120 25.75 118.006 19.5 114.019C13.5 110.031 8.75 104.548 5.25 97.5701C1.75 90.5919 0 82.4922 0 73.271C0 65.2959 1.5 57.5701 4.5 50.0935C7.5 42.3676 11.75 35.2648 17.25 28.7851C23 22.0561 29.625 16.1994 37.125 11.2149C44.625 5.98131 52.75 2.24299 61.5 0L78.75 20.9346C68.25 25.4205 59.75 31.028 53.25 37.757C47 44.2368 43.875 49.7196 43.875 54.2056C43.875 56.9471 44.75 59.6885 46.5 62.4299C48.5 64.9221 51.375 67.2897 55.125 69.5327C60.875 73.7695 64.875 77.8816 67.125 81.8692C69.375 85.8567 70.5 90.2181 70.5 94.9533C70.5 102.679 67.625 108.785 61.875 113.271C56.375 117.757 49.125 120 40.125 120ZM126.375 120C118.875 120 112 118.006 105.75 114.019C99.75 110.031 95 104.548 91.5 97.5701C88 90.5919 86.25 82.4922 86.25 73.271C86.25 65.2959 87.75 57.5701 90.75 50.0935C93.75 42.3676 98 35.2648 103.5 28.7851C109.25 22.0561 115.875 16.1994 123.375 11.2149C130.875 5.98131 139 2.24299 147.75 0L165 20.9346C154.5 25.4205 146 31.028 139.5 37.757C133.25 44.2368 130.125 49.7196 130.125 54.2056C130.125 56.9471 131 59.6885 132.75 62.4299C134.75 64.9221 137.625 67.2897 141.375 69.5327C147.125 73.7695 151.125 77.8816 153.375 81.8692C155.625 85.8567 156.75 90.2181 156.75 94.9533C156.75 102.679 153.875 108.785 148.125 113.271C142.625 117.757 135.375 120 126.375 120Z" fill="#DADADA" fill-opacity="0.7"/>
</svg>
