<svg width="55" height="51" viewBox="0 0 55 51" fill="none" xmlns="http://www.w3.org/2000/svg">
<path d="M33.2318 26.7865L33.3769 25.7971L33.2318 26.7865ZM21.7859 14.3406L22.7811 14.4386L22.7811 14.4385L21.7859 14.3406ZM53.8119 11.1078C54.3615 11.0535 54.763 10.5639 54.7086 10.0143L53.8231 1.05795C53.7687 0.508345 53.2791 0.106854 52.7295 0.161196C52.1799 0.215537 51.7784 0.705132 51.8328 1.25474L52.6199 9.21592L44.6587 10.0031C44.1091 10.0574 43.7077 10.547 43.762 11.0966C43.8163 11.6462 44.3059 12.0477 44.8555 11.9934L53.8119 11.1078ZM2.41922 50.543C2.68804 49.9689 2.99328 49.3564 3.33373 48.7142L1.56662 47.7775C1.21162 48.4472 0.891543 49.0892 0.607936 49.6949L2.41922 50.543ZM5.40924 45.158C6.11432 44.0504 6.89587 42.9094 7.74866 41.7659L6.14542 40.5703C5.26179 41.7551 4.45235 42.9368 3.72206 44.084L5.40924 45.158ZM10.3356 38.563C11.2291 37.5429 12.1763 36.546 13.1732 35.595L11.7927 34.1479C10.7488 35.1437 9.76043 36.1842 8.8311 37.2452L10.3356 38.563ZM16.273 32.9296C17.3552 32.0983 18.4804 31.3357 19.6446 30.6627L18.6437 28.9312C17.3965 29.6521 16.199 30.4646 15.0547 31.3435L16.273 32.9296ZM23.2804 28.9223C24.5309 28.4469 25.8164 28.0848 27.1334 27.8566L26.7919 25.886C25.3395 26.1376 23.9306 26.5355 22.5698 27.0527L23.2804 28.9223ZM31.1007 27.5911C31.7552 27.617 32.4173 27.6778 33.0868 27.7759L33.3769 25.7971C32.6373 25.6887 31.9047 25.6214 31.1798 25.5927L31.1007 27.5911ZM33.0868 27.7759C33.78 27.8776 34.3894 28.0103 34.922 28.1668L35.4859 26.248C34.8519 26.0616 34.1498 25.9104 33.3769 25.7971L33.0868 27.7759ZM37.723 29.8473C38.2675 30.6127 38.2977 31.5679 37.8023 32.6385L39.6175 33.4783C40.3242 31.9509 40.4243 30.1942 39.3527 28.6879L37.723 29.8473ZM35.5412 35.262C34.5965 35.959 33.4788 36.4964 32.3107 36.7647L32.7584 38.7139C34.2147 38.3795 35.5811 37.7179 36.7286 36.8714L35.5412 35.262ZM28.8771 36.6891C27.8817 36.3853 26.9041 35.7994 26.0187 34.8276L24.5403 36.1746C25.6605 37.4041 26.9442 38.1902 28.2932 38.6019L28.8771 36.6891ZM24.1285 31.7382C23.7035 30.7183 23.3389 29.5173 23.0581 28.1115L21.0969 28.5033C21.3997 30.0192 21.7997 31.349 22.2823 32.5074L24.1285 31.7382ZM22.5513 24.2508C22.4643 23.0611 22.4249 21.7713 22.4398 20.3749L20.4399 20.3536C20.4245 21.8003 20.4652 23.1462 20.5566 24.3966L22.5513 24.2508ZM22.6083 16.4541C22.6556 15.8012 22.7131 15.1295 22.7811 14.4386L20.7907 14.2426C20.7211 14.95 20.6621 15.6389 20.6136 16.3096L22.6083 16.4541ZM22.7811 14.4385C22.8307 13.9348 22.9602 13.3854 23.1744 12.8066L21.2987 12.1126C21.0338 12.8283 20.8594 13.5454 20.7907 14.2426L22.7811 14.4385ZM24.9701 9.75457C25.6885 8.87245 26.5707 8.02163 27.6011 7.26196L26.4143 5.65218C25.2499 6.51062 24.2451 7.47763 23.4193 8.4916L24.9701 9.75457ZM30.7688 5.46036C31.8453 5.00512 33.0144 4.65239 34.2666 4.43645L33.9267 2.46554C32.5199 2.70813 31.2038 3.10495 29.9898 3.61828L30.7688 5.46036ZM37.9198 4.21407C39.0824 4.26738 40.3002 4.43719 41.5679 4.74499L42.0398 2.80145C40.65 2.46403 39.305 2.27548 38.0114 2.21617L37.9198 4.21407ZM45.0966 5.92193C46.1833 6.38177 47.3002 6.94346 48.4444 7.61857L49.4607 5.89607C48.2441 5.17817 47.0481 4.57604 45.876 4.08005L45.0966 5.92193ZM51.5835 9.71494C52.078 10.0837 52.5767 10.4737 53.0794 10.8859L54.3476 9.33942C53.8217 8.9082 53.2988 8.49915 52.779 8.11157L51.5835 9.71494Z" fill="black"/>
</svg>
