<svg width="55" height="51" viewBox="0 0 55 51" fill="none" xmlns="http://www.w3.org/2000/svg">
<path d="M21.7877 26.7865L21.6426 25.7971L21.7877 26.7865ZM33.2336 14.3406L32.2384 14.4386L32.2384 14.4385L33.2336 14.3406ZM1.20767 11.1078C0.658063 11.0535 0.256573 10.5639 0.310913 10.0143L1.19646 1.05795C1.2508 0.508345 1.74039 0.106854 2.29 0.161196C2.8396 0.215537 3.24109 0.705132 3.18675 1.25474L2.3996 9.21592L10.3608 10.0031C10.9104 10.0574 11.3119 10.547 11.2575 11.0966C11.2032 11.6462 10.7136 12.0477 10.164 11.9934L1.20767 11.1078ZM52.6003 50.543C52.3315 49.9689 52.0262 49.3564 51.6858 48.7142L53.4529 47.7775C53.8079 48.4472 54.128 49.0892 54.4116 49.6949L52.6003 50.543ZM49.6103 45.158C48.9052 44.0504 48.1237 42.9094 47.2709 41.7659L48.8741 40.5703C49.7577 41.7551 50.5672 42.9368 51.2975 44.084L49.6103 45.158ZM44.684 38.563C43.7905 37.5429 42.8432 36.546 41.8463 35.595L43.2269 34.1479C44.2707 35.1437 45.2591 36.1842 46.1884 37.2452L44.684 38.563ZM38.7465 32.9296C37.6643 32.0983 36.5391 31.3357 35.3749 30.6627L36.3758 28.9312C37.623 29.6521 38.8206 30.4646 39.9648 31.3435L38.7465 32.9296ZM31.7392 28.9223C30.4886 28.4469 29.2032 28.0848 27.8862 27.8566L28.2276 25.886C29.68 26.1376 31.0889 26.5355 32.4497 27.0527L31.7392 28.9223ZM23.9189 27.5911C23.2643 27.617 22.6022 27.6778 21.9328 27.7759L21.6426 25.7971C22.3823 25.6887 23.1148 25.6214 23.8398 25.5927L23.9189 27.5911ZM21.9328 27.7759C21.2395 27.8776 20.6301 28.0103 20.0976 28.1668L19.5336 26.248C20.1676 26.0616 20.8697 25.9104 21.6426 25.7971L21.9328 27.7759ZM17.2965 29.8473C16.752 30.6127 16.7218 31.5679 17.2172 32.6385L15.402 33.4783C14.6954 31.9509 14.5953 30.1942 15.6668 28.6879L17.2965 29.8473ZM19.4783 35.262C20.4231 35.959 21.5407 36.4964 22.7088 36.7647L22.2611 38.7139C20.8048 38.3795 19.4384 37.7179 18.291 36.8714L19.4783 35.262ZM26.1425 36.6891C27.1378 36.3853 28.1154 35.7994 29.0008 34.8276L30.4792 36.1746C29.3591 37.4041 28.0753 38.1902 26.7263 38.6019L26.1425 36.6891ZM30.8911 31.7382C31.316 30.7183 31.6806 29.5173 31.9614 28.1115L33.9227 28.5033C33.6199 30.0192 33.2199 31.349 32.7373 32.5074L30.8911 31.7382ZM32.4683 24.2508C32.5552 23.0611 32.5946 21.7713 32.5797 20.3749L34.5796 20.3536C34.595 21.8003 34.5543 23.1462 34.4629 24.3966L32.4683 24.2508ZM32.4112 16.4541C32.3639 15.8012 32.3065 15.1295 32.2384 14.4386L34.2288 14.2426C34.2985 14.95 34.3574 15.6389 34.406 16.3096L32.4112 16.4541ZM32.2384 14.4385C32.1888 13.9348 32.0593 13.3854 31.8451 12.8066L33.7208 12.1126C33.9857 12.8283 34.1602 13.5454 34.2288 14.2426L32.2384 14.4385ZM30.0494 9.75457C29.331 8.87245 28.4488 8.02163 27.4184 7.26196L28.6053 5.65218C29.7696 6.51062 30.7744 7.47763 31.6002 8.4916L30.0494 9.75457ZM24.2508 5.46036C23.1742 5.00512 22.0052 4.65239 20.7529 4.43645L21.0928 2.46554C22.4996 2.70813 23.8158 3.10495 25.0297 3.61828L24.2508 5.46036ZM17.0997 4.21407C15.9371 4.26738 14.7193 4.43719 13.4516 4.74499L12.9797 2.80145C14.3695 2.46403 15.7145 2.27548 17.0081 2.21617L17.0997 4.21407ZM9.92291 5.92193C8.83623 6.38177 7.71931 6.94346 6.57517 7.61857L5.5588 5.89607C6.77546 5.17817 7.97138 4.57604 9.1435 4.08005L9.92291 5.92193ZM3.43605 9.71494C2.94154 10.0837 2.44284 10.4737 1.94016 10.8859L0.671962 9.33942C1.19781 8.9082 1.72074 8.49915 2.24054 8.11157L3.43605 9.71494Z" fill="black"/>
</svg>
