<svg width="46" height="60" viewBox="0 0 46 60" fill="none" xmlns="http://www.w3.org/2000/svg">
<path d="M28.0351 29.9844L27.9892 28.9855L28.0351 29.9844ZM14.4295 19.9446L15.4252 19.8514L15.4252 19.8513L14.4295 19.9446ZM45.2547 10.6752C45.7839 10.5172 46.0849 9.96017 45.9269 9.43096L43.3528 0.806914C43.1949 0.2777 42.6378 -0.0232626 42.1086 0.134696C41.5794 0.292654 41.2784 0.849718 41.4364 1.37893L43.7245 9.04475L36.0586 11.3328C35.5294 11.4908 35.2285 12.0478 35.3864 12.5771C35.5444 13.1063 36.1014 13.4072 36.6307 13.2493L45.2547 10.6752ZM2.30758 59.1714C2.46221 58.5566 2.6453 57.8973 2.85727 57.2019L0.944188 56.6187C0.723154 57.3438 0.531116 58.035 0.367982 58.6836L2.30758 59.1714ZM4.21797 53.3158C4.69933 52.0941 5.24943 50.8253 5.86898 49.5404L4.06747 48.6717C3.42551 50.0031 2.85579 51.3172 2.35722 52.5825L4.21797 53.3158ZM7.79896 45.9036C8.48197 44.7321 9.22214 43.5732 10.0198 42.4498L8.38907 41.2919C7.55385 42.4682 6.78157 43.6778 6.07117 44.8963L7.79896 45.9036ZM12.5556 39.2431C13.4598 38.221 14.4193 37.2581 15.4341 36.3759L14.1219 34.8665C13.0347 35.8117 12.0137 36.8372 11.0577 37.9179L12.5556 39.2431ZM18.6721 33.9752C19.8094 33.2706 21.0023 32.6704 22.2519 32.1957L21.5416 30.3261C20.1636 30.8496 18.8562 31.5084 17.6187 32.2752L18.6721 33.9752ZM26.0961 31.18C26.7436 31.0808 27.4052 31.0144 28.081 30.9834L27.9892 28.9855C27.2425 29.0198 26.5105 29.0932 25.7933 29.203L26.0961 31.18ZM28.081 30.9834C28.781 30.9512 29.4045 30.9655 29.9571 31.0178L30.1455 29.0267C29.4876 28.9644 28.7696 28.9496 27.9892 28.9855L28.081 30.9834ZM33.0268 32.1344C33.7071 32.7822 33.9185 33.7142 33.636 34.8595L35.5778 35.3385C35.9808 33.7045 35.7447 31.9608 34.406 30.686L33.0268 32.1344ZM31.9155 37.8654C31.1207 38.7294 30.1258 39.4698 29.0301 39.9555L29.8406 41.7839C31.2066 41.1784 32.4222 40.2688 33.3875 39.2194L31.9155 37.8654ZM25.6448 40.5348C24.6098 40.426 23.5386 40.037 22.4844 39.2515L21.2894 40.8552C22.6231 41.849 24.033 42.3764 25.4358 42.5238L25.6448 40.5348ZM20.0407 36.5783C19.4294 35.6579 18.8429 34.5483 18.2996 33.2216L16.4488 33.9795C17.0346 35.4101 17.6804 36.6395 18.3746 37.6848L20.0407 36.5783ZM17.0672 29.528C16.7554 28.3765 16.4712 27.1178 16.22 25.7441L14.2527 26.1039C14.5129 27.5271 14.809 28.8406 15.1367 30.0508L17.0672 29.528ZM15.6392 21.863C15.5614 21.213 15.4899 20.5426 15.4252 19.8514L13.4339 20.0378C13.5002 20.7456 13.5734 21.4331 13.6534 22.1008L15.6392 21.863ZM15.4252 19.8513C15.378 19.3474 15.4006 18.7834 15.5007 18.1744L13.5272 17.85C13.4034 18.6032 13.3686 19.3403 13.4339 20.0378L15.4252 19.8513ZM16.6826 14.8363C17.22 13.8336 17.9241 12.8304 18.7911 11.8885L17.3195 10.5341C16.3399 11.5984 15.5375 12.739 14.9198 13.8916L16.6826 14.8363ZM21.5579 9.51694C22.5282 8.86511 23.6087 8.29632 24.7969 7.84599L24.0881 5.9758C22.7532 6.48173 21.5367 7.1218 20.4426 7.8568L21.5579 9.51694ZM28.341 6.93232C29.4926 6.76337 30.7204 6.69829 32.0235 6.75916L32.1168 4.76134C30.6882 4.69461 29.3319 4.76552 28.0507 4.95351L28.341 6.93232ZM35.7117 7.24295C36.866 7.48754 38.0695 7.82638 39.3212 8.27136L39.9911 6.3869C38.6601 5.91371 37.3714 5.55022 36.1263 5.28639L35.7117 7.24295ZM42.8019 9.73192C43.3576 9.99977 43.9214 10.2878 44.4934 10.5968L45.444 8.83716C44.8457 8.51391 44.2545 8.21187 43.6704 7.93032L42.8019 9.73192Z" fill="black"/>
</svg>
