<svg width="37" height="54" viewBox="0 0 37 54" fill="none" xmlns="http://www.w3.org/2000/svg">
<path d="M9.25013 53.5001C14.3562 53.5001 18.5003 49.5428 18.5003 44.6668V35.8335H9.25013C4.14406 35.8335 0 39.7908 0 44.6668C0 49.5428 4.14406 53.5001 9.25013 53.5001Z" fill="#0ACF83"/>
<path d="M0 26.9998C0 22.1238 4.14406 18.1665 9.25013 18.1665H18.5003V35.8331H9.25013C4.14406 35.8331 0 31.8758 0 26.9998Z" fill="#A259FF"/>
<path d="M0 9.33331C0 4.45732 4.14406 0.5 9.25013 0.5H18.5003V18.1666H9.25013C4.14406 18.1666 0 14.2093 0 9.33331Z" fill="#F24E1E"/>
<path d="M18.5 0.5H27.7501C32.8562 0.5 37.0003 4.45732 37.0003 9.33331C37.0003 14.2093 32.8562 18.1666 27.7501 18.1666H18.5V0.5Z" fill="#FF7262"/>
<path d="M37.0003 26.9998C37.0003 31.8758 32.8562 35.8331 27.7501 35.8331C22.6441 35.8331 18.5 31.8758 18.5 26.9998C18.5 22.1238 22.6441 18.1665 27.7501 18.1665C32.8562 18.1665 37.0003 22.1238 37.0003 26.9998Z" fill="#1ABCFE"/>
</svg>
