<svg width="72" height="80" viewBox="0 0 72 80" fill="none" xmlns="http://www.w3.org/2000/svg">
<path d="M69.0911 17.7262L39.3877 0.785981C37.5164 -0.261994 35.065 -0.261994 33.1789 0.785981L3.24333 17.7262C1.31281 18.8185 0 20.8715 0 23.0673V56.9029C0 59.0987 1.3404 61.1523 3.2716 62.2506L11.1639 66.6754C14.9503 68.5093 15.9993 68.5093 17.7219 68.5093C23.3298 68.5093 26.2421 65.1755 26.2421 59.3607V25.9565C26.2427 25.4848 26.5422 24.7829 26.0705 24.7829H22.2875C21.8084 24.7829 20.8596 25.4848 20.8596 25.9559V59.3601C20.8596 61.9377 18.4264 64.5027 13.9948 62.324L5.838 57.6842C5.55404 57.5321 5.38313 57.2257 5.38313 56.9029V23.0673C5.38313 22.7485 5.69468 22.4282 5.98267 22.2648L35.8442 5.35367C36.1235 5.19819 36.5185 5.19819 36.7964 5.35367L66.3787 22.2609C66.662 22.4282 66.6169 22.7385 66.6169 23.0673V56.9029C66.6169 57.2257 66.6788 57.54 66.3995 57.6955L36.7028 74.6166C36.4485 74.7667 36.1174 74.7667 35.8382 74.6166L28.2231 70.1514C27.9936 70.0204 27.717 69.9735 27.4963 70.0945C25.3801 71.2742 24.9871 71.431 23.0021 72.1078C22.5129 72.2752 21.7916 72.5656 23.2766 73.384L33.2341 79.1756C34.1869 79.7182 35.2709 80 36.361 80C37.4659 80 38.5472 79.7182 39.5007 79.1756L69.0918 62.2506C71.0236 61.1444 72 59.0987 72 56.9029V23.0673C71.9993 20.8715 71.023 18.8238 69.0911 17.7262ZM45.5729 51.5413C37.6819 51.5413 35.9445 49.401 35.3651 45.5432C35.2965 45.1277 34.9385 44.6309 34.5079 44.6309H30.6522C30.1751 44.6309 29.7909 45.1998 29.7909 45.6669C29.7909 50.6064 32.5228 56.5913 45.5729 56.5913C55.0189 56.5913 60.4357 52.9822 60.4357 46.5952C60.4357 40.2623 56.0841 38.6004 46.9227 37.4082C37.6624 36.2047 36.7217 35.5967 36.7217 33.4637C36.7217 31.7052 37.5184 29.3598 44.3751 29.3598C50.5011 29.3598 52.7594 30.6526 53.6886 34.7128C53.7687 35.0946 54.1233 35.3685 54.5237 35.3685H58.3955C58.6337 35.3685 58.8605 35.2739 59.0273 35.1065C59.1895 34.9265 59.2743 34.7009 59.2534 34.4588C58.6525 27.4663 53.9288 24.2079 44.3745 24.2079C35.8745 24.2079 30.8049 27.7369 30.8049 33.6523C30.8049 40.0685 35.8496 41.8416 44.0084 42.6348C53.7687 43.5756 54.5277 44.9782 54.5277 46.8658C54.5277 50.1446 51.851 51.5413 45.5729 51.5413Z" fill="#83CD29"/>
</svg>
