<svg width="60" height="60" viewBox="0 0 60 60" fill="none" xmlns="http://www.w3.org/2000/svg">
<path d="M29.7843 0C14.5526 0 15.5019 6.63966 15.5019 6.63966L15.5186 13.5185H30.0561V15.5842H9.74865C9.74865 15.5842 0 14.4733 0 29.9219C0 45.3706 8.50764 44.824 8.50764 44.824H13.585V37.6552C13.585 37.6552 13.3116 29.1033 21.9568 29.1033H36.3729C36.3729 29.1033 44.4728 29.235 44.4728 21.2345V8.00755C44.4728 8.00755 45.7031 0 29.7843 0ZM21.7693 4.62589C22.3736 4.62647 22.9591 4.83764 23.4259 5.22342C23.8927 5.6092 24.2121 6.14574 24.3295 6.74163C24.447 7.33753 24.3553 7.95593 24.0701 8.49149C23.7848 9.02706 23.3237 9.44666 22.7653 9.67884C22.2068 9.91101 21.5856 9.9414 21.0073 9.76481C20.4291 9.58822 19.9296 9.21559 19.594 8.71038C19.2584 8.20518 19.1075 7.59864 19.1668 6.9941C19.2262 6.38956 19.4922 5.8244 19.9196 5.39489C20.1625 5.15078 20.4509 4.95722 20.7683 4.82526C21.0856 4.69331 21.4258 4.62556 21.7693 4.62589Z" fill="url(#paint0_linear_269_790)"/>
<path d="M30.2163 59.9998C45.4485 59.9998 44.4976 53.3574 44.4976 53.3574L44.481 46.4785H29.945V44.4156H50.2525C50.2525 44.4156 59.9995 45.527 59.9995 30.0773C59.9995 14.6276 51.4919 15.1757 51.4919 15.1757H46.4161V22.3446C46.4161 22.3446 46.6895 30.8965 38.0444 30.8965H23.6277C23.6277 30.8965 15.5278 30.7648 15.5278 38.7658V51.9966C15.5278 51.9966 14.3002 59.9998 30.2163 59.9998ZM38.2313 55.3744C37.6268 55.374 37.0412 55.163 36.5742 54.7772C36.1071 54.3915 35.7876 53.8549 35.6699 53.2589C35.5523 52.663 35.6438 52.0444 35.929 51.5086C36.2141 50.9729 36.6752 50.5531 37.2337 50.3207C37.7923 50.0883 38.4137 50.0578 38.9921 50.2343C39.5705 50.4108 40.0701 50.7834 40.4059 51.2886C40.7417 51.7939 40.8928 52.4005 40.8336 53.0052C40.7743 53.6099 40.5084 54.1752 40.081 54.6049C39.8382 54.8491 39.5498 55.0428 39.2324 55.1748C38.915 55.3069 38.5748 55.3747 38.2313 55.3744Z" fill="url(#paint1_linear_269_790)"/>
<defs>
<linearGradient id="paint0_linear_269_790" x1="5.78433" y1="5.37917" x2="35.6366" y2="34.8326" gradientUnits="userSpaceOnUse">
<stop stop-color="#387EB8"/>
<stop offset="1" stop-color="#366994"/>
</linearGradient>
<linearGradient id="paint1_linear_269_790" x1="24.0041" y1="24.4076" x2="56.086" y2="54.5612" gradientUnits="userSpaceOnUse">
<stop stop-color="#FFE052"/>
<stop offset="1" stop-color="#FFC331"/>
</linearGradient>
</defs>
</svg>
