<svg width="74" height="72" viewBox="0 0 74 72" fill="none" xmlns="http://www.w3.org/2000/svg">
<path d="M36.9997 43.3416C40.721 43.3416 43.7378 40.0546 43.7378 35.9999C43.7378 31.9452 40.721 28.6582 36.9997 28.6582C33.2784 28.6582 30.2617 31.9452 30.2617 35.9999C30.2617 40.0546 33.2784 43.3416 36.9997 43.3416Z" fill="#61DAFB"/>
<path d="M62.5927 23.8927C61.2923 23.3775 59.9329 22.8623 58.5144 22.4115C58.869 20.8658 59.1645 19.3202 59.401 17.839C60.6422 9.3381 59.2827 3.34884 55.5 1.03041C54.377 0.322003 53.1358 0 51.7173 0C47.5799 0 42.3195 3.34884 37 8.9517C31.6805 3.34884 26.4201 0 22.2827 0C20.8642 0 19.623 0.322003 18.5 1.03041C14.7173 3.41324 13.3578 9.4025 14.599 17.839C14.8355 19.3202 15.131 20.8658 15.4856 22.4115C14.0671 22.8623 12.7077 23.3131 11.4073 23.8927C4.01917 26.9839 0 31.2343 0 36C0 40.7657 4.07828 45.0161 11.4073 48.1073C12.7077 48.6225 14.0671 49.1377 15.4856 49.5886C15.131 51.1342 14.8355 52.6798 14.599 54.161C13.3578 62.6619 14.7173 68.6512 18.5 70.9696C19.623 71.678 20.8642 72 22.2827 72C26.4792 72 31.7396 68.6512 37 63.0483C42.3195 68.6512 47.5799 72 51.7173 72C53.1358 72 54.377 71.678 55.5 70.9696C59.2827 68.5868 60.6422 62.5975 59.401 54.161C59.1645 52.6798 58.869 51.1342 58.5144 49.5886C59.9329 49.1377 61.2923 48.6869 62.5927 48.1073C69.9808 45.0161 74 40.7657 74 36C74 31.2343 69.9808 26.9839 62.5927 23.8927ZM53.845 4.25045C56.2684 5.79606 57.0958 10.5617 56.0911 17.3238C55.9137 18.6762 55.6182 20.093 55.2636 21.5742C52.1901 20.8014 48.9393 20.2862 45.5112 19.9642C43.5016 16.873 41.4329 14.1038 39.3642 11.5921C43.738 6.89088 48.1709 3.67084 51.7764 3.67084C52.5447 3.67084 53.254 3.86404 53.845 4.25045ZM47.2252 42.4401C46.1613 44.5009 44.9201 46.5617 43.6198 48.6225C41.4329 48.8157 39.246 48.8801 37 48.8801C34.6949 48.8801 32.508 48.8157 30.3802 48.6225C29.0799 46.5617 27.8978 44.5009 26.8339 42.4401C25.7109 40.3148 24.647 38.1252 23.7013 36C24.647 33.8748 25.7109 31.6852 26.8339 29.5599C27.8978 27.4991 29.139 25.4383 30.4393 23.3775C32.6262 23.1843 34.8131 23.1199 37.0591 23.1199C39.3642 23.1199 41.5511 23.1843 43.6789 23.3775C44.9792 25.4383 46.1613 27.4991 47.2252 29.5599C48.3482 31.6852 49.4121 33.8748 50.3578 36C49.353 38.1252 48.3482 40.2504 47.2252 42.4401ZM52.131 40.3148C53.0176 42.5689 53.7268 44.7585 54.377 46.9481C52.3674 47.4633 50.2396 47.8497 47.9936 48.1717C48.7029 46.9481 49.4712 45.6601 50.1214 44.3077C50.8307 42.9553 51.4808 41.6029 52.131 40.3148ZM37 57.7674C35.5815 56.093 34.222 54.2898 32.9217 52.4222C34.2811 52.4866 35.6406 52.551 37 52.551C38.3594 52.551 39.7188 52.4866 41.0783 52.4222C39.778 54.2898 38.4185 56.093 37 57.7674ZM26.0064 48.1073C23.7604 47.7853 21.6326 47.3989 19.623 46.8837C20.2732 44.7585 20.9824 42.5045 21.869 40.2504C22.5192 41.5385 23.1693 42.8909 23.8786 44.1789C24.5879 45.5957 25.2971 46.8193 26.0064 48.1073ZM21.869 31.6852C20.9824 29.4311 20.2732 27.2415 19.623 25.0519C21.6326 24.5367 23.7604 24.1503 26.0064 23.8283C25.2971 25.0519 24.5288 26.3399 23.8786 27.6923C23.1693 29.0447 22.5192 30.3971 21.869 31.6852ZM37 14.2326C38.4185 15.907 39.778 17.7102 41.0783 19.5778C39.7188 19.5134 38.3594 19.449 37 19.449C35.6406 19.449 34.2811 19.5134 32.9217 19.5778C34.222 17.7102 35.5815 15.907 37 14.2326ZM50.1214 27.7567L47.9936 23.8927C50.2396 24.2147 52.3674 24.6011 54.377 25.1163C53.7268 27.2415 53.0176 29.4955 52.131 31.7496C51.4808 30.3971 50.8307 29.0447 50.1214 27.7567ZM17.9089 17.3238C16.9042 10.5617 17.7316 5.79606 20.155 4.25045C20.746 3.86404 21.4553 3.67084 22.2236 3.67084C25.77 3.67084 30.2029 6.82648 34.6358 11.5921C32.5671 14.0394 30.4984 16.873 28.4888 19.9642C25.0607 20.2862 21.8099 20.8658 18.7364 21.5742C18.3818 20.093 18.1454 18.6762 17.9089 17.3238ZM3.3099 36C3.3099 32.9732 6.67891 29.7531 12.5895 27.3703C13.7716 26.8551 15.0719 26.4043 16.3722 26.0179C17.3179 29.2379 18.5 32.6512 19.9185 36.0644C18.5 39.4776 17.2588 42.8265 16.3722 46.0465C8.21566 43.4705 3.3099 39.6064 3.3099 36ZM20.155 67.7496C17.7316 66.2039 16.9042 61.4383 17.9089 54.6762C18.0863 53.3238 18.3818 51.907 18.7364 50.4258C21.8099 51.1986 25.0607 51.7138 28.4888 52.0358C30.4984 55.127 32.5671 57.8962 34.6358 60.4079C30.262 65.1091 25.8291 68.3292 22.2236 68.3292C21.4553 68.3292 20.746 68.136 20.155 67.7496ZM56.0911 54.6762C57.0958 61.4383 56.2684 66.2039 53.845 67.7496C53.254 68.136 52.5447 68.3292 51.7764 68.3292C48.23 68.3292 43.7971 65.1735 39.3642 60.4079C41.4329 57.9606 43.5016 55.127 45.5112 52.0358C48.9393 51.7138 52.1901 51.1342 55.2636 50.4258C55.6182 51.907 55.8546 53.3238 56.0911 54.6762ZM61.4105 44.6297C60.2284 45.1449 58.9281 45.5957 57.6278 45.9821C56.6821 42.7621 55.5 39.3488 54.0815 35.9356C55.5 32.5224 56.7412 29.1735 57.6278 25.9535C65.7843 28.5295 70.6901 32.3936 70.6901 36C70.6901 39.0268 67.262 42.2469 61.4105 44.6297Z" fill="#61DAFB"/>
</svg>
